<svg width="250" height="230" viewBox="0 0 250 230" fill="none" xmlns="http://www.w3.org/2000/svg">
<path d="M125 230C194.036 230 250 202.913 250 169.499C250 136.084 194.036 108.997 125 108.997C55.9644 108.997 0 136.084 0 169.499C0 202.913 55.9644 230 125 230Z" fill="#F5F5F5"/>
<path d="M40.6037 19.3637L35.8286 21.9422C35.8286 21.7427 35.8702 21.5432 35.8702 21.3486V20.0546C35.8702 17.7485 34.1381 16.8193 32.0106 17.9675C31.0914 18.5006 30.3055 19.2124 29.7063 20.0546C29.3578 17.1599 26.9287 16.0847 23.9846 17.6756C20.796 19.3978 18.2108 23.5866 18.2108 27.031V28.977C18.1871 29.7498 18.3544 30.5173 18.6997 31.2198L14.7309 33.3604C14.1088 33.7414 13.5912 34.2539 13.2198 34.8564C12.8485 35.459 12.6338 36.1347 12.593 36.8292C12.593 38.1087 13.5501 38.6244 14.7309 37.987L40.6037 23.9904C41.2231 23.6113 41.739 23.1019 42.1102 22.5029C42.4814 21.904 42.6977 21.2321 42.7416 20.5411C42.7416 19.2421 41.7845 18.7264 40.6037 19.3637Z" fill="#EBEBEB"/>
<path d="M63.574 29.0354L59.9693 30.9814C59.9899 30.8346 60.0003 30.6867 60.0005 30.5387V29.5657C60.0005 27.8289 58.6949 27.1332 57.0876 27.9943C56.3957 28.3926 55.8033 28.9252 55.3503 29.5559C55.0902 27.3715 53.2696 26.5542 51.0329 27.7559C48.6246 29.0548 46.674 32.2171 46.674 34.815V36.2745C46.6564 36.8579 46.7828 37.4373 47.0433 37.9676L44.0419 39.5779C43.5723 39.8651 43.1816 40.2518 42.9015 40.7065C42.6214 41.1612 42.4596 41.6712 42.4294 42.1953C42.4294 43.1683 43.1525 43.5526 44.0419 43.071L63.5688 32.5285C64.0388 32.2412 64.4301 31.8547 64.7111 31.4C64.9921 30.9454 65.1549 30.4354 65.1865 29.9111C65.1917 28.9478 64.4635 28.5537 63.574 29.0354Z" fill="#EBEBEB"/>
<path d="M201.432 164.633C216.466 164.633 228.653 158.051 228.653 149.931C228.653 141.812 216.466 135.229 201.432 135.229C186.399 135.229 174.212 141.812 174.212 149.931C174.212 158.051 186.399 164.633 201.432 164.633Z" fill="#E0E0E0"/>
<path d="M182.535 215.721C181.467 215.715 180.404 215.573 179.378 215.298C176.257 214.485 175.315 212.968 175.05 211.839C174.628 210.01 175.804 208.117 177.13 207.052C177.614 206.672 178.171 206.273 178.743 205.86C180.241 204.78 182.103 203.427 182.535 202.401L184.616 197.351L183.029 196.495L183.372 195.75L181.718 196.081L180.974 195.152C179.331 195.891 175.289 197.725 169.869 200.26C168.621 200.844 167.57 201.35 166.649 201.793C163.606 203.252 161.926 204.069 159.367 204.639C158.427 204.856 157.464 204.968 156.496 204.974C154.503 204.974 152.943 204.444 151.986 203.442C151.562 202.972 151.252 202.421 151.078 201.828C150.905 201.235 150.872 200.613 150.982 200.007C151.549 195.249 161.468 191.099 166.618 190.666C168.309 190.52 169.905 190.452 171.632 190.452C172.47 190.452 173.224 190.452 173.9 190.486C174.42 190.486 174.941 190.486 175.383 190.486C175.825 190.486 176.251 190.486 176.626 190.442C178.577 190.277 184.642 189.226 184.704 189.216L185.365 189.105L185.77 189.591L187.284 189.319C189.287 187.99 204.611 177.832 208.226 175.507C210.483 174.047 214.525 171.761 215.752 171.761H216.413L216.819 172.335L217.131 172.88L216.715 173.522C216.626 173.658 214.046 177.414 210.931 179.725C209.641 180.698 205.916 183.641 202.213 186.609L230.26 181.573L229.032 183.52C228.694 184.069 226.874 185.621 217.433 188.234C211.747 189.8 201.365 192.053 193.547 193.683L192.288 194.709C192.2 196.013 191.919 199.978 191.731 202.055C191.726 202.897 191.863 203.735 192.137 204.536C192.616 206.283 193.203 208.463 191.669 210.691C190.358 212.573 187.445 215.721 182.535 215.721ZM184.512 208.175C183.834 208.16 183.161 208.271 182.53 208.502C181.899 208.734 181.324 209.081 180.839 209.523C180.697 209.652 180.588 209.81 180.522 209.985C180.456 210.159 180.435 210.346 180.46 210.53C180.578 210.753 180.751 210.946 180.964 211.095C181.178 211.243 181.425 211.343 181.687 211.386C182.09 211.491 182.507 211.541 182.925 211.537C183.603 211.552 184.277 211.441 184.909 211.21C185.54 210.978 186.116 210.632 186.603 210.19C186.746 210.062 186.855 209.903 186.92 209.728C186.985 209.553 187.005 209.366 186.977 209.183C186.859 208.96 186.687 208.766 186.473 208.618C186.26 208.47 186.012 208.372 185.75 208.331C185.347 208.225 184.93 208.172 184.512 208.175ZM170.166 194.261C168.111 194.29 166.073 194.618 164.126 195.234C158.748 196.889 157.057 198.947 156.532 200.027C156.464 200.163 156.319 200.513 156.444 200.683C156.559 200.793 156.7 200.876 156.855 200.927C157.01 200.979 157.175 200.997 157.338 200.98C157.514 200.98 157.689 200.958 157.859 200.917C158.861 200.661 159.806 200.237 160.647 199.667C161.736 199.007 162.865 198.406 164.028 197.866C166.832 196.576 169.734 195.478 172.709 194.583L172.803 194.549C171.941 194.343 171.054 194.247 170.166 194.261Z" fill="#E0E0E0"/>
<path d="M86.5653 213.323C83.8761 214.607 90.6746 219.083 94.0349 217.356L153.38 184.867L160.449 177.891C160.519 177.82 160.562 177.729 160.571 177.633C160.581 177.537 160.557 177.441 160.503 177.359C160.449 177.277 160.367 177.214 160.271 177.179C160.175 177.144 160.07 177.139 159.971 177.166L146.332 181.058L86.5653 213.323Z" fill="#E0E0E0"/>
<path d="M35.9744 203.169L13.2225 190.88C11.9377 190.189 11.9377 189.066 13.2225 188.375L140.537 119.705C141.257 119.364 142.053 119.187 142.86 119.187C143.667 119.187 144.462 119.364 145.182 119.705L167.939 131.994C169.219 132.685 169.219 133.809 167.939 134.499L40.6194 203.169C39.8994 203.51 39.1038 203.688 38.2969 203.688C37.49 203.688 36.6944 203.51 35.9744 203.169Z" fill="#E0E0E0"/>
<path d="M182.431 137.389C182.442 137.269 182.488 137.154 182.563 137.055C182.638 136.957 182.74 136.879 182.858 136.83C183.176 136.679 183.528 136.6 183.885 136.6C184.242 136.6 184.594 136.679 184.912 136.83C185.03 136.88 185.131 136.958 185.206 137.056C185.281 137.154 185.327 137.269 185.339 137.389L182.686 150.111C182.675 150.194 182.642 150.273 182.589 150.34C182.536 150.408 182.466 150.461 182.384 150.496C182.16 150.604 181.911 150.66 181.659 150.66C181.406 150.66 181.158 150.604 180.933 150.496C180.852 150.461 180.781 150.408 180.728 150.34C180.676 150.273 180.642 150.194 180.631 150.111L182.431 137.389Z" fill="#455A64"/>
<path d="M220.075 137.389C220.064 137.27 220.019 137.155 219.945 137.056C219.871 136.958 219.771 136.88 219.654 136.83C219.332 136.675 218.975 136.595 218.614 136.595C218.252 136.595 217.895 136.675 217.573 136.83C217.456 136.88 217.356 136.958 217.282 137.056C217.208 137.155 217.163 137.27 217.152 137.389L219.799 150.111C219.81 150.194 219.842 150.272 219.894 150.34C219.946 150.407 220.016 150.461 220.096 150.496C220.321 150.604 220.571 150.66 220.824 150.66C221.077 150.66 221.327 150.604 221.552 150.496C221.633 150.461 221.702 150.407 221.754 150.34C221.806 150.272 221.839 150.194 221.849 150.111L220.075 137.389Z" fill="#455A64"/>
<path d="M202.884 139.272C202.872 139.152 202.827 139.038 202.752 138.94C202.677 138.843 202.575 138.766 202.457 138.717C202.139 138.566 201.787 138.487 201.43 138.487C201.073 138.487 200.721 138.566 200.403 138.717C200.286 138.767 200.185 138.844 200.11 138.941C200.035 139.039 199.989 139.153 199.976 139.272L200.403 157.419C200.414 157.502 200.447 157.58 200.5 157.648C200.553 157.715 200.623 157.769 200.704 157.803C200.93 157.909 201.178 157.964 201.43 157.964C201.682 157.964 201.93 157.909 202.156 157.803C202.237 157.769 202.307 157.715 202.36 157.648C202.413 157.58 202.447 157.502 202.457 157.419L202.884 139.272Z" fill="#455A64"/>
<path d="M227.482 127.693H227.456C227.456 124.093 224.939 120.493 219.852 117.749C209.677 112.257 193.183 112.257 183.014 117.749C177.927 120.493 175.404 124.074 175.404 127.693V129.639C175.461 133.191 178.005 136.733 183.035 139.442C193.204 144.935 209.698 144.935 219.872 139.442C224.892 136.733 227.441 133.191 227.503 129.639L227.482 127.693Z" fill="#00A1CD"/>
<path d="M183.008 117.749C172.839 123.242 172.839 132.15 183.008 137.642C193.178 143.135 209.672 143.135 219.846 137.642C230.021 132.15 230.021 123.242 219.846 117.749C209.672 112.257 193.183 112.257 183.008 117.749Z" fill="#00A1CD"/>
<path opacity="0.45" d="M183.008 117.749C172.839 123.242 172.839 132.15 183.008 137.642C193.178 143.135 209.672 143.135 219.846 137.642C230.021 132.15 230.021 123.242 219.846 117.749C209.672 112.257 193.183 112.257 183.008 117.749Z" fill="white"/>
<g opacity="0.05">
<path opacity="0.05" d="M207.139 125.344C210.385 127.095 210.385 129.936 207.139 131.668C203.893 133.4 198.629 133.419 195.388 131.668C192.148 129.917 192.143 127.075 195.388 125.344C198.634 123.612 203.893 123.587 207.139 125.344Z" fill="black"/>
</g>
<path d="M196.096 128.905C193.266 126.209 191.607 119.476 194.364 117.336H208.408C211.165 119.476 209.506 126.205 206.681 128.905L206.608 128.978L206.509 129.065C206.426 129.138 206.343 129.211 206.255 129.279L206.187 129.328L205.974 129.479C205.856 129.56 205.733 129.633 205.604 129.698C203.284 130.953 199.513 130.953 197.188 129.698C197.063 129.634 196.944 129.557 196.819 129.479L196.621 129.338L196.538 129.274C196.45 129.213 196.369 129.144 196.293 129.07L196.179 128.968C196.148 128.951 196.12 128.929 196.096 128.905Z" fill="#EBEBEB"/>
<path d="M207.17 116.475C210.369 118.202 210.369 121.004 207.17 122.731C203.971 124.458 198.785 124.458 195.581 122.731C192.377 121.004 192.382 118.202 195.581 116.475C198.78 114.747 203.971 114.747 207.17 116.475Z" fill="#FAFAFA"/>
<path d="M204.902 117.701C206.848 118.751 206.848 120.454 204.902 121.505C203.81 122.022 202.602 122.292 201.378 122.292C200.154 122.292 198.946 122.022 197.854 121.505C195.903 120.454 195.903 118.751 197.854 117.701C198.946 117.183 200.154 116.914 201.378 116.914C202.602 116.914 203.81 117.183 204.902 117.701Z" fill="#EBEBEB"/>
<path d="M197.854 119.505C198.946 118.988 200.154 118.719 201.378 118.719C202.602 118.719 203.81 118.988 204.902 119.505C205.374 119.744 205.774 120.088 206.067 120.508C205.77 120.917 205.37 121.251 204.902 121.481C203.81 121.998 202.602 122.267 201.378 122.267C200.154 122.267 198.946 121.998 197.854 121.481C197.385 121.25 196.984 120.916 196.684 120.508C196.98 120.089 197.382 119.745 197.854 119.505Z" fill="#E0E0E0"/>
<path d="M204.47 120.508C205.468 119.56 206.326 118.494 207.024 117.336C208.2 115.39 208.418 112.777 207.81 112.471C207.201 112.164 204.72 114.752 204.72 114.752C204.95 113.657 205.039 112.54 204.985 111.425C204.881 109.693 204.429 108.116 203.898 107.8C203.368 107.484 202.176 109.668 201.667 111.254C201.157 112.84 200.85 114.144 200.85 114.144C200.648 112.908 200.344 111.688 199.94 110.495C199.321 108.846 198.759 108.476 198.327 108.637C197.896 108.798 197.604 109.571 197.474 111.76C197.429 112.809 197.465 113.859 197.583 114.903C197.583 114.903 196.71 114.003 195.737 113.132C194.671 112.159 194.218 112.043 193.911 112.223C193.604 112.403 193.521 113.896 195.175 116.689C195.996 118.111 197.049 119.404 198.296 120.522C198.296 120.522 200.569 121.884 204.47 120.508Z" fill="#00A1CD"/>
<path opacity="0.3" d="M204.47 120.508C205.468 119.56 206.326 118.494 207.024 117.336C208.2 115.39 208.418 112.777 207.81 112.471C207.201 112.164 204.72 114.752 204.72 114.752C204.95 113.657 205.039 112.54 204.985 111.425C204.881 109.693 204.429 108.116 203.898 107.8C203.368 107.484 202.176 109.668 201.667 111.254C201.157 112.84 200.85 114.144 200.85 114.144C200.648 112.908 200.344 111.688 199.94 110.495C199.321 108.846 198.759 108.476 198.327 108.637C197.896 108.798 197.604 109.571 197.474 111.76C197.429 112.809 197.465 113.859 197.583 114.903C197.583 114.903 196.71 114.003 195.737 113.132C194.671 112.159 194.218 112.043 193.911 112.223C193.604 112.403 193.521 113.896 195.175 116.689C195.996 118.111 197.049 119.404 198.296 120.522C198.296 120.522 200.569 121.884 204.47 120.508Z" fill="black"/>
<path d="M112.73 184.074L132.288 173.493C134.306 172.408 135.315 170.977 135.315 169.552C135.315 168.127 135.315 167.008 135.315 167.008L115.029 156.305C114.461 155.959 113.989 155.492 113.65 154.944C113.311 154.395 113.115 153.78 113.078 153.147V130.593L78.9138 149.08V171.639C78.9495 172.271 79.1444 172.886 79.4825 173.434C79.8205 173.981 80.2923 174.447 80.8592 174.792L98.139 184.074C102.16 186.249 108.698 186.249 112.73 184.074Z" fill="#00A1CD"/>
<g opacity="0.6">
<path opacity="0.6" d="M112.73 184.074L132.288 173.493C134.306 172.408 135.315 170.977 135.315 169.552C135.315 168.127 135.315 167.008 135.315 167.008L115.029 156.305C114.461 155.959 113.989 155.492 113.65 154.944C113.311 154.395 113.115 153.78 113.078 153.147V130.593L78.9138 149.08V171.639C78.9495 172.271 79.1444 172.886 79.4825 173.434C79.8205 173.981 80.2923 174.447 80.8592 174.792L98.139 184.074C102.16 186.249 108.698 186.249 112.73 184.074Z" fill="black"/>
</g>
<path opacity="0.3" d="M87.1168 175.609V178.168L80.8748 174.792C80.3093 174.445 79.8387 173.98 79.5008 173.432C79.1629 172.884 78.9672 172.27 78.9294 171.639V149.061L85.4211 145.572C85.5511 147.114 85.7019 148.715 85.8372 150.272L81.2702 152.743V170.364C81.3034 170.997 81.4972 171.612 81.8355 172.161C82.1738 172.709 82.6469 173.174 83.2156 173.517L87.1168 175.609Z" fill="black"/>
<path d="M81.27 170.345C81.3057 170.977 81.5006 171.592 81.8387 172.139C82.1767 172.687 82.6485 173.153 83.2154 173.498L98.1388 181.53C102.17 183.704 108.709 183.709 112.745 181.53L132.313 170.953C136.345 168.778 136.345 165.246 132.313 163.067L117.385 155.035C116.818 154.689 116.347 154.222 116.009 153.674C115.671 153.125 115.476 152.51 115.439 151.877V134.251L81.2752 152.738L81.27 170.345Z" fill="#00A1CD"/>
<path opacity="0.3" d="M81.27 170.345C81.3057 170.977 81.5006 171.592 81.8387 172.139C82.1767 172.687 82.6485 173.153 83.2154 173.498L98.1388 181.53C102.17 183.704 108.709 183.709 112.745 181.53L132.313 170.953C136.345 168.778 136.345 165.246 132.313 163.067L117.385 155.035C116.818 154.689 116.347 154.222 116.009 153.674C115.671 153.125 115.476 152.51 115.439 151.877V134.251L81.2752 152.738L81.27 170.345Z" fill="black"/>
<path opacity="0.5" d="M121.349 157.175L117.385 155.035C116.818 154.689 116.347 154.222 116.009 153.674C115.671 153.125 115.476 152.51 115.439 151.877V134.251L81.2753 152.738V170.364C81.311 170.996 81.5058 171.611 81.8439 172.159C82.182 172.707 82.6537 173.172 83.2207 173.517L87.1219 175.624L121.349 157.175Z" fill="black"/>
<path d="M135.32 167.008V169.552C135.32 170.982 134.28 172.403 132.293 173.498L112.729 184.069C110.586 185.142 108.19 185.698 105.759 185.689V183.155C108.19 183.164 110.586 182.607 112.729 181.535L132.293 170.953C134.306 169.868 135.32 168.438 135.32 167.008Z" fill="#00A1CD"/>
<path opacity="0.5" d="M135.32 167.008V169.552C135.32 170.982 134.28 172.403 132.293 173.498L112.729 184.069C110.586 185.142 108.19 185.698 105.759 185.689V183.155C108.19 183.164 110.586 182.607 112.729 181.535L132.293 170.953C134.306 169.868 135.32 168.438 135.32 167.008Z" fill="black"/>
<path d="M26.4087 192.277C27.1464 192.612 27.9583 192.779 28.7782 192.764C29.5981 192.75 30.4028 192.554 31.1265 192.194L163.248 120.843C163.955 120.411 164.544 119.829 164.966 119.144C165.388 118.46 165.631 117.692 165.677 116.903V4.35024C165.649 3.58359 165.427 2.834 165.03 2.16268C164.633 1.49135 164.072 0.91731 163.393 0.487413C162.656 0.153195 161.845 -0.0135155 161.026 0.000856337C160.207 0.0152282 159.404 0.210276 158.681 0.570119L26.5647 71.9206C25.8558 72.3517 25.2658 72.9334 24.8427 73.6182C24.4197 74.303 24.1756 75.0715 24.1304 75.8613V188.385C24.153 189.156 24.3713 189.911 24.7675 190.588C25.1636 191.264 25.7262 191.843 26.4087 192.277Z" fill="#00A1CD"/>
<path d="M31.1265 192.17L163.248 120.819C163.956 120.387 164.546 119.804 164.969 119.118C165.392 118.433 165.636 117.664 165.682 116.873V4.34538C165.682 2.88587 164.59 2.30693 163.248 3.03182L31.1265 74.3823C30.4176 74.8134 29.8275 75.3951 29.4045 76.0799C28.9815 76.7647 28.7374 77.5332 28.6921 78.323V190.851C28.6921 192.306 29.7845 192.894 31.1265 192.17Z" fill="#00A1CD"/>
<path opacity="0.5" d="M31.1265 192.17L163.248 120.819C163.956 120.387 164.546 119.804 164.969 119.118C165.392 118.433 165.636 117.664 165.682 116.873V4.34538C165.682 2.88587 164.59 2.30693 163.248 3.03182L31.1265 74.3823C30.4176 74.8134 29.8275 75.3951 29.4045 76.0799C28.9815 76.7647 28.7374 77.5332 28.6921 78.323V190.851C28.6921 192.306 29.7845 192.894 31.1265 192.17Z" fill="black"/>
<path d="M30.7676 194.767C30.0768 195.046 29.33 195.182 28.5779 195.167C27.8259 195.152 27.086 194.986 26.4086 194.68C25.7293 194.25 25.1684 193.676 24.7715 193.005C24.3747 192.333 24.1532 191.584 24.1251 190.817V181.71L28.6921 184.181V193.284C28.6921 194.607 29.592 195.196 30.7676 194.767Z" fill="#00A1CD"/>
<path opacity="0.5" d="M30.7676 194.767C30.0768 195.046 29.33 195.182 28.5779 195.167C27.8259 195.152 27.086 194.986 26.4086 194.68C25.7293 194.25 25.1684 193.676 24.7715 193.005C24.3747 192.333 24.1532 191.584 24.1251 190.817V181.71L28.6921 184.181V193.284C28.6921 194.607 29.592 195.196 30.7676 194.767Z" fill="black"/>
<path d="M28.6921 184.181V193.279C28.6921 194.738 29.7845 195.322 31.1265 194.592L163.248 123.247C163.956 122.814 164.546 122.232 164.969 121.546C165.392 120.861 165.636 120.091 165.682 119.301V110.184L28.6921 184.181Z" fill="#00A1CD"/>
<path opacity="0.3" d="M28.6921 184.162V193.279C28.6921 194.738 29.7845 195.322 31.1265 194.592L163.248 123.247C163.956 122.814 164.546 122.232 164.969 121.546C165.392 120.861 165.636 120.091 165.682 119.301V110.184L28.6921 184.162Z" fill="black"/>
<path d="M33.2592 172.758V79.7436C33.2872 79.2692 33.4341 78.8075 33.688 78.396C33.9419 77.9844 34.2957 77.6344 34.7208 77.3743L159.664 9.9061C160.47 9.47311 161.125 9.82339 161.125 10.6942V103.733C161.097 104.207 160.95 104.668 160.696 105.079C160.442 105.489 160.089 105.838 159.664 106.097L34.7208 173.551C33.9146 173.984 33.2592 173.629 33.2592 172.758Z" fill="#00A1CD"/>
<path d="M33.2592 172.758V79.7436C33.2872 79.2692 33.4341 78.8075 33.688 78.396C33.9419 77.9844 34.2957 77.6344 34.7208 77.3743L159.664 9.9061C160.47 9.47311 161.125 9.82339 161.125 10.6942V103.733C161.097 104.207 160.95 104.668 160.696 105.079C160.442 105.489 160.089 105.838 159.664 106.097L34.7208 173.551C33.9146 173.984 33.2592 173.629 33.2592 172.758Z" fill="#263238"/>
<path opacity="0.7" d="M29.41 76.0705C28.9774 76.7552 28.731 77.5286 28.6921 78.323V184.181L24.1251 181.71V75.8613C24.1565 75.0679 24.4016 74.2948 24.8377 73.6136L29.41 76.0705Z" fill="black"/>
<path opacity="0.3" d="M165.671 3.97078C165.5 2.79831 164.485 2.37505 163.258 3.03183L31.1369 74.3823C30.4174 74.7994 29.8246 75.3824 29.4152 76.0754L24.8481 73.6088C25.2605 72.9179 25.8527 72.3356 26.5699 71.9158L158.696 0.594454C159.42 0.233813 160.224 0.0383296 161.044 0.0239563C161.864 0.00958293 162.676 0.176727 163.414 0.511749C164.032 0.905012 164.552 1.41697 164.942 2.01346C165.331 2.60994 165.58 3.27723 165.671 3.97078Z" fill="black"/>
<path d="M45.8106 181.612C45.521 181.772 45.1944 181.864 44.8587 181.88C44.3799 181.939 43.8935 181.859 43.4646 181.651C43.1243 181.434 42.8441 181.144 42.6469 180.806C42.4498 180.468 42.3414 180.091 42.3307 179.705V92.8159L44.6142 94.0468V180.956C44.6142 181.471 44.8899 181.768 45.2852 181.768C45.4706 181.754 45.6503 181.701 45.8106 181.612Z" fill="#F0F0F0"/>
<path d="M171.393 112.49C171.368 112.881 171.245 113.26 171.035 113.598C170.824 113.936 170.532 114.223 170.181 114.436L45.8105 181.612C45.1447 181.972 44.6038 181.681 44.6038 180.956V86.7054L47.938 84.9054C48.6038 84.5454 49.6909 79.0673 50.3619 78.683L79.2829 63.0663C79.9539 62.7063 81.53 66.7686 82.1958 66.4037L171.393 18.2399V112.49Z" fill="#FAFAFA"/>
<path d="M170.831 19.1302V112.49C170.808 112.791 170.712 113.083 170.551 113.344C170.39 113.605 170.167 113.829 169.9 113.998L45.5296 181.16C45.4527 181.206 45.3654 181.234 45.2748 181.243C45.1603 181.243 45.1603 180.97 45.1603 180.956V87.0022L48.2189 85.3481C48.7026 85.0854 49.0043 84.2048 49.6857 81.9426C49.9289 80.9731 50.2631 80.0256 50.6844 79.1111L79.3453 63.6355C79.6852 64.0656 79.9895 64.5193 80.2556 64.9928C81.0359 66.2772 81.4728 66.9388 82.1074 66.9388C82.2377 66.9388 82.3655 66.9051 82.4767 66.8415L170.831 19.1302ZM171.393 18.2253L82.1958 66.3891C82.1692 66.4043 82.1386 66.4127 82.1074 66.4134C81.4312 66.4134 80.0267 63.0079 79.3713 63.0079C79.3424 63.0006 79.3119 63.0006 79.2829 63.0079L50.3619 78.6246C49.6909 78.9895 48.6038 84.4626 47.938 84.847L44.6038 86.7054V180.956C44.6038 181.471 44.8742 181.768 45.2748 181.768C45.4599 181.76 45.6395 181.707 45.7949 181.612L170.181 114.436C170.532 114.223 170.824 113.936 171.035 113.598C171.245 113.26 171.368 112.88 171.393 112.49V18.2253Z" fill="#E0E0E0"/>
<path d="M43.4646 90.1839C43.1233 89.9673 42.8421 89.6778 42.644 89.3395C42.4459 89.0011 42.3367 88.6235 42.3254 88.2379V79.4079C42.3493 79.0189 42.4699 78.6404 42.6776 78.3026C42.8853 77.9648 43.1743 77.6769 43.5218 77.4619L167.892 10.3245C168.242 10.1171 168.646 10.0032 169.061 9.9954C169.475 9.98756 169.883 10.086 170.242 10.28C170.601 10.4741 170.896 10.7563 171.095 11.096C171.294 11.4358 171.39 11.8201 171.372 12.2073V21.0276C171.348 21.4182 171.225 21.7979 171.015 22.136C170.804 22.4741 170.512 22.761 170.16 22.9736L45.8105 90.145C45.4501 90.323 45.05 90.4192 44.6425 90.426C44.235 90.4327 43.8315 90.3498 43.4646 90.1839Z" fill="#00A1CD"/>
<path opacity="0.4" d="M171.378 11.9835C171.294 11.3948 170.785 11.1807 170.181 11.497L45.8106 78.6733C45.4556 78.8886 45.1612 79.1806 44.9523 79.5247L42.6792 78.2938C42.8829 77.9561 43.1723 77.6704 43.5219 77.4619L167.892 10.3245C168.227 10.1247 168.613 10.0112 169.01 9.99531C169.406 9.97942 169.801 10.0618 170.153 10.234C170.505 10.4062 170.802 10.6623 171.014 10.9763C171.226 11.2903 171.346 11.6511 171.362 12.0224L171.378 11.9835Z" fill="white"/>
<path opacity="0.1" d="M44.9523 79.5247C44.7361 79.862 44.6161 80.2456 44.6038 80.6388V94.0711L42.3203 92.8402V79.4079C42.3177 79.3625 42.3177 79.3171 42.3203 79.2717C42.3296 79.1768 42.3453 79.0826 42.3671 78.9895C42.4322 78.744 42.5338 78.5081 42.6688 78.2889L44.9523 79.5247Z" fill="black"/>
<path d="M171.388 12.1635V18.2253L82.1906 66.3891C81.5248 66.7539 80.9839 66.4572 80.9839 65.7371V63.4409C80.9839 62.7208 80.4637 62.4241 79.7667 62.7889L50.3567 78.6684C50.0064 78.8818 49.7143 79.1689 49.5038 79.5069C49.2934 79.8448 49.1704 80.2241 49.1448 80.6144V82.9058C49.1183 83.296 48.995 83.675 48.7847 84.0128C48.5743 84.3506 48.2826 84.6379 47.9328 84.8518L44.6038 86.7054V80.6387C44.6296 80.249 44.7521 79.8703 44.9616 79.5325C45.171 79.1947 45.4617 78.9072 45.8105 78.6927L170.181 11.5553C170.847 11.1467 171.388 11.4434 171.388 12.1635Z" fill="#00A1CD"/>
<path d="M165.708 15.9631C166.55 15.5106 167.232 15.8804 167.232 16.7901C167.203 17.285 167.05 17.7667 166.785 18.196C166.52 18.6254 166.151 18.9904 165.708 19.2616C164.865 19.714 164.178 19.3443 164.178 18.4345C164.208 17.9392 164.362 17.4575 164.628 17.0281C164.894 16.5988 165.263 16.234 165.708 15.9631Z" fill="white"/>
<path d="M160.215 18.9258C161.058 18.4734 161.739 18.8383 161.739 19.748C161.711 20.2431 161.558 20.7251 161.293 21.1545C161.029 21.584 160.659 21.9489 160.215 22.2195C159.372 22.6768 158.691 22.307 158.691 21.3973C158.72 20.9024 158.873 20.4207 159.137 19.9914C159.402 19.562 159.771 19.197 160.215 18.9258Z" fill="white"/>
<path d="M154.722 21.8886C155.565 21.4313 156.246 21.8011 156.246 22.7108C156.217 23.2058 156.064 23.6874 155.799 24.1167C155.535 24.5461 155.166 24.9111 154.722 25.1823C153.879 25.6347 153.198 25.2698 153.198 24.3601C153.226 23.865 153.378 23.3831 153.643 22.9536C153.908 22.5241 154.278 22.1592 154.722 21.8886Z" fill="white"/>
<path d="M171.393 18.2253V25.5958L44.6038 94.0711V86.7054L47.0953 85.3578C47.7611 84.9978 47.9848 84.4481 48.3021 83.4118L49.15 80.6679C49.4153 79.6949 49.6701 79.0673 50.3619 78.7219L79.2829 63.1052C79.9539 62.7452 80.4793 62.7062 80.989 63.4944L82.0294 65.2555C82.4091 65.8685 82.6016 66.2285 83.2674 65.8685L171.393 18.2253Z" fill="#E6E6E6"/>
<path d="M44.6038 86.6957V94.0711L42.3203 92.8402V85.4746L44.6038 86.6957Z" fill="#E0E0E0"/>
<path d="M50.1644 87.2309L48.2606 88.2574L48.9836 86.9535C49.0128 86.9044 49.0281 86.8492 49.0281 86.793C49.0281 86.7368 49.0128 86.6816 48.9836 86.6325C48.9264 86.5692 48.8328 86.6325 48.7651 86.7298L47.7248 88.5833C47.7248 88.5833 47.7248 88.6271 47.6988 88.6514C47.6728 88.6758 47.6988 88.6514 47.6988 88.6514C47.6963 88.6822 47.6963 88.7131 47.6988 88.7439C47.6953 88.7714 47.6953 88.7991 47.6988 88.8266C47.7063 88.8402 47.715 88.8532 47.7248 88.8655L48.7651 89.605C48.7799 89.616 48.7983 89.6221 48.8172 89.6221C48.8361 89.6221 48.8544 89.616 48.8692 89.605C48.9224 89.5727 48.9627 89.5248 48.9836 89.4688C49.0408 89.3471 49.0304 89.2109 48.9836 89.1671L48.2606 88.6417L50.1644 87.6152C50.2127 87.5792 50.2514 87.5332 50.2776 87.4809C50.3038 87.4286 50.3167 87.3713 50.3152 87.3136C50.3152 87.2455 50.2476 87.1919 50.1644 87.2309Z" fill="#455A64"/>
<path d="M51.7508 86.3697L53.6546 85.3432L52.9264 84.8227C52.8954 84.7768 52.879 84.7237 52.879 84.6694C52.879 84.6152 52.8954 84.562 52.9264 84.5162C52.9784 84.3945 53.0772 84.3362 53.1397 84.3799L54.18 85.1243C54.1941 85.1343 54.2049 85.1477 54.2112 85.1632C54.2166 85.1906 54.2166 85.2186 54.2112 85.2459C54.2162 85.2782 54.2162 85.311 54.2112 85.3432L54.18 85.4162L53.1397 87.2746C53.1196 87.3192 53.085 87.3567 53.0408 87.3817C53.0254 87.3954 53.0049 87.403 52.9836 87.403C52.9623 87.403 52.9418 87.3954 52.9264 87.3817C52.8967 87.3336 52.8811 87.2791 52.8811 87.2236C52.8811 87.168 52.8967 87.1135 52.9264 87.0654L53.6546 85.7616L51.7508 86.7881C51.6676 86.8319 51.6 86.7881 51.6 86.6519C51.6023 86.5976 51.617 86.5443 51.643 86.4957C51.669 86.447 51.7058 86.4041 51.7508 86.3697Z" fill="#455A64"/>
<path d="M57.9927 81.2469C57.9927 81.1398 57.8835 81.1496 57.8315 81.2469L57.5714 81.8453C57.124 81.8015 56.5883 82.2053 56.2242 82.9253C55.7508 83.8594 55.7508 84.9637 56.2242 85.387C56.3381 85.4866 56.4857 85.5459 56.6413 85.5548C56.797 85.5637 56.9511 85.5215 57.0772 85.4357C57.4579 85.1958 57.7561 84.8578 57.9355 84.4626C57.9642 84.4152 57.9793 84.3615 57.9793 84.307C57.9793 84.2524 57.9642 84.1988 57.9355 84.1513C57.8731 84.0978 57.7794 84.1513 57.717 84.268C57.3633 84.9637 56.7911 85.2751 56.4426 84.9589C56.0941 84.6427 56.0889 83.8156 56.4426 83.1199C56.6923 82.6334 57.0512 82.3318 57.3633 82.3123L57.1708 82.7648C57.1188 82.8815 57.1708 82.9885 57.2437 82.9399L58.0187 82.4534C58.0506 82.4312 58.0756 82.4015 58.0911 82.3673C58.1067 82.3331 58.1122 82.2957 58.1071 82.2588L57.9927 81.2469Z" fill="#455A64"/>
<path d="M78.4456 66.4231L79.1426 65.0512C79.1818 64.9858 79.2023 64.9121 79.2023 64.8371C79.2023 64.7622 79.1818 64.6884 79.1426 64.6231C79.0594 64.5501 78.9241 64.6231 78.8461 64.7836L78.1491 66.1555L77.4573 65.5328C77.374 65.4598 77.244 65.5328 77.1608 65.6934C77.119 65.7579 77.0969 65.832 77.0969 65.9074C77.0969 65.9829 77.119 66.0569 77.1608 66.1215L77.8526 66.7588L77.1608 68.1307C77.119 68.1953 77.0969 68.2693 77.0969 68.3448C77.0969 68.4203 77.119 68.4943 77.1608 68.5589C77.1808 68.5756 77.2067 68.5849 77.2336 68.5849C77.2605 68.5849 77.2864 68.5756 77.3064 68.5589C77.3743 68.5181 77.427 68.4586 77.4573 68.3886L78.1491 67.0166L78.8461 67.6394C78.8661 67.6561 78.892 67.6654 78.9189 67.6654C78.9458 67.6654 78.9717 67.6561 78.9917 67.6394C79.0596 67.5986 79.1123 67.5391 79.1426 67.4691C79.1818 67.4037 79.2023 67.33 79.2023 67.255C79.2023 67.1801 79.1818 67.1064 79.1426 67.041L78.4456 66.4231Z" fill="#455A64"/>
<path d="M60.5208 82.935V80.6387C60.546 80.2483 60.6688 79.8689 60.8793 79.5309C61.0897 79.1929 61.3821 78.9059 61.7327 78.6927L163.357 23.8201C164.028 23.4552 164.569 23.752 164.569 24.472V26.7683C164.543 27.1587 164.421 27.5382 164.21 27.8761C164 28.2141 163.707 28.5012 163.357 28.7143L61.7275 83.587C61.0617 83.9518 60.5208 83.6551 60.5208 82.935Z" fill="#FAFAFA"/>
<path d="M161.708 28.9089C161.672 28.9144 161.635 28.9144 161.599 28.9089C161.531 28.8794 161.475 28.8291 161.442 28.7663C161.409 28.7034 161.4 28.6318 161.416 28.5635L161.536 27.6342L161.068 27.318C161.027 27.2881 160.995 27.2495 160.973 27.2056C160.951 27.1616 160.941 27.1134 160.943 27.065C160.941 26.9895 160.958 26.9146 160.992 26.8462C161.027 26.7778 161.077 26.7178 161.141 26.671L161.853 26.1553C161.867 26.1395 161.878 26.1213 161.885 26.1018L162.202 25.1288C162.221 25.0487 162.266 24.9758 162.33 24.9195C162.394 24.8632 162.474 24.8259 162.561 24.8125C162.619 24.8063 162.679 24.8182 162.729 24.8463C162.78 24.8744 162.819 24.9172 162.842 24.9682L163.107 25.4985L163.71 25.2844C163.764 25.262 163.824 25.2566 163.881 25.2688C163.938 25.2811 163.99 25.3105 164.028 25.3525C164.077 25.4198 164.104 25.4996 164.104 25.5812C164.104 25.6628 164.077 25.7426 164.028 25.8099L163.508 26.7148C163.505 26.7325 163.505 26.7505 163.508 26.7683L163.632 27.5856C163.642 27.6604 163.633 27.7362 163.606 27.8071C163.579 27.878 163.534 27.9421 163.476 27.9943C163.442 28.0317 163.399 28.0607 163.35 28.0785C163.301 28.0964 163.248 28.1025 163.195 28.0964L162.639 28.0137L162.009 28.7629C161.976 28.8087 161.931 28.8459 161.878 28.8714C161.826 28.8969 161.767 28.9097 161.708 28.9089ZM161.364 27.0115L161.833 27.3277C161.881 27.3647 161.918 27.413 161.94 27.4677C161.962 27.5224 161.968 27.5815 161.957 27.6391L161.874 28.2618L162.296 27.7753C162.332 27.7274 162.38 27.6889 162.437 27.6633C162.493 27.6378 162.555 27.6261 162.618 27.6294L163.201 27.6975C163.205 27.6766 163.205 27.6552 163.201 27.6342L163.076 26.8169C163.066 26.716 163.088 26.6147 163.138 26.525L163.591 25.732L163.159 25.8926C163.091 25.919 163.014 25.9195 162.945 25.8941C162.876 25.8687 162.82 25.8193 162.79 25.7563L162.582 25.338L162.296 26.2088C162.266 26.3068 162.204 26.3936 162.119 26.4569L161.406 26.9434C161.386 26.962 161.371 26.9856 161.364 27.0115Z" fill="#E0E0E0"/>
<path d="M165.999 23.5379C165.906 23.5404 165.814 23.5136 165.739 23.4616C165.664 23.4097 165.61 23.3357 165.586 23.2515C165.561 23.1673 165.567 23.0778 165.604 22.9974C165.64 22.917 165.704 22.8503 165.786 22.8081L169.198 20.9643C169.246 20.9349 169.3 20.9149 169.356 20.9056C169.413 20.8964 169.471 20.8979 169.526 20.9103C169.582 20.9227 169.635 20.9456 169.681 20.9776C169.727 21.0096 169.765 21.05 169.794 21.0964C169.823 21.1428 169.841 21.1942 169.848 21.2475C169.854 21.3007 169.849 21.3547 169.833 21.4061C169.817 21.4575 169.789 21.5052 169.753 21.5463C169.716 21.5875 169.671 21.6212 169.619 21.6454L166.207 23.4844C166.145 23.5207 166.072 23.5393 165.999 23.5379Z" fill="#455A64"/>
<path d="M165.999 25.4061C165.925 25.4067 165.853 25.389 165.789 25.3548C165.725 25.3206 165.672 25.2712 165.635 25.2115C165.58 25.1209 165.564 25.0136 165.593 24.9127C165.621 24.8117 165.69 24.7251 165.786 24.6715L169.198 22.8325C169.246 22.8062 169.299 22.789 169.354 22.7819C169.409 22.7748 169.464 22.7778 169.518 22.7909C169.572 22.804 169.622 22.8269 169.666 22.8583C169.71 22.8896 169.747 22.9288 169.775 22.9736C169.803 23.0182 169.821 23.0675 169.828 23.1187C169.836 23.1699 169.832 23.2219 169.817 23.2717C169.803 23.3215 169.778 23.3681 169.744 23.4088C169.71 23.4495 169.668 23.4835 169.619 23.5087L166.207 25.3526C166.145 25.3888 166.072 25.4074 165.999 25.4061Z" fill="#455A64"/>
<path d="M165.999 27.2256C165.906 27.2258 165.816 27.1975 165.742 27.1449C165.669 27.0923 165.615 27.0185 165.591 26.9348C165.567 26.8511 165.573 26.7622 165.608 26.682C165.643 26.6017 165.706 26.5346 165.786 26.491L169.198 24.6471C169.295 24.5958 169.411 24.5823 169.519 24.6096C169.627 24.6369 169.719 24.7028 169.775 24.7931C169.803 24.8377 169.821 24.887 169.828 24.9382C169.835 24.9894 169.832 25.0414 169.817 25.0912C169.803 25.141 169.778 25.1876 169.744 25.2283C169.71 25.269 169.667 25.303 169.619 25.3282L166.207 27.1721C166.144 27.2061 166.072 27.2245 165.999 27.2256Z" fill="#455A64"/>
<path d="M48.3438 96.1339C48.2505 96.1364 48.159 96.1095 48.084 96.0576C48.009 96.0057 47.9549 95.9316 47.9303 95.8474C47.9056 95.7632 47.912 95.6738 47.9483 95.5933C47.9847 95.5129 48.0488 95.4463 48.1305 95.4041L51.5428 93.5603C51.6388 93.5148 51.7498 93.5055 51.853 93.5342C51.9562 93.5629 52.0437 93.6274 52.0976 93.7146C52.1515 93.8017 52.1677 93.9048 52.1429 94.0028C52.1181 94.1008 52.0541 94.1861 51.9641 94.2414L48.5518 96.0803C48.4891 96.1159 48.4171 96.1344 48.3438 96.1339Z" fill="#455A64"/>
<path d="M48.3438 97.9777C48.2702 97.9783 48.1976 97.9606 48.1337 97.9264C48.0697 97.8923 48.0166 97.8428 47.9797 97.7831C47.9516 97.7384 47.9333 97.689 47.9256 97.6376C47.918 97.5862 47.9213 97.534 47.9353 97.4838C47.9493 97.4337 47.9738 97.3866 48.0073 97.3453C48.0408 97.3039 48.0827 97.2692 48.1306 97.2431L51.5428 95.4041C51.5902 95.378 51.6427 95.3608 51.6972 95.3538C51.7517 95.3467 51.8072 95.3498 51.8604 95.363C51.9136 95.3761 51.9635 95.3989 52.0072 95.4302C52.0509 95.4615 52.0876 95.5006 52.115 95.5452C52.1431 95.5899 52.1615 95.6393 52.1691 95.6907C52.1767 95.7421 52.1734 95.7943 52.1594 95.8445C52.1454 95.8947 52.1209 95.9417 52.0874 95.9831C52.0539 96.0244 52.012 96.0591 51.9642 96.0852L48.5519 97.9242C48.4892 97.9597 48.4172 97.9783 48.3438 97.9777Z" fill="#455A64"/>
<path d="M48.3437 99.841C48.251 99.8413 48.1608 99.8129 48.087 99.7603C48.0133 99.7078 47.9602 99.6339 47.9359 99.5502C47.9116 99.4665 47.9175 99.3776 47.9527 99.2974C47.9878 99.2172 48.0503 99.15 48.1305 99.1064L51.5427 97.2674C51.5899 97.2406 51.6425 97.2229 51.6971 97.2155C51.7518 97.2081 51.8075 97.211 51.8609 97.2242C51.9143 97.2374 51.9643 97.2605 52.008 97.2922C52.0516 97.3238 52.088 97.3634 52.1149 97.4085C52.1429 97.4528 52.1612 97.5019 52.1687 97.5529C52.1763 97.6039 52.173 97.6557 52.1589 97.7055C52.1449 97.7553 52.1205 97.802 52.087 97.8428C52.0536 97.8837 52.0118 97.918 51.9641 97.9436L48.5518 99.7875C48.4882 99.8209 48.4167 99.8393 48.3437 99.841Z" fill="#455A64"/>
<path d="M78.6068 79.8944V82.721C78.6068 83.2999 79.0438 83.5334 79.5795 83.2464L120.116 61.3246V56.3914L79.5847 78.3133C79.3 78.4861 79.0631 78.7194 78.8931 78.9942C78.7232 79.269 78.6251 79.5774 78.6068 79.8944Z" fill="#E6E6E6"/>
<path d="M125.224 53.6232C125.744 53.3313 126.196 53.5697 126.196 54.1487V56.9752C126.178 57.2909 126.08 57.5979 125.911 57.8717C125.742 58.1455 125.506 58.3783 125.224 58.5515L120.116 61.31V56.3914L125.224 53.6232Z" fill="#00A1CD"/>
<path d="M124.844 57.5153L124.277 57.345C124.335 57.1203 124.365 56.8901 124.365 56.659C124.392 56.4434 124.358 56.225 124.267 56.0254C124.175 55.8258 124.03 55.6518 123.845 55.5206C123.717 55.4565 123.572 55.4263 123.426 55.4332C123.28 55.44 123.139 55.4837 123.018 55.5595C122.656 55.8198 122.363 56.1562 122.166 56.5416C121.968 56.927 121.869 57.3505 121.879 57.778C121.853 57.9936 121.887 58.212 121.978 58.4116C122.069 58.6112 122.214 58.7852 122.399 58.9164C122.509 58.9743 122.632 59.0045 122.758 59.004C122.924 59.0024 123.085 58.9587 123.226 58.8775C123.661 58.599 123.985 58.1935 124.147 57.7245L124.719 57.8899C124.74 57.8946 124.761 57.8946 124.782 57.8899C124.835 57.895 124.888 57.8808 124.93 57.8502C124.972 57.8196 125 57.7749 125.009 57.7255C125.017 57.6761 125.004 57.6257 124.973 57.5847C124.943 57.5438 124.896 57.5154 124.844 57.5055V57.5153ZM123.018 58.5369C122.959 58.5769 122.89 58.6012 122.818 58.6072C122.745 58.6132 122.673 58.6007 122.607 58.571C122.493 58.471 122.405 58.347 122.352 58.2091C122.298 58.0712 122.281 57.9235 122.3 57.778C122.295 57.4201 122.375 57.0657 122.535 56.7407C122.696 56.4157 122.932 56.1284 123.226 55.9001C123.305 55.8557 123.394 55.8306 123.486 55.8271C123.54 55.8256 123.592 55.8392 123.637 55.866C123.752 55.966 123.84 56.09 123.893 56.2279C123.946 56.3658 123.964 56.5136 123.944 56.659C123.949 57.0161 123.868 57.3696 123.708 57.6937C123.548 58.0177 123.312 58.3042 123.018 58.5321V58.5369Z" fill="#FAFAFA"/>
<path d="M61.7588 87.9363L55.907 91.084C55.6242 91.2547 55.3886 91.4857 55.2196 91.758C55.0505 92.0303 54.9528 92.3361 54.9343 92.6505V95.4673C54.9343 96.0463 55.3713 96.2798 55.907 95.9928L61.7588 92.8256C62.0411 92.6535 62.2759 92.4215 62.444 92.1484C62.6121 91.8753 62.7089 91.5689 62.7263 91.2542V88.4568C62.7263 87.8828 62.2946 87.6444 61.7588 87.9363Z" fill="#00A1CD"/>
<path d="M163.528 32.9761C162.865 33.3812 162.314 33.9265 161.918 34.568C161.522 35.2095 161.293 35.9291 161.25 36.6686C161.25 38.0308 162.29 38.5806 163.528 37.9043C164.193 37.499 164.745 36.9531 165.142 36.3107C165.539 35.6683 165.768 34.9476 165.812 34.2069C165.812 32.8447 164.787 32.295 163.528 32.9761Z" fill="#00A1CD"/>
<path d="M163.263 35.1361C163.192 35.1373 163.122 35.1205 163.06 35.0875C162.988 35.0395 162.93 34.9749 162.891 34.9C162.853 34.8251 162.836 34.7422 162.842 34.6593C162.851 34.4643 162.911 34.2743 163.015 34.1051C163.119 33.9358 163.265 33.7923 163.44 33.6863C163.511 33.6338 163.597 33.6024 163.688 33.5963C163.778 33.5902 163.869 33.6096 163.947 33.6521C164.026 33.6946 164.089 33.7581 164.128 33.8345C164.167 33.9108 164.181 33.9965 164.168 34.0804C164.157 34.2757 164.097 34.4657 163.992 34.6348C163.887 34.804 163.74 34.9475 163.565 35.0534C163.473 35.104 163.369 35.1325 163.263 35.1361Z" fill="white"/>
<path d="M164.428 35.287C164.302 35.2278 164.16 35.202 164.019 35.2123C163.878 35.2226 163.742 35.2686 163.627 35.3453L163.294 35.5253C162.992 35.7045 162.74 35.9485 162.559 36.237C162.378 36.5255 162.274 36.8503 162.254 37.1843V37.4081C162.458 37.4905 162.681 37.5221 162.901 37.4999C163.122 37.4778 163.332 37.4026 163.513 37.2816C164.038 36.9763 164.471 36.5511 164.771 36.0459V35.9924C164.786 35.8569 164.761 35.7204 164.701 35.5965C164.641 35.4727 164.547 35.3659 164.428 35.287Z" fill="white"/>
<path d="M155.461 39.573V38.819C155.461 37.9627 154.904 37.5686 154.217 37.9384C153.838 38.1926 153.527 38.5266 153.31 38.9136C153.093 39.3005 152.976 39.7297 152.969 40.1666V40.8428C152.953 41.3074 152.807 41.76 152.548 42.1564C152.483 42.26 152.448 42.3771 152.444 42.4969C152.444 42.7158 152.584 42.8131 152.756 42.7207L155.674 41.1493C155.769 41.0841 155.847 40.9992 155.901 40.9013C155.955 40.8034 155.984 40.6952 155.986 40.585C155.989 40.5427 155.983 40.5004 155.967 40.4608C155.95 40.4213 155.925 40.3856 155.892 40.3563C155.746 40.2803 155.626 40.1653 155.55 40.0259C155.473 39.8865 155.442 39.7289 155.461 39.573Z" fill="#00A1CD"/>
<path d="M154.836 41.8499C154.833 42.0595 154.777 42.2654 154.673 42.4512C154.569 42.637 154.42 42.7976 154.238 42.9202C153.905 43.0953 153.635 42.9202 153.635 42.4969L154.836 41.8499Z" fill="#00A1CD"/>
<path d="M144.704 43.1537C144.863 43.0655 145.04 43.0092 145.224 42.9883C145.368 42.9725 145.514 42.9997 145.64 43.0661C145.762 43.1362 145.859 43.2398 145.916 43.3629C145.983 43.5322 146.01 43.7132 145.994 43.8932C145.996 44.0569 145.976 44.2202 145.937 44.3797C145.899 44.5223 145.85 44.6621 145.791 44.7981C145.734 44.9261 145.67 45.0512 145.598 45.1727L145.39 45.523C145.328 45.6349 145.266 45.7516 145.214 45.8635C145.164 45.9712 145.127 46.0838 145.104 46.1992C145.099 46.2544 145.085 46.3085 145.063 46.3598C145.045 46.3988 145.016 46.4325 144.979 46.4571L144.392 46.7733C144.355 46.7733 144.324 46.7733 144.303 46.7733C144.288 46.7584 144.277 46.7407 144.27 46.7215C144.263 46.7022 144.26 46.6817 144.262 46.6614C144.261 46.5115 144.284 46.3623 144.329 46.2187C144.371 46.0777 144.423 45.9395 144.485 45.8051C144.553 45.6738 144.621 45.5424 144.699 45.4208C144.777 45.2992 144.839 45.1776 144.907 45.0705C144.974 44.9635 145.021 44.8516 145.068 44.7494C145.107 44.6581 145.128 44.5608 145.13 44.4624C145.13 44.3262 145.094 44.2386 145.026 44.2045C144.959 44.1705 144.844 44.2046 144.699 44.2629C144.574 44.3243 144.468 44.4148 144.392 44.5256C144.334 44.613 144.287 44.706 144.251 44.8029L144.178 45.0462C144.162 45.1121 144.119 45.1696 144.059 45.2067L143.471 45.523C143.46 45.5301 143.448 45.5339 143.435 45.5339C143.422 45.5339 143.409 45.5301 143.398 45.523C143.386 45.5095 143.377 45.494 143.372 45.4773C143.367 45.4606 143.365 45.443 143.367 45.4257C143.374 45.2364 143.406 45.0486 143.461 44.8662C143.527 44.6501 143.614 44.44 143.721 44.2386C143.834 44.0263 143.974 43.8271 144.137 43.6451C144.293 43.4506 144.485 43.2842 144.704 43.1537ZM145.12 47.649C145.12 47.7012 145.107 47.7526 145.084 47.7998C145.064 47.8417 145.031 47.8772 144.99 47.902L144.387 48.2279C144.381 48.2334 144.374 48.2377 144.366 48.2406C144.359 48.2436 144.351 48.2451 144.342 48.2451C144.334 48.2451 144.326 48.2436 144.318 48.2406C144.311 48.2377 144.304 48.2334 144.298 48.2279C144.283 48.213 144.272 48.1954 144.265 48.1761C144.257 48.1568 144.255 48.1364 144.256 48.116V47.4203C144.258 47.3678 144.272 47.3162 144.298 47.2695C144.314 47.2258 144.345 47.1883 144.387 47.1625L144.99 46.8365C145.003 46.8262 145.02 46.8206 145.037 46.8206C145.054 46.8206 145.07 46.8262 145.084 46.8365C145.097 46.8509 145.108 46.8679 145.114 46.8864C145.12 46.9048 145.122 46.9243 145.12 46.9436V47.649Z" fill="#00A1CD"/>
<path d="M134.696 61.4657V71.1374C134.696 71.8623 135.216 72.1542 135.908 71.7941L149.401 64.4966C149.751 64.2832 150.043 63.996 150.254 63.6581C150.464 63.3202 150.587 62.9409 150.613 62.5506V52.8935C150.613 52.1735 150.093 51.8767 149.401 52.2416L135.877 59.5391C135.535 59.7538 135.25 60.0393 135.046 60.3734C134.841 60.7075 134.721 61.0813 134.696 61.4657Z" fill="#00A1CD"/>
<path opacity="0.5" d="M134.696 61.4657V71.1374C134.696 71.8623 135.216 72.1542 135.908 71.7941L149.401 64.4966C149.751 64.2832 150.043 63.996 150.254 63.6581C150.464 63.3202 150.587 62.9409 150.613 62.5506V52.8935C150.613 52.1735 150.093 51.8767 149.401 52.2416L135.877 59.5391C135.535 59.7538 135.25 60.0393 135.046 60.3734C134.841 60.7075 134.721 61.0813 134.696 61.4657Z" fill="white"/>
<path d="M140.464 65.5231V61.2954C140.468 61.0847 140.557 60.8831 140.713 60.7314C140.87 60.5797 141.082 60.4891 141.307 60.4781L145.432 60.3078C145.895 60.3078 146.014 60.5365 145.708 60.8575L141.026 65.7226C140.719 66.0437 140.464 65.9561 140.464 65.5231Z" fill="#FAFAFA"/>
<path d="M154.493 50.1691L165.416 44.258C165.718 44.0975 165.963 44.2143 165.963 44.5159C165.949 44.6865 165.892 44.8517 165.797 44.998C165.703 45.1443 165.572 45.2675 165.416 45.3575L154.493 51.2686C154.191 51.4291 153.973 51.3123 153.973 51.0107C153.983 50.8422 154.036 50.6782 154.126 50.532C154.216 50.3859 154.342 50.2616 154.493 50.1691Z" fill="#455A64"/>
<path d="M154.493 52.3632L165.416 46.4571C165.718 46.2965 165.963 46.4084 165.963 46.7149C165.949 46.8855 165.892 47.0507 165.797 47.197C165.703 47.3433 165.572 47.4665 165.416 47.5566L154.493 53.4627C154.191 53.6281 153.973 53.5113 153.973 53.2097C153.983 53.0405 154.036 52.8759 154.126 52.7289C154.216 52.582 154.342 52.4568 154.493 52.3632Z" fill="#455A64"/>
<path d="M154.493 54.499L165.416 48.5879C165.718 48.4274 165.963 48.5442 165.963 48.8458C165.949 49.0164 165.892 49.1816 165.797 49.3279C165.703 49.4742 165.572 49.5974 165.416 49.6874L154.493 55.5936C154.191 55.759 153.973 55.6422 153.973 55.3406C153.983 55.172 154.035 55.0079 154.125 54.8617C154.216 54.7154 154.342 54.5912 154.493 54.499Z" fill="#455A64"/>
<path d="M154.316 57.5493L161.827 53.4919C162.03 53.38 162.197 53.4627 162.197 53.667C162.187 53.7837 162.149 53.8968 162.085 53.9972C162.021 54.0977 161.933 54.1829 161.827 54.246L154.316 58.3034C154.113 58.4104 153.947 58.3326 153.947 58.1234C153.956 58.0074 153.994 57.895 154.059 57.7953C154.123 57.6956 154.211 57.6114 154.316 57.5493Z" fill="#E0E0E0"/>
<path d="M154.316 59.0575L161.827 55C162.03 54.8881 162.197 54.9708 162.197 55.1752C162.187 55.2919 162.149 55.4049 162.085 55.5054C162.021 55.6059 161.933 55.691 161.827 55.7541L154.316 59.8115C154.113 59.9186 153.947 59.8407 153.947 59.6315C153.956 59.5155 153.994 59.4031 154.059 59.3034C154.123 59.2037 154.211 59.1195 154.316 59.0575Z" fill="#E0E0E0"/>
<path d="M154.316 60.517L161.827 56.4644C162.03 56.3525 162.197 56.4303 162.197 56.6395C162.187 56.7562 162.149 56.8693 162.085 56.9698C162.021 57.0702 161.933 57.1554 161.827 57.2185L154.316 61.2711C154.113 61.3829 153.947 61.3051 153.947 61.0959C153.956 60.9792 153.994 60.8662 154.059 60.7657C154.123 60.6652 154.211 60.5801 154.316 60.517Z" fill="#E0E0E0"/>
<path d="M134.696 78.6635V88.3255C134.696 89.0504 135.216 89.3423 135.908 88.9823L149.401 81.6847C149.751 81.4713 150.043 81.1842 150.254 80.8463C150.464 80.5083 150.587 80.129 150.613 79.7387V70.0816C150.613 69.3567 150.093 69.0648 149.401 69.4249L135.877 76.7224C135.532 76.9382 135.247 77.226 135.042 77.5628C134.837 77.8997 134.718 78.2765 134.696 78.6635Z" fill="#00A1CD"/>
<path opacity="0.5" d="M134.696 78.6635V88.3255C134.696 89.0504 135.216 89.3423 135.908 88.9823L149.401 81.6847C149.751 81.4713 150.043 81.1842 150.254 80.8463C150.464 80.5083 150.587 80.129 150.613 79.7387V70.0816C150.613 69.3567 150.093 69.0648 149.401 69.4249L135.877 76.7224C135.532 76.9382 135.247 77.226 135.042 77.5628C134.837 77.8997 134.718 78.2765 134.696 78.6635Z" fill="white"/>
<path d="M140.464 82.7161V78.4933C140.467 78.2822 140.555 78.0799 140.712 77.928C140.869 77.776 141.082 77.6859 141.307 77.6759L145.432 77.5057C145.895 77.5057 146.014 77.7343 145.708 78.0554L141.026 82.9204C140.719 83.2415 140.464 83.154 140.464 82.7161Z" fill="#FAFAFA"/>
<path d="M154.493 67.3621L165.416 61.4559C165.718 61.2954 165.963 61.4073 165.963 61.7138C165.949 61.8844 165.892 62.0496 165.797 62.1959C165.703 62.3422 165.572 62.4654 165.416 62.5554L154.493 68.4616C154.191 68.627 153.973 68.5102 153.973 68.2086C153.983 68.0394 154.036 67.8747 154.126 67.7278C154.216 67.5808 154.342 67.4556 154.493 67.3621Z" fill="#455A64"/>
<path d="M154.493 69.5611L165.416 63.6549C165.718 63.4944 165.963 63.6063 165.963 63.9128C165.948 64.0832 165.891 64.2481 165.796 64.3943C165.702 64.5404 165.571 64.6638 165.416 64.7544L154.493 70.6606C154.191 70.8211 153.973 70.7092 153.973 70.4027C153.983 70.2342 154.036 70.0702 154.126 69.9241C154.216 69.7779 154.342 69.6536 154.493 69.5611Z" fill="#455A64"/>
<path d="M154.493 71.692L165.416 65.7858C165.718 65.6253 165.963 65.7372 165.963 66.0437C165.949 66.2143 165.892 66.3795 165.797 66.5258C165.703 66.6721 165.572 66.7952 165.416 66.8853L154.493 72.7915C154.191 72.952 153.973 72.8401 153.973 72.5336C153.984 72.3652 154.037 72.2016 154.127 72.0555C154.217 71.9095 154.343 71.785 154.493 71.692Z" fill="#455A64"/>
<path d="M154.316 74.7423L161.827 70.6898C162.03 70.5779 162.197 70.6557 162.197 70.8649C162.187 70.9816 162.149 71.0946 162.085 71.1951C162.021 71.2956 161.933 71.3808 161.827 71.4439L154.316 75.5159C154.113 75.6278 153.947 75.5499 153.947 75.3407C153.953 75.2207 153.99 75.1037 154.054 74.9997C154.118 74.8956 154.208 74.8073 154.316 74.7423Z" fill="#E0E0E0"/>
<path d="M154.316 76.2505L161.827 72.1979C162.03 72.086 162.197 72.1639 162.197 72.3731C162.187 72.4897 162.149 72.6028 162.085 72.7033C162.021 72.8038 161.933 72.8889 161.827 72.952L154.316 77.0046C154.113 77.1165 153.947 77.0386 153.947 76.8294C153.956 76.7127 153.994 76.5997 154.059 76.4992C154.123 76.3987 154.211 76.3136 154.316 76.2505Z" fill="#E0E0E0"/>
<path d="M154.316 77.7148L161.827 73.6623C162.03 73.5504 162.197 73.6282 162.197 73.8374C162.187 73.9541 162.149 74.0672 162.085 74.1676C162.021 74.2681 161.933 74.3533 161.827 74.4164L154.316 78.4689C154.113 78.5808 153.947 78.503 153.947 78.2938C153.956 78.1771 153.994 78.064 154.059 77.9636C154.123 77.8631 154.211 77.7779 154.316 77.7148Z" fill="#E0E0E0"/>
<path d="M134.696 95.8468V105.509C134.696 106.234 135.216 106.526 135.908 106.166L149.401 98.868C149.751 98.6546 150.043 98.3675 150.254 98.0295C150.464 97.6916 150.587 97.3123 150.613 96.922V87.2649C150.613 86.5449 150.093 86.2481 149.401 86.613L135.877 93.9105C135.533 94.1262 135.248 94.4132 135.043 94.7491C134.838 95.085 134.719 95.4607 134.696 95.8468Z" fill="#00A1CD"/>
<path opacity="0.5" d="M134.696 95.8468V105.509C134.696 106.234 135.216 106.526 135.908 106.166L149.401 98.868C149.751 98.6546 150.043 98.3675 150.254 98.0295C150.464 97.6916 150.587 97.3123 150.613 96.922V87.2649C150.613 86.5449 150.093 86.2481 149.401 86.613L135.877 93.9105C135.533 94.1262 135.248 94.4132 135.043 94.7491C134.838 95.085 134.719 95.4607 134.696 95.8468Z" fill="white"/>
<path d="M140.464 99.9042V95.6765C140.468 95.4658 140.557 95.2642 140.713 95.1125C140.87 94.9608 141.082 94.8703 141.307 94.8592L145.432 94.6889C145.895 94.6889 146.014 94.9176 145.708 95.2387L141.026 100.104C140.719 100.425 140.464 100.328 140.464 99.9042Z" fill="#FAFAFA"/>
<path d="M154.493 84.5502L165.416 78.6392C165.718 78.4787 165.963 78.5954 165.963 78.8971C165.949 79.0677 165.892 79.2329 165.797 79.3792C165.703 79.5254 165.572 79.6486 165.416 79.7387L154.493 85.6497C154.191 85.8103 153.973 85.6935 153.973 85.3919C153.983 85.2232 154.035 85.0591 154.125 84.9129C154.216 84.7667 154.342 84.6424 154.493 84.5502Z" fill="#455A64"/>
<path d="M154.493 86.7444L165.416 80.8382C165.718 80.6777 165.963 80.7896 165.963 81.0961C165.949 81.2667 165.892 81.4319 165.797 81.5782C165.703 81.7244 165.572 81.8476 165.416 81.9377L154.493 87.8439C154.191 88.0093 153.973 87.8925 153.973 87.5909C153.983 87.4217 154.036 87.257 154.126 87.1101C154.216 86.9631 154.342 86.8379 154.493 86.7444Z" fill="#455A64"/>
<path d="M154.493 88.8801L165.416 82.9691C165.718 82.8085 165.963 82.9253 165.963 83.2269C165.949 83.3976 165.892 83.5628 165.797 83.709C165.703 83.8553 165.572 83.9785 165.416 84.0686L154.493 89.9747C154.191 90.1401 153.973 90.0234 153.973 89.7217C153.983 89.5531 154.035 89.389 154.125 89.2428C154.216 89.0966 154.342 88.9723 154.493 88.8801Z" fill="#455A64"/>
<path d="M154.316 91.9305L161.827 87.873C162.03 87.7611 162.197 87.8438 162.197 88.0482C162.187 88.1649 162.149 88.2779 162.085 88.3784C162.021 88.4789 161.933 88.564 161.827 88.6271L154.316 92.6846C154.113 92.7916 153.947 92.7137 153.947 92.5045C153.956 92.3885 153.994 92.2762 154.059 92.1765C154.123 92.0768 154.211 91.9925 154.316 91.9305Z" fill="#E0E0E0"/>
<path d="M154.316 93.4386L161.827 89.3812C162.03 89.2693 162.197 89.352 162.197 89.5563C162.187 89.673 162.149 89.7861 162.085 89.8866C162.021 89.987 161.933 90.0722 161.827 90.1353L154.316 94.1927C154.113 94.2997 153.947 94.2219 153.947 94.0127C153.956 93.8967 153.994 93.7843 154.059 93.6846C154.123 93.5849 154.211 93.5007 154.316 93.4386Z" fill="#E0E0E0"/>
<path d="M154.316 94.8981L161.827 90.8456C162.03 90.7337 162.197 90.8115 162.197 91.0207C162.187 91.1374 162.149 91.2504 162.085 91.3509C162.021 91.4514 161.933 91.5366 161.827 91.5996L154.316 95.6522C154.113 95.7641 153.947 95.6863 153.947 95.4771C153.956 95.3604 153.994 95.2473 154.059 95.1469C154.123 95.0464 154.211 94.9612 154.316 94.8981Z" fill="#E0E0E0"/>
<path d="M134.696 113.045V122.707C134.696 123.427 135.216 123.719 135.908 123.359L149.401 116.061C149.751 115.848 150.044 115.561 150.254 115.223C150.465 114.885 150.588 114.505 150.613 114.115V104.458C150.613 103.738 150.093 103.446 149.401 103.806L135.877 111.104C135.532 111.319 135.247 111.607 135.042 111.944C134.837 112.281 134.718 112.658 134.696 113.045Z" fill="#00A1CD"/>
<path opacity="0.5" d="M134.696 113.045V122.707C134.696 123.427 135.216 123.719 135.908 123.359L149.401 116.061C149.751 115.848 150.044 115.561 150.254 115.223C150.465 114.885 150.588 114.505 150.613 114.115V104.458C150.613 103.738 150.093 103.446 149.401 103.806L135.877 111.104C135.532 111.319 135.247 111.607 135.042 111.944C134.837 112.281 134.718 112.658 134.696 113.045Z" fill="white"/>
<path d="M140.464 117.102V112.879C140.467 112.668 140.555 112.465 140.712 112.312C140.868 112.159 141.081 112.068 141.307 112.057L145.432 111.892C145.895 111.892 146.014 112.115 145.708 112.441L141.026 117.306C140.719 117.628 140.464 117.535 140.464 117.102Z" fill="#FAFAFA"/>
<path d="M154.493 101.748L165.416 95.842C165.718 95.6765 165.963 95.7933 165.963 96.0949C165.949 96.2657 165.893 96.431 165.798 96.5773C165.703 96.7237 165.572 96.8468 165.416 96.9366L154.493 102.848C154.191 103.008 153.973 102.896 153.973 102.59C153.983 102.421 154.036 102.257 154.126 102.111C154.216 101.965 154.342 101.841 154.493 101.748Z" fill="#455A64"/>
<path d="M154.493 103.947L165.416 98.0361C165.718 97.8755 165.963 97.9923 165.963 98.2939C165.949 98.4646 165.892 98.6298 165.797 98.776C165.703 98.9223 165.572 99.0455 165.416 99.1356L154.493 105.047C154.191 105.207 153.973 105.09 153.973 104.789C153.983 104.62 154.036 104.456 154.126 104.31C154.216 104.164 154.342 104.04 154.493 103.947Z" fill="#455A64"/>
<path d="M154.493 106.078L165.416 100.167C165.718 100.006 165.963 100.123 165.963 100.425C165.949 100.596 165.893 100.761 165.798 100.907C165.703 101.054 165.572 101.177 165.416 101.266L154.493 107.177C154.191 107.338 153.973 107.221 153.973 106.92C153.983 106.751 154.036 106.587 154.126 106.441C154.216 106.295 154.342 106.17 154.493 106.078Z" fill="#455A64"/>
<path d="M154.316 109.128L161.827 105.071C162.03 104.964 162.197 105.042 162.197 105.251C162.187 105.367 162.149 105.479 162.085 105.579C162.021 105.679 161.933 105.763 161.827 105.825L154.316 109.882C154.113 109.994 153.947 109.912 153.947 109.707C153.956 109.591 153.994 109.478 154.059 109.377C154.123 109.277 154.211 109.191 154.316 109.128Z" fill="#E0E0E0"/>
<path d="M154.316 110.637L161.827 106.579C162.03 106.472 162.197 106.55 162.197 106.759C162.187 106.875 162.149 106.987 162.085 107.087C162.021 107.187 161.933 107.271 161.827 107.333L154.316 111.391C154.113 111.502 153.947 111.42 153.947 111.215C153.956 111.099 153.994 110.986 154.059 110.885C154.123 110.785 154.211 110.7 154.316 110.637Z" fill="#E0E0E0"/>
<path d="M154.316 112.096L161.827 108.043C162.03 107.932 162.197 108.014 162.197 108.219C162.187 108.335 162.149 108.448 162.085 108.549C162.021 108.649 161.933 108.734 161.827 108.798L154.316 112.85C154.113 112.962 153.947 112.884 153.947 112.675C153.956 112.558 153.994 112.445 154.059 112.345C154.123 112.244 154.211 112.159 154.316 112.096Z" fill="#E0E0E0"/>
<path d="M50.6949 159.554L91.486 137.526C92.1518 137.165 92.6979 137.423 92.6927 138.1C92.6629 138.48 92.5376 138.849 92.327 139.176C92.1165 139.503 91.8266 139.78 91.4807 139.982L50.6949 162.011C50.0291 162.371 49.4829 162.113 49.4829 161.437C49.5128 161.056 49.6381 160.688 49.8486 160.36C50.0592 160.033 50.3491 159.757 50.6949 159.554Z" fill="#455A64"/>
<path d="M50.1643 164.001L73.0514 151.658C73.4311 151.454 73.7328 151.595 73.7328 151.98C73.7152 152.193 73.6444 152.4 73.5261 152.583C73.4078 152.766 73.2452 152.921 73.0514 153.035L50.1903 165.378C49.8158 165.582 49.5089 165.436 49.5089 165.057C49.5236 164.845 49.5904 164.64 49.7041 164.457C49.8179 164.274 49.9754 164.118 50.1643 164.001Z" fill="#E0E0E0"/>
<path d="M59.0694 163.51L88.2869 147.737C88.9527 147.372 89.4988 147.63 89.4988 148.311C89.469 148.692 89.3437 149.061 89.1331 149.388C88.9226 149.715 88.6327 149.991 88.2869 150.194L59.0694 165.966C58.3984 166.326 57.8574 166.073 57.8574 165.392C57.8873 165.012 58.0126 164.643 58.2231 164.316C58.4337 163.989 58.7236 163.712 59.0694 163.51Z" fill="#455A64"/>
<path d="M58.5336 167.951L69.8263 161.856C70.2061 161.651 70.5078 161.797 70.5078 162.177C70.4914 162.39 70.4211 162.598 70.3026 162.781C70.1842 162.965 70.021 163.119 69.8263 163.232L58.5336 169.328C58.1591 169.528 57.8574 169.387 57.8574 169.007C57.8732 168.794 57.9427 168.587 58.0603 168.403C58.1778 168.22 58.34 168.065 58.5336 167.951Z" fill="#E0E0E0"/>
<path d="M52.6403 166.312C51.7137 166.877 50.9426 167.638 50.3895 168.534C49.8364 169.43 49.5169 170.436 49.4569 171.469C49.4569 173.366 50.8821 174.14 52.6403 173.186C53.5675 172.622 54.339 171.86 54.8922 170.964C55.4454 170.068 55.7645 169.063 55.8237 168.029C55.8237 166.132 54.3984 165.363 52.6403 166.312Z" fill="#00A1CD"/>
<path d="M52.271 169.338C52.1706 169.342 52.0712 169.318 51.9849 169.27C51.8811 169.206 51.7978 169.117 51.7438 169.013C51.6897 168.908 51.667 168.792 51.678 168.676C51.6922 168.404 51.7761 168.138 51.9227 167.902C52.0693 167.666 52.2744 167.466 52.5206 167.319C52.6219 167.252 52.7408 167.212 52.8645 167.203C52.9883 167.195 53.1122 167.218 53.2229 167.27C53.3266 167.334 53.4099 167.423 53.464 167.527C53.518 167.632 53.5407 167.748 53.5298 167.864C53.5157 168.136 53.4324 168.401 53.2868 168.637C53.1411 168.873 52.9373 169.074 52.6923 169.221C52.565 169.293 52.4198 169.334 52.271 169.338Z" fill="white"/>
<path d="M53.9251 169.537C53.7474 169.455 53.549 169.419 53.3512 169.434C53.1533 169.448 52.9634 169.513 52.8016 169.62L52.3438 169.868C51.9237 170.12 51.5741 170.461 51.3243 170.865C51.0745 171.269 50.9318 171.723 50.9082 172.189V172.495C51.1923 172.612 51.5038 172.656 51.8121 172.626C52.1204 172.595 52.4148 172.49 52.6664 172.32C53.3991 171.895 54.0042 171.302 54.4245 170.598V170.525C54.4421 170.334 54.4052 170.142 54.3174 169.968C54.2297 169.795 54.0943 169.646 53.9251 169.537Z" fill="white"/>
<path d="M107.554 138.674L121.047 131.376C121.718 131.016 122.264 131.308 122.264 132.033V134.324C122.238 134.715 122.114 135.095 121.903 135.433C121.691 135.771 121.398 136.057 121.047 136.27L107.554 143.568C106.883 143.928 106.342 143.636 106.342 142.911V140.62C106.367 140.229 106.49 139.85 106.701 139.512C106.911 139.174 107.203 138.887 107.554 138.674Z" fill="#00A1CD"/>
<path opacity="0.7" d="M107.554 138.674L121.047 131.376C121.718 131.016 122.264 131.308 122.264 132.033V134.324C122.238 134.715 122.114 135.095 121.903 135.433C121.691 135.771 121.398 136.057 121.047 136.27L107.554 143.568C106.883 143.928 106.342 143.636 106.342 142.911V140.62C106.367 140.229 106.49 139.85 106.701 139.512C106.911 139.174 107.203 138.887 107.554 138.674Z" fill="white"/>
<path d="M127.195 130.384V129.63C127.195 128.773 126.639 128.374 125.947 128.749C125.567 129.003 125.256 129.338 125.04 129.724C124.823 130.111 124.706 130.54 124.698 130.977V131.653C124.684 132.118 124.54 132.57 124.282 132.967C124.22 133.073 124.186 133.191 124.183 133.312C124.183 133.531 124.324 133.629 124.495 133.536L127.408 131.96C127.505 131.897 127.584 131.813 127.639 131.716C127.694 131.619 127.724 131.511 127.726 131.4C127.73 131.358 127.724 131.316 127.707 131.276C127.691 131.236 127.665 131.201 127.632 131.172C127.485 131.095 127.365 130.979 127.287 130.839C127.21 130.699 127.178 130.541 127.195 130.384Z" fill="#455A64"/>
<path d="M126.545 132.656C126.543 132.866 126.487 133.072 126.383 133.258C126.279 133.444 126.13 133.604 125.947 133.726C125.619 133.906 125.348 133.726 125.348 133.303L126.545 132.656Z" fill="#455A64"/>
<path d="M102.721 134.076C102.695 134.252 102.598 134.412 102.451 134.524C102.48 134.592 102.494 134.665 102.493 134.738C102.481 134.844 102.443 134.945 102.381 135.035C102.32 135.125 102.237 135.199 102.139 135.254L100.552 136.115V134.169C100.552 134.135 100.989 133.239 101.026 133.103C101.047 132.873 101.047 132.642 101.026 132.412C101.065 132.343 101.128 132.289 101.204 132.257C101.28 132.225 101.366 132.218 101.447 132.237C101.491 132.257 101.524 132.292 101.541 132.335C101.587 132.433 101.62 132.535 101.64 132.641C101.66 132.827 101.648 133.014 101.603 133.196L102.565 132.675C102.592 132.657 102.623 132.645 102.656 132.641C102.688 132.636 102.722 132.64 102.753 132.651C102.785 132.673 102.811 132.702 102.829 132.736C102.846 132.77 102.854 132.808 102.851 132.845C102.844 132.987 102.79 133.123 102.695 133.235C102.695 133.235 102.888 133.181 102.888 133.419C102.883 133.504 102.859 133.587 102.819 133.663C102.779 133.739 102.723 133.807 102.654 133.862C102.654 133.862 102.721 133.896 102.721 134.076Z" fill="#00A1CD"/>
<path d="M100.323 135.988V136.402C100.322 136.431 100.313 136.459 100.297 136.484C100.282 136.51 100.261 136.531 100.235 136.548L99.7149 136.825C99.6859 136.832 99.6554 136.832 99.6265 136.825V134.597L100.043 134.373L100.292 134.237C100.299 134.266 100.299 134.295 100.292 134.324L100.323 135.988Z" fill="#00A1CD"/>
<path d="M113.978 126.482C113.979 126.452 113.971 126.423 113.956 126.397C113.941 126.371 113.919 126.349 113.892 126.333C113.866 126.318 113.835 126.309 113.803 126.308C113.772 126.306 113.741 126.313 113.712 126.326C113.738 126.242 113.752 126.156 113.754 126.068C113.754 125.903 113.608 125.82 113.4 125.932L111.814 126.788V128.734C111.987 128.907 112.147 129.09 112.292 129.284C112.313 129.516 112.313 129.748 112.292 129.98C112.292 130.053 112.547 129.946 112.714 129.698C112.751 129.636 112.782 129.57 112.807 129.503C112.85 129.368 112.881 129.229 112.901 129.09C112.925 128.916 112.915 128.739 112.87 128.569L113.827 128.053C113.907 128.011 113.972 127.949 114.014 127.873C114.073 127.784 114.107 127.682 114.113 127.577C114.113 127.397 114.009 127.358 113.957 127.353C114.015 127.303 114.062 127.243 114.095 127.176C114.128 127.11 114.147 127.037 114.149 126.964C114.149 126.827 114.061 126.725 113.915 126.774C113.96 126.682 113.981 126.582 113.978 126.482Z" fill="#00A1CD"/>
<path d="M111.585 127.158V126.749C111.585 126.696 111.543 126.672 111.491 126.701L110.971 126.973C110.937 126.996 110.906 127.022 110.878 127.051V129.279L111.299 129.056L111.543 128.919C111.558 128.883 111.567 128.846 111.569 128.807L111.585 127.158Z" fill="#00A1CD"/>
<path d="M126.227 120.225L124.48 119.739V120.605C123.788 120.88 123.192 121.33 122.758 121.904C121.796 123.247 122.493 124.015 122.815 124.069C122.815 124.069 122.295 123.743 122.867 122.78C123.257 122.247 123.824 121.85 124.48 121.651V122.624L126.227 120.225Z" fill="#00A1CD"/>
<path d="M105.281 131.021L107.403 129.878C108.074 129.513 108.615 129.771 108.615 130.452C108.585 130.833 108.46 131.201 108.249 131.528C108.039 131.856 107.749 132.132 107.403 132.335L105.281 133.478C104.61 133.843 104.069 133.585 104.069 132.904C104.098 132.523 104.224 132.154 104.434 131.827C104.645 131.5 104.935 131.224 105.281 131.021Z" fill="#E0E0E0"/>
<path d="M116.651 124.881L118.774 123.733C119.445 123.373 119.986 123.631 119.986 124.307C119.956 124.688 119.83 125.057 119.62 125.384C119.409 125.711 119.119 125.987 118.774 126.19L116.651 127.338C115.98 127.698 115.439 127.445 115.439 126.764C115.469 126.383 115.594 126.014 115.805 125.687C116.016 125.36 116.305 125.084 116.651 124.881Z" fill="#E0E0E0"/>
<path d="M52.8067 100.328L128.922 59.2278C129.593 58.8629 130.134 59.1597 130.134 59.8797V110.607C130.109 110.998 129.986 111.377 129.775 111.715C129.565 112.053 129.273 112.34 128.922 112.553L52.8067 153.673C52.1409 154.037 51.5947 153.741 51.5947 153.021V102.274C51.6212 101.883 51.7445 101.504 51.9548 101.167C52.1652 100.829 52.4569 100.541 52.8067 100.328Z" fill="#455A64"/>
<path opacity="0.3" d="M61.6027 145.616L117.468 115.575C117.827 115.38 118.123 115.521 118.123 115.886C118.106 116.091 118.038 116.29 117.924 116.467C117.811 116.643 117.654 116.793 117.468 116.903L61.6027 146.944C61.2386 147.139 60.9473 146.998 60.9473 146.633C60.9631 146.427 61.0307 146.228 61.1446 146.051C61.2585 145.874 61.4155 145.725 61.6027 145.616Z" fill="white"/>
<path d="M61.6027 145.616L111.97 118.542C112.334 118.348 112.625 118.489 112.625 118.854C112.609 119.059 112.542 119.259 112.428 119.435C112.314 119.612 112.157 119.761 111.97 119.87L61.6027 146.944C61.2386 147.139 60.9473 146.998 60.9473 146.633C60.9631 146.427 61.0307 146.228 61.1446 146.051C61.2585 145.874 61.4155 145.725 61.6027 145.616Z" fill="white"/>
<path d="M54.7677 149.382V150.685C54.7663 150.718 54.7566 150.749 54.7394 150.777C54.7222 150.805 54.698 150.829 54.6689 150.846L54.3984 150.992C54.3886 150.999 54.377 151.002 54.3649 151.003C54.3528 151.004 54.3408 151.001 54.3303 150.995C54.3199 150.99 54.3114 150.981 54.3059 150.971C54.3005 150.961 54.2982 150.95 54.2996 150.938V149.635C54.3021 149.603 54.3123 149.572 54.3294 149.544C54.3466 149.516 54.3701 149.492 54.3984 149.474L54.6689 149.328C54.7261 149.299 54.7677 149.323 54.7677 149.382Z" fill="white"/>
<path d="M55.704 148.876V150.179C55.7026 150.212 55.6929 150.243 55.6757 150.271C55.6585 150.299 55.6343 150.323 55.6052 150.34L55.3399 150.486C55.2827 150.515 55.2358 150.486 55.2358 150.432V149.129C55.2382 149.096 55.2489 149.064 55.267 149.036C55.2851 149.009 55.3101 148.985 55.3399 148.968L55.6052 148.822C55.6624 148.793 55.704 148.817 55.704 148.876Z" fill="white"/>
<path d="M59.4284 146.905V148.209C59.4258 148.241 59.4156 148.272 59.3985 148.3C59.3814 148.328 59.3578 148.352 59.3296 148.37L59.2099 148.438C59.1527 148.467 59.1111 148.438 59.1111 148.384V147.08C59.1124 147.048 59.1222 147.017 59.1394 146.989C59.1566 146.961 59.1808 146.937 59.2099 146.92L59.3296 146.852C59.3393 146.845 59.351 146.841 59.363 146.841C59.3751 146.84 59.3871 146.843 59.3976 146.848C59.4081 146.854 59.4166 146.862 59.422 146.873C59.4275 146.883 59.4297 146.894 59.4284 146.905Z" fill="white"/>
<path d="M57.4622 147.917V149.197C57.4622 149.289 57.5142 149.309 57.5818 149.236L58.8406 147.878C58.9082 147.805 58.877 147.747 58.7782 147.747H57.6442C57.5959 147.747 57.5496 147.765 57.5155 147.797C57.4813 147.829 57.4622 147.872 57.4622 147.917Z" fill="white"/>
<path d="M124.667 111.921C124.624 111.921 124.583 111.905 124.553 111.877C124.523 111.848 124.506 111.81 124.506 111.77V111.342C124.506 111.316 124.513 111.291 124.527 111.269C124.54 111.247 124.56 111.228 124.584 111.215L125.328 110.817C125.345 110.806 125.365 110.799 125.385 110.797C125.406 110.794 125.427 110.795 125.447 110.8C125.467 110.805 125.485 110.814 125.502 110.826C125.518 110.838 125.531 110.853 125.541 110.87C125.56 110.904 125.565 110.943 125.555 110.98C125.544 111.017 125.519 111.049 125.484 111.069L124.823 111.425V111.77C124.823 111.809 124.807 111.847 124.778 111.875C124.749 111.903 124.709 111.92 124.667 111.921Z" fill="#FAFAFA"/>
<path d="M128.038 110.101C127.996 110.101 127.957 110.086 127.927 110.059C127.898 110.031 127.882 109.994 127.882 109.955V109.775L127.361 110.048C127.344 110.057 127.324 110.064 127.304 110.066C127.283 110.069 127.263 110.067 127.243 110.062C127.223 110.057 127.205 110.049 127.188 110.037C127.172 110.026 127.158 110.011 127.148 109.994C127.137 109.978 127.13 109.96 127.127 109.94C127.124 109.921 127.125 109.902 127.13 109.883C127.136 109.864 127.145 109.847 127.158 109.832C127.171 109.816 127.187 109.804 127.205 109.795L127.944 109.396C127.967 109.381 127.994 109.374 128.022 109.374C128.05 109.374 128.077 109.381 128.1 109.396C128.125 109.408 128.145 109.426 128.159 109.449C128.173 109.471 128.179 109.497 128.178 109.522V109.955C128.178 109.992 128.164 110.027 128.138 110.054C128.112 110.081 128.076 110.098 128.038 110.101Z" fill="#FAFAFA"/>
<path d="M124.667 113.881C124.641 113.887 124.615 113.887 124.589 113.881C124.565 113.869 124.544 113.851 124.53 113.828C124.515 113.806 124.507 113.781 124.506 113.755V113.322C124.513 113.287 124.532 113.256 124.561 113.233C124.59 113.211 124.627 113.198 124.665 113.198C124.702 113.198 124.739 113.211 124.768 113.233C124.797 113.256 124.816 113.287 124.823 113.322V113.463L125.343 113.191C125.379 113.173 125.422 113.168 125.461 113.178C125.501 113.188 125.535 113.212 125.557 113.244C125.576 113.279 125.581 113.319 125.571 113.357C125.56 113.395 125.535 113.427 125.499 113.448L124.761 113.847C124.733 113.865 124.701 113.877 124.667 113.881Z" fill="#FAFAFA"/>
<path d="M127.299 112.461C127.265 112.461 127.231 112.45 127.204 112.431C127.177 112.411 127.157 112.384 127.148 112.353C127.139 112.322 127.142 112.289 127.155 112.259C127.168 112.229 127.191 112.204 127.221 112.188L127.882 111.828V111.483C127.882 111.444 127.898 111.407 127.927 111.38C127.957 111.352 127.996 111.337 128.038 111.337C128.079 111.337 128.119 111.352 128.148 111.38C128.177 111.407 128.194 111.444 128.194 111.483V111.916C128.195 111.942 128.188 111.967 128.174 111.99C128.161 112.012 128.14 112.031 128.116 112.042L127.377 112.441C127.354 112.455 127.326 112.461 127.299 112.461Z" fill="#FAFAFA"/>
<path d="M122.971 113.502H122.945H122.644C122.637 113.503 122.63 113.502 122.624 113.5C122.618 113.498 122.612 113.495 122.607 113.491C122.602 113.487 122.598 113.482 122.595 113.476C122.593 113.471 122.591 113.464 122.592 113.458C122.594 113.414 122.594 113.371 122.592 113.327C122.592 113.278 122.592 113.23 122.592 113.186C122.591 113.156 122.602 113.126 122.623 113.103L122.956 112.724C122.962 112.712 122.966 112.698 122.966 112.685C122.966 112.671 122.962 112.658 122.956 112.646L122.8 112.315C122.8 112.315 122.768 112.315 122.753 112.315L122.394 112.621C122.382 112.629 122.367 112.634 122.352 112.634C122.337 112.634 122.323 112.629 122.311 112.621C122.266 112.585 122.215 112.557 122.16 112.539C122.147 112.534 122.137 112.526 122.13 112.516C122.124 112.505 122.121 112.493 122.123 112.48L122.233 111.994C122.233 111.994 122.233 111.97 122.233 111.96H122.201L121.848 111.994C121.832 111.996 121.818 112.002 121.805 112.01C121.792 112.018 121.782 112.03 121.775 112.042L121.582 112.529C121.568 112.562 121.54 112.588 121.504 112.602C121.43 112.635 121.358 112.674 121.291 112.719C121.26 112.719 121.229 112.719 121.213 112.719L121.036 112.466C121.036 112.466 120.995 112.466 120.969 112.466L120.584 112.845C120.562 112.868 120.551 112.898 120.552 112.928L120.662 113.268C120.671 113.294 120.671 113.321 120.662 113.346C120.599 113.444 120.537 113.536 120.485 113.638C120.465 113.666 120.436 113.687 120.402 113.697L120.074 113.77C120.057 113.773 120.041 113.78 120.027 113.79C120.014 113.8 120.003 113.813 119.996 113.828L119.829 114.349C119.828 114.354 119.828 114.361 119.829 114.366C119.83 114.372 119.833 114.378 119.837 114.383C119.841 114.387 119.846 114.391 119.852 114.394C119.858 114.396 119.865 114.397 119.871 114.397H120.173C120.187 114.397 120.2 114.402 120.21 114.411C120.219 114.421 120.225 114.433 120.225 114.446C120.214 114.535 120.214 114.624 120.225 114.713C120.225 114.743 120.214 114.773 120.194 114.796L119.855 115.18C119.849 115.192 119.845 115.206 119.845 115.219C119.845 115.233 119.849 115.246 119.855 115.258L120.017 115.589C120.017 115.589 120.043 115.589 120.058 115.589L120.417 115.283C120.428 115.274 120.442 115.27 120.456 115.27C120.47 115.27 120.484 115.274 120.495 115.283C120.541 115.318 120.592 115.347 120.646 115.37C120.659 115.374 120.67 115.382 120.677 115.392C120.684 115.403 120.686 115.416 120.683 115.429L120.573 115.915C120.573 115.915 120.573 115.939 120.573 115.949H120.604L120.958 115.915C120.975 115.914 120.99 115.909 121.004 115.901C121.018 115.892 121.029 115.88 121.036 115.866L121.223 115.38C121.241 115.35 121.269 115.326 121.302 115.312L121.411 115.253L121.52 115.195C121.52 115.195 121.582 115.171 121.593 115.195L121.775 115.453C121.784 115.458 121.793 115.46 121.803 115.46C121.814 115.46 121.823 115.458 121.832 115.453L122.217 115.073C122.228 115.064 122.237 115.051 122.242 115.038C122.248 115.024 122.25 115.01 122.248 114.996L122.139 114.655C122.13 114.628 122.13 114.599 122.139 114.572C122.205 114.481 122.264 114.385 122.316 114.285C122.335 114.257 122.365 114.236 122.399 114.227L122.732 114.154C122.763 114.154 122.8 114.12 122.805 114.096L122.971 113.57C122.981 113.57 122.99 113.567 122.997 113.56C123.004 113.554 123.008 113.545 123.008 113.536C123.008 113.527 123.004 113.518 122.997 113.512C122.99 113.506 122.981 113.502 122.971 113.502ZM121.208 114.777H121.078C121.007 114.776 120.937 114.756 120.878 114.719C120.819 114.682 120.772 114.629 120.745 114.567C120.719 114.514 120.703 114.456 120.698 114.397C120.696 114.365 120.696 114.332 120.698 114.3C120.718 113.95 120.871 113.619 121.13 113.366C121.208 113.288 121.297 113.221 121.395 113.166L121.484 113.123C121.562 113.089 121.647 113.073 121.733 113.074H121.775C121.836 113.082 121.894 113.105 121.943 113.141C121.991 113.176 122.029 113.224 122.051 113.278C122.106 113.491 122.1 113.714 122.033 113.925C121.967 114.135 121.842 114.325 121.671 114.475C121.551 114.616 121.39 114.721 121.208 114.777Z" fill="white"/>
<path d="M104.261 77.4132C105.905 76.5229 107.242 77.243 107.242 79.0187C107.185 79.9855 106.885 80.9261 106.367 81.7645C105.849 82.6029 105.128 83.3156 104.261 83.8448C102.617 84.7351 101.281 84.0151 101.281 82.2345C101.337 81.2683 101.636 80.3282 102.154 79.4905C102.672 78.6528 103.394 77.9411 104.261 77.4132Z" fill="#00A1CD"/>
<path d="M105.492 85.3974C105.434 85.4293 105.384 85.4364 105.343 85.4189C105.308 85.3914 105.291 85.3445 105.291 85.2779V79.689L103.837 81.7613C103.796 81.8235 103.752 81.8674 103.706 81.893C103.653 81.9217 103.603 81.9156 103.557 81.8746L103.329 81.6697C103.3 81.6391 103.285 81.6005 103.285 81.5539C103.285 81.4741 103.314 81.3949 103.373 81.3164L105.282 78.5959C105.346 78.5142 105.422 78.4495 105.509 78.4016L105.956 78.1574C106.014 78.1255 106.061 78.1232 106.096 78.1506C106.137 78.1682 106.157 78.2103 106.157 78.2768V84.8039C106.157 84.8704 106.137 84.9382 106.096 85.0071C106.061 85.0662 106.014 85.1117 105.956 85.1436L105.492 85.3974Z" fill="#455A64"/>
<path d="M110.935 75.1997L125.39 67.4156C125.791 67.2015 126.108 67.3524 126.108 67.7562C126.091 67.9812 126.018 68.1992 125.893 68.3922C125.768 68.5851 125.595 68.7473 125.39 68.8654L110.935 76.6494C110.539 76.8635 110.217 76.7127 110.217 76.3089C110.237 76.0848 110.312 75.868 110.437 75.6756C110.561 75.4832 110.732 75.3203 110.935 75.1997Z" fill="#00A1CD"/>
<path d="M110.711 77.8073L120.631 72.4558C120.901 72.3098 121.125 72.412 121.125 72.6893C121.113 72.8443 121.063 72.9945 120.977 73.1273C120.891 73.2602 120.772 73.3719 120.631 73.4531L110.711 78.8046C110.441 78.9506 110.217 78.8484 110.217 78.5711C110.228 78.4162 110.279 78.266 110.365 78.1331C110.451 78.0002 110.57 77.8885 110.711 77.8073Z" fill="#E0E0E0"/>
<path d="M104.261 87.0703C105.905 86.1849 107.242 86.9049 107.242 88.6807C107.185 89.6474 106.885 90.5881 106.367 91.4265C105.849 92.2649 105.128 92.9775 104.261 93.5068C102.617 94.3922 101.281 93.6722 101.281 91.8964C101.338 90.9297 101.637 89.989 102.155 89.1506C102.673 88.3122 103.394 87.5996 104.261 87.0703Z" fill="#00A1CD"/>
<path d="M103.706 96.0361C103.647 96.068 103.598 96.0752 103.557 96.0576C103.522 96.0302 103.504 95.9832 103.504 95.9167V95.5973C103.504 95.4443 103.577 95.258 103.723 95.0385L105.579 91.9076C106.029 91.236 106.338 90.7208 106.508 90.3621C106.677 89.9967 106.762 89.6643 106.762 89.3649C106.762 88.979 106.665 88.729 106.473 88.6147C106.286 88.4973 106.011 88.5375 105.65 88.7355C105.311 88.9206 105.039 89.1855 104.835 89.5301C104.631 89.868 104.505 90.2394 104.459 90.6441C104.447 90.7304 104.418 90.8062 104.371 90.8717C104.33 90.9273 104.284 90.9695 104.231 90.9982L103.776 91.2472C103.723 91.2759 103.679 91.2832 103.644 91.2691C103.609 91.2483 103.592 91.2113 103.592 91.1581C103.603 90.7924 103.688 90.4035 103.846 89.9913C104.003 89.5724 104.234 89.1768 104.537 88.8046C104.847 88.4225 105.218 88.1134 105.65 87.8772C106.309 87.5165 106.805 87.4414 107.138 87.652C107.477 87.8528 107.646 88.2526 107.646 88.8514C107.646 89.2706 107.553 89.7009 107.366 90.1424C107.185 90.574 106.902 91.0881 106.516 91.6847L104.835 94.5501L107.567 93.0563C107.631 93.0211 107.681 93.0173 107.716 93.0447C107.757 93.0623 107.777 93.1044 107.777 93.1709V93.5801C107.777 93.6466 107.757 93.7143 107.716 93.7833C107.675 93.8455 107.626 93.8926 107.567 93.9245L103.706 96.0361Z" fill="#455A64"/>
<path d="M110.935 84.8567L125.39 77.0727C125.791 76.8586 126.108 77.0094 126.108 77.4084C126.091 77.634 126.018 77.8527 125.893 78.0465C125.768 78.2402 125.596 78.4033 125.39 78.5225L110.935 86.3114C110.539 86.5254 110.217 86.3746 110.217 85.9708C110.236 85.7458 110.311 85.5282 110.436 85.3348C110.56 85.1415 110.731 84.9779 110.935 84.8567Z" fill="#00A1CD"/>
<path d="M110.711 87.4693L120.631 82.1177C120.901 81.9669 121.125 82.0739 121.125 82.3464C121.113 82.5013 121.063 82.6515 120.977 82.7844C120.891 82.9173 120.772 83.029 120.631 83.1102L110.711 88.4617C110.441 88.6077 110.217 88.5007 110.217 88.2282C110.229 88.0741 110.28 87.9249 110.366 87.7929C110.452 87.6609 110.57 87.55 110.711 87.4693Z" fill="#E0E0E0"/>
<path d="M104.261 96.7323C105.905 95.842 107.242 96.562 107.242 98.3426C107.185 99.3088 106.886 100.249 106.368 101.087C105.85 101.924 105.128 102.636 104.261 103.164C102.617 104.054 101.281 103.334 101.281 101.558C101.338 100.592 101.637 99.651 102.155 98.8126C102.673 97.9741 103.394 97.2615 104.261 96.7323Z" fill="#00A1CD"/>
<path d="M105.685 104.716C105.223 104.968 104.824 105.103 104.485 105.122C104.152 105.131 103.898 105.047 103.723 104.87C103.554 104.69 103.463 104.453 103.452 104.16C103.452 104.1 103.469 104.044 103.504 103.992C103.539 103.933 103.583 103.889 103.636 103.86L104.065 103.625C104.187 103.558 104.269 103.587 104.31 103.711C104.386 104.002 104.549 104.149 104.8 104.151C105.051 104.147 105.346 104.053 105.685 103.867C106.099 103.641 106.429 103.351 106.674 102.997C106.919 102.637 107.042 102.247 107.042 101.828C107.042 101.023 106.613 100.855 105.755 101.324L104.923 101.779C104.864 101.811 104.815 101.818 104.774 101.8C104.739 101.773 104.721 101.726 104.721 101.659V101.39C104.721 101.297 104.753 101.189 104.818 101.068L106.516 98.0232L103.933 99.4357C103.875 99.4676 103.825 99.4747 103.784 99.4572C103.749 99.4298 103.732 99.3828 103.732 99.3162V98.937C103.732 98.8705 103.749 98.8043 103.784 98.7386C103.825 98.6697 103.875 98.6193 103.933 98.5873L107.427 96.6769C107.491 96.6418 107.541 96.6379 107.576 96.6654C107.617 96.6829 107.637 96.7283 107.637 96.8015V97.1608C107.637 97.2406 107.605 97.3347 107.541 97.443L105.851 100.513L105.991 100.446C106.587 100.141 107.056 100.06 107.401 100.204C107.745 100.349 107.918 100.74 107.918 101.379C107.918 101.811 107.821 102.24 107.629 102.665C107.436 103.089 107.17 103.481 106.832 103.839C106.493 104.19 106.111 104.483 105.685 104.716Z" fill="#455A64"/>
<path d="M110.935 94.5187L125.39 86.7054C125.791 86.4914 126.108 86.6471 126.108 87.046C126.091 87.2715 126.017 87.4901 125.892 87.6838C125.767 87.8774 125.595 88.0407 125.39 88.1601L110.935 95.9733C110.539 96.1874 110.217 96.0317 110.217 95.6328C110.236 95.4078 110.311 95.1901 110.436 94.9968C110.56 94.8035 110.731 94.6398 110.935 94.5187Z" fill="#00A1CD"/>
<path d="M110.711 97.1312L120.631 91.7797C120.901 91.6337 121.125 91.7407 121.125 92.0132C121.113 92.1681 121.063 92.3183 120.977 92.4512C120.891 92.5841 120.772 92.6958 120.631 92.777L110.711 98.1285C110.441 98.2793 110.217 98.1723 110.217 97.8999C110.227 97.7441 110.278 97.5929 110.364 97.4591C110.45 97.3253 110.569 97.2128 110.711 97.1312Z" fill="#E0E0E0"/>
<path d="M91.3768 109.629C87.8605 110.028 78.3988 110.345 78.3988 110.345C72.1569 107.781 67.2777 102.157 66.6587 95.8176L66.3883 93.0884C65.8681 87.912 69.8473 83.081 75.1478 81.5242C76.7017 81.0518 78.3494 80.9129 79.9687 81.1175C81.5879 81.3222 83.137 81.8653 84.5011 82.7065C85.8653 83.5478 87.0093 84.6655 87.8484 85.9768C88.6875 87.2881 89.2001 88.7593 89.3482 90.2812C89.4782 91.624 89.8683 92.8111 91.0283 93.6868C91.6767 94.1207 92.3745 94.4862 93.109 94.7765C94.1647 95.2098 95.1257 95.8217 95.9438 96.5815C96.3492 96.9642 96.6659 97.4209 96.8744 97.9231C97.0829 98.4252 97.1787 98.9622 97.1558 99.5005C97.0733 100.193 96.783 100.849 96.3183 101.393C96.2299 101.472 96.1777 101.58 96.1727 101.695C96.1914 101.775 96.2327 101.849 96.2923 101.909C97.3691 103.198 97.936 104.978 97.291 106.496C96.842 107.448 96.0531 108.224 95.0596 108.691C94.0672 109.152 92.9974 109.45 91.897 109.571L91.3768 109.629Z" fill="#263238"/>
<path d="M121.806 100.454C121.623 100.219 121.412 100.003 121.177 99.8118C120.766 99.4567 120.199 99.1307 119.674 99.3253C119.365 99.4678 119.111 99.6953 118.945 99.9772C118.613 100.435 118.217 100.858 117.905 101.33C117.478 102.019 116.985 102.67 116.433 103.276C116.199 103.538 115.861 103.898 115.46 103.787C115.389 103.768 115.324 103.731 115.273 103.68C115.23 103.625 115.201 103.562 115.19 103.495C115.141 103.17 115.16 102.839 115.247 102.522C115.331 102.202 115.331 101.868 115.247 101.549C115.2 101.392 115.099 101.254 114.96 101.156C114.821 101.057 114.651 101.004 114.477 101.004C114.38 101.009 114.289 101.049 114.222 101.116C114.177 101.162 114.142 101.217 114.118 101.276C113.438 102.536 112.943 103.877 112.646 105.261C112.579 105.873 112.46 106.48 112.293 107.075C111.85 108.36 110.243 109.021 109.114 109.766C106.657 111.279 104.118 112.676 101.51 113.95C100.23 112.899 92.1467 106.302 89.9152 104.56C86.7006 102.059 83.2884 103.178 82.8254 103.212C82.3625 103.247 81.7487 106.132 85.5303 110.315C85.5303 110.315 97.3223 119.647 99.5746 120.858C100.131 121.155 100.885 121.773 101.796 121.739H101.827H101.941C102.063 121.729 102.184 121.706 102.3 121.67C103.419 121.335 105.016 120.041 105.687 119.554C109.068 117.009 112.307 114.304 115.393 111.449C116.272 110.651 117.271 109.989 118.222 109.265C119.473 108.377 120.532 107.276 121.343 106.02C121.962 105.136 122.339 104.123 122.441 103.071C122.556 102.157 122.332 101.233 121.806 100.454Z" fill="#FFA8A7"/>
<path d="M70.2738 125.767C67.491 131.605 66.8148 135.01 66.5963 138.187C66.3778 141.364 66.7003 146.171 66.7003 146.171L91.2676 132.923C90.7211 129.686 89.9143 126.492 88.854 123.368L70.2738 125.767Z" fill="#00A1CD"/>
<path d="M88.8904 116.149L88.7447 122.172C89.0672 123.354 89.5822 125.285 90.1596 127.037C89.7955 128.102 87.1062 130.967 81.3948 132.743C75.361 134.621 68.4792 132.685 67.7146 131.284L70.1073 125.616C70.1073 125.616 68.0267 118.099 67.9955 118.007C67.9643 117.915 70.227 114.859 70.3778 111.196C70.5287 107.533 69.4467 105.961 69.1034 105.611C69.2595 105.548 72.781 104.638 72.781 104.638L79.8032 103.324L83.1062 103.125C85.8579 104.444 88.0868 106.551 89.4678 109.138C90.1062 110.234 90.3915 111.479 90.289 112.723C90.1865 113.968 89.7007 115.157 88.8904 116.149Z" fill="#FAFAFA"/>
<path d="M84.8957 85.927C85.6291 86.6276 87.1116 88.3061 86.9763 94.3922C86.8359 99.554 85.0465 100.824 84.1467 101.203C83.2468 101.583 81.5146 101.339 79.8345 101.077V103.592C79.8345 103.592 82.2169 105.144 82.8151 106.55C83.2832 107.645 80.3079 109.172 75.7929 107.353C73.9463 106.608 72.4586 104.716 72.4586 104.716L72.5159 97.2626C72.5159 97.2626 71.5224 98.1577 69.8474 96.7761C68.4638 95.6425 68.0009 93.7257 69.0828 92.704C69.3639 92.461 69.7026 92.2838 70.0712 92.187C70.4398 92.0902 70.8276 92.0767 71.2029 92.1475C71.5782 92.2182 71.9301 92.3713 72.2298 92.5941C72.5295 92.8168 72.7684 93.103 72.9268 93.4289C75.2405 93.4622 77.521 92.9109 79.5276 91.8332C83.0803 89.9942 84.6564 87.9314 84.8957 85.927Z" fill="#FFA8A7"/>
<path d="M80.7134 93.463C80.7143 93.5897 80.6753 93.7138 80.6014 93.82C80.5275 93.9261 80.4219 94.0097 80.2977 94.0602C80.1735 94.1108 80.0362 94.1261 79.9027 94.1044C79.7693 94.0826 79.6456 94.0246 79.5471 93.9377C79.4485 93.8508 79.3794 93.7388 79.3483 93.6154C79.3172 93.4921 79.3255 93.363 79.3722 93.2441C79.4188 93.1251 79.5018 93.0216 79.6108 92.9464C79.7198 92.8711 79.85 92.8275 79.9852 92.8208C80.0781 92.8182 80.1707 92.8327 80.2576 92.8636C80.3445 92.8945 80.424 92.9411 80.4916 93.0007C80.5593 93.0604 80.6137 93.1319 80.6517 93.2112C80.6898 93.2905 80.7108 93.3761 80.7134 93.463Z" fill="#263238"/>
<path d="M80.1829 97.2869L82.7838 97.7296C82.7604 97.8915 82.7024 98.0474 82.6133 98.1879C82.5241 98.3284 82.4056 98.4506 82.2648 98.5474C82.124 98.6441 81.9638 98.7133 81.7938 98.7508C81.6238 98.7883 81.4475 98.7935 81.2753 98.7659C80.9238 98.6997 80.6135 98.5086 80.4098 98.2327C80.206 97.9568 80.1247 97.6177 80.1829 97.2869Z" fill="#B16668"/>
<path d="M81.2805 98.7659C81.4521 98.7993 81.6291 98.7993 81.8007 98.7659C81.7873 98.4926 81.6622 98.2347 81.4511 98.0454C81.24 97.8561 80.9592 97.75 80.6667 97.7491C80.5092 97.7475 80.3532 97.7774 80.209 97.8366C80.2754 98.0704 80.4113 98.2818 80.601 98.4463C80.7906 98.6107 81.0263 98.7215 81.2805 98.7659Z" fill="#F28F8F"/>
<path d="M86.2272 91.3808L84.6667 90.7824C84.703 90.6841 84.7604 90.5938 84.8353 90.517C84.9102 90.4402 85.0011 90.3785 85.1023 90.3356C85.2036 90.2928 85.3132 90.2698 85.4243 90.268C85.5355 90.2662 85.6458 90.2856 85.7487 90.325C85.9572 90.4109 86.1228 90.568 86.2117 90.7642C86.3006 90.9604 86.3062 91.1809 86.2272 91.3808Z" fill="#263238"/>
<path d="M85.8631 92.9862C85.8629 93.1127 85.8231 93.2363 85.7486 93.3419C85.6741 93.4474 85.5681 93.5302 85.4438 93.5801C85.3195 93.6299 85.1823 93.6445 85.0492 93.6222C84.9161 93.5999 84.7929 93.5415 84.6948 93.4544C84.5968 93.3673 84.5282 93.2552 84.4975 93.132C84.4668 93.0088 84.4755 92.8799 84.5223 92.7613C84.5691 92.6426 84.6521 92.5394 84.761 92.4644C84.8698 92.3893 84.9998 92.3458 85.1349 92.3392C85.323 92.3352 85.5052 92.4011 85.6416 92.5223C85.778 92.6435 85.8577 92.8103 85.8631 92.9862Z" fill="#263238"/>
<path d="M82.6121 92.7235L83.0906 96.4988L85.1713 95.5744L82.6121 92.7235Z" fill="#F28F8F"/>
<path d="M79.8083 101.062C78.0346 100.838 74.3883 99.8508 73.8213 98.4983C74.0468 99.1825 74.4917 99.7854 75.0957 100.225C76.1828 101.101 79.8031 102.094 79.8031 102.094L79.8083 101.062Z" fill="#F28F8F"/>
<path d="M72.651 95.3068C73.1049 95.2707 73.5248 95.0674 73.8185 94.7417C74.1121 94.416 74.2553 93.9945 74.2167 93.57C74.1781 93.1455 73.9607 92.7527 73.6125 92.4781C73.2642 92.2035 72.8136 92.0695 72.3597 92.1056L72.651 95.3068Z" fill="#263238"/>
<path d="M54.9655 128.905C55.7302 133.191 57.4051 137.175 62.4299 145.159C63.004 146.134 63.7027 147.041 64.5105 147.859C65.3583 148.717 66.3874 149.401 67.5326 149.868C68.2014 150.13 68.9445 150.176 69.6445 149.999C71.0073 149.693 72.1673 148.705 72.2713 148.097C72.4118 147.28 70.8461 146.453 70.2323 145.859C69.7121 145.373 68.6718 144.551 68.3233 144.103C67.9748 143.655 67.5795 143.295 68.0164 143.31C68.2817 143.31 68.5366 143.403 68.7914 143.432C69.0094 143.451 69.2289 143.451 69.4468 143.432C69.6656 143.446 69.8851 143.416 70.0899 143.343C70.2948 143.27 70.4801 143.156 70.6328 143.008C70.6975 142.934 70.7375 142.844 70.7477 142.749C70.7578 142.654 70.7378 142.558 70.69 142.473C70.5896 142.357 70.4562 142.269 70.3051 142.22C69.8242 142.05 69.3567 141.848 68.9059 141.617C68.4571 141.376 68.0245 141.11 67.6107 140.819C66.9761 140.333 66.1126 139.807 65.7225 139.131C64.7465 137.495 64.0049 135.747 63.517 133.93C63.1633 132.665 62.4767 130.238 62.123 127.937C62.2374 127.645 63.8239 124.915 64.8486 123.329C66.3207 121.048 67.7251 119.092 69.0827 117.058C71.9488 113.789 71.6835 107.557 69.1451 105.616C64.6822 106.686 63.3974 108.481 61.9253 111.142C60.4897 113.731 56.6301 120.95 55.3557 124.516C54.8406 125.927 54.7066 127.434 54.9655 128.905Z" fill="#FFA8A7"/>
<path d="M185.006 189.766L228.023 180.853L228.112 181.943C228.112 181.943 227.191 183.403 217.141 186.186C207.092 188.968 182.239 193.887 182.239 193.887L181.198 192.598L185.006 189.766Z" fill="#263238"/>
<path d="M215.872 171.926C215.872 171.926 213.323 175.687 210.317 177.896C207.31 180.104 191.211 193.157 191.211 193.157L186.01 195.848L184.449 195.006L186.79 189.912C186.79 189.912 204.97 177.852 208.902 175.317C212.834 172.782 216.377 171.226 215.872 171.926Z" fill="#37474F"/>
<path d="M184.46 193.819L186.02 194.66L185.614 195.629L184.46 195.006V193.819Z" fill="#263238"/>
<path d="M215.914 170.617V171.824L214.619 173.6V171.732L215.914 170.617Z" fill="#37474F"/>
<path d="M190.728 209.08C192.73 206.161 190.395 203.413 190.624 200.912C190.852 198.411 191.206 193.157 191.206 193.157L186.005 195.847C186.005 195.847 184.278 199.973 183.56 201.71C182.842 203.447 179.742 205.281 177.838 206.779C175.934 208.278 174.337 211.858 179.653 213.255C184.969 214.651 188.73 211.985 190.728 209.08ZM181.365 211.309C179.315 210.754 178.701 209.183 179.991 207.796C181.281 206.409 183.986 205.733 186.036 206.288C188.085 206.842 188.694 208.419 187.404 209.805C186.114 211.192 183.445 211.863 181.365 211.309Z" fill="#00A1CD"/>
<path opacity="0.2" d="M190.728 209.08C192.73 206.161 190.395 203.413 190.624 200.912C190.852 198.411 191.206 193.157 191.206 193.157L186.005 195.847C186.005 195.847 184.278 199.973 183.56 201.71C182.842 203.447 179.742 205.281 177.838 206.779C175.934 208.278 174.337 211.858 179.653 213.255C184.969 214.651 188.73 211.985 190.728 209.08ZM181.365 211.309C179.315 210.754 178.701 209.183 179.991 207.796C181.281 206.409 183.986 205.733 186.036 206.288C188.085 206.842 188.694 208.419 187.404 209.805C186.114 211.192 183.445 211.863 181.365 211.309Z" fill="black"/>
<path d="M190.941 191.338C190.648 191.565 190.298 191.719 189.924 191.785C189.55 191.851 189.165 191.828 188.803 191.717C188.017 191.508 187.7 190.987 188.096 190.564C188.389 190.337 188.738 190.183 189.112 190.117C189.486 190.051 189.872 190.074 190.233 190.185C191.019 190.394 191.336 190.914 190.941 191.338Z" fill="#263238"/>
<path d="M184.964 189.187C184.964 189.187 178.816 190.248 176.792 190.423C174.769 190.598 171.84 190.194 166.779 190.627C161.718 191.06 152.605 195.123 152.137 199.063C151.669 203.004 156.038 203.296 159.175 202.59C162.311 201.885 164.048 200.8 169.422 198.285C176.595 194.933 181.354 192.807 181.354 192.807L185.375 189.693L184.964 189.187ZM173.042 194.5C170.118 195.388 167.263 196.467 164.501 197.73C161.073 199.316 160.251 200.391 158.108 200.863C156.366 201.248 154.644 200.333 155.507 198.543C156.438 196.636 159.013 194.651 163.752 193.191C168.491 191.732 172.381 192.004 174.114 192.86C174.805 193.211 175.123 193.863 173.042 194.5Z" fill="#00A1CD"/>
<path opacity="0.2" d="M184.964 189.187C184.964 189.187 178.816 190.248 176.792 190.423C174.769 190.598 171.84 190.194 166.779 190.627C161.718 191.06 152.605 195.123 152.137 199.063C151.669 203.004 156.038 203.296 159.175 202.59C162.311 201.885 164.048 200.8 169.422 198.285C176.595 194.933 181.354 192.807 181.354 192.807L185.375 189.693L184.964 189.187ZM173.042 194.5C170.118 195.388 167.263 196.467 164.501 197.73C161.073 199.316 160.251 200.391 158.108 200.863C156.366 201.248 154.644 200.333 155.507 198.543C156.438 196.636 159.013 194.651 163.752 193.191C168.491 191.732 172.381 192.004 174.114 192.86C174.805 193.211 175.123 193.863 173.042 194.5Z" fill="black"/>
<path d="M182.218 193.887V192.7L181.354 191.62V192.807L182.218 193.887Z" fill="#263238"/>
<path d="M185.006 188.579L228.112 180.756C228.112 180.756 227.191 182.216 217.141 185.003C207.092 187.791 182.239 192.7 182.239 192.7L181.198 191.411L185.006 188.579Z" fill="#37474F"/>
<path d="M215.872 170.739C215.872 170.739 213.323 174.505 210.317 176.713C207.31 178.922 191.211 191.975 191.211 191.975L186.01 194.66L184.449 193.819L186.79 188.725C186.79 188.725 204.97 176.665 208.902 174.13C212.834 171.595 216.377 170.039 215.872 170.739Z" fill="#455A64"/>
<path d="M190.728 207.893C192.73 204.974 190.395 202.226 190.624 199.725C190.852 197.224 191.206 191.975 191.206 191.975L186.005 194.66C186.005 194.66 184.278 198.786 183.56 200.528C182.842 202.269 179.742 204.094 177.838 205.592C175.934 207.091 174.337 210.671 179.653 212.072C184.969 213.474 188.73 210.798 190.728 207.893ZM181.365 210.126C179.315 209.572 178.701 207.995 179.991 206.609C181.281 205.222 183.986 204.551 186.036 205.106C188.085 205.66 188.694 207.232 187.404 208.618C186.114 210.005 183.445 210.681 181.365 210.126Z" fill="#00A1CD"/>
<path d="M190.941 190.151C190.648 190.378 190.299 190.533 189.925 190.6C189.551 190.668 189.165 190.645 188.803 190.535C188.017 190.321 187.7 189.805 188.096 189.377C188.389 189.15 188.738 188.996 189.112 188.93C189.486 188.863 189.872 188.887 190.233 188.998C191.019 189.212 191.336 189.727 190.941 190.151Z" fill="#263238"/>
<path d="M184.964 188C184.964 188 178.816 189.066 176.792 189.241C174.769 189.416 171.84 189.012 166.779 189.44C161.718 189.868 152.605 193.936 152.137 197.876C151.669 201.817 156.038 202.114 159.175 201.403C162.311 200.693 164.048 199.613 169.422 197.103C176.595 193.736 181.365 191.62 181.365 191.62L185.385 188.511L184.964 188ZM173.042 193.313C170.117 194.201 167.263 195.282 164.501 196.548C161.073 198.129 160.251 199.204 158.108 199.676C156.366 200.065 154.644 199.146 155.507 197.356C156.438 195.453 159.013 193.464 163.752 192.028C168.491 190.593 172.381 190.837 174.114 191.693C174.805 192.024 175.123 192.676 173.042 193.313Z" fill="#00A1CD"/>
<path d="M146.873 176.154L159.424 173.853C159.504 173.839 159.586 173.849 159.659 173.881C159.732 173.913 159.793 173.966 159.833 174.031C159.873 174.097 159.89 174.173 159.882 174.248C159.874 174.323 159.841 174.394 159.788 174.451L151.273 183.466L146.873 176.154Z" fill="#FFA8A7"/>
<path d="M159.788 174.451C159.841 174.394 159.874 174.323 159.882 174.248C159.89 174.173 159.873 174.097 159.833 174.031C159.793 173.966 159.732 173.913 159.659 173.881C159.586 173.849 159.504 173.839 159.424 173.853L156.974 174.305C157.312 174.499 157.584 174.777 157.763 175.108C157.941 175.439 158.017 175.809 157.983 176.178V176.383L159.788 174.451Z" fill="#263238"/>
<path d="M104.037 208.818L105.078 208.268L106.321 207.606L151.289 183.49C151.701 182.198 151.577 180.808 150.94 179.598C150.051 177.735 148.34 176.266 146.894 176.193L101.946 200.294L99.5641 201.52C101.145 200.79 105.614 208.034 104.037 208.818Z" fill="#00A1CD"/>
<path d="M107.954 206.711L110.243 205.48C110.919 205.145 110.529 203.588 109.723 201.982C108.683 199.847 106.602 197.774 105.723 198.222L104.032 199.127L103.434 199.462C104.329 199.015 106.394 201.082 107.439 203.223C108.194 204.76 108.578 206.264 108.006 206.667C107.994 206.686 107.976 206.702 107.954 206.711Z" fill="#EBEBEB"/>
<path d="M108.542 206.385C110.103 205.607 105.614 198.353 104.038 199.131L101.744 200.362C103.304 199.579 107.819 206.833 106.243 207.611L108.542 206.385Z" fill="#00A1CD"/>
<path d="M104.037 208.818L106.305 207.606C107.866 206.852 103.575 199.822 101.931 200.28L101.837 200.314L99.5641 201.52C101.145 200.79 105.614 208.034 104.037 208.818Z" fill="#EBEBEB"/>
<path opacity="0.15" d="M159.846 174.057L159.424 173.853L150.316 178.513L102.789 204.011C102.701 203.88 102.628 203.87 102.571 203.962C103.907 205.908 104.916 208.37 104.037 208.798L105.078 208.248L106.321 207.587L151.289 183.471L159.804 174.456C159.854 174.401 159.884 174.334 159.892 174.263C159.899 174.191 159.883 174.12 159.846 174.057Z" fill="black"/>
<path d="M94.4197 213.945L104.038 208.818C104.714 208.492 104.339 206.949 103.559 205.354C102.519 203.213 100.469 201.126 99.5641 201.549L89.9151 206.716C88.0009 207.752 89.7591 211.644 91.8969 213.381C92.6824 214.023 93.5719 214.315 94.4197 213.945Z" fill="#F28F8F"/>
<path opacity="0.1" d="M95.018 211.153C94.4666 209.129 92.7085 207.139 91.096 206.716C90.8582 206.634 90.6028 206.608 90.3518 206.639C90.1007 206.671 89.8616 206.759 89.6551 206.896C88.2091 208.151 89.8944 211.722 91.9126 213.366C92.6929 214.014 93.5667 214.301 94.3938 213.96C95.0908 213.566 95.3665 212.53 95.018 211.153Z" fill="black"/>
</svg>
