<svg width="250" height="230" viewBox="0 0 250 230" fill="none" xmlns="http://www.w3.org/2000/svg">
<path d="M125 230C194.036 230 250 202.913 250 169.499C250 136.085 194.036 108.997 125 108.997C55.9644 108.997 0 136.085 0 169.499C0 202.913 55.9644 230 125 230Z" fill="#F5F5F5"/>
<path d="M40.6038 19.3638L35.8287 21.9423C35.8287 21.7428 35.8703 21.5434 35.8703 21.3488V20.0547C35.8703 17.7486 34.1382 16.8194 32.0107 17.9676C31.0915 18.5007 30.3056 19.2125 29.7064 20.0547C29.3579 17.16 26.9287 16.0848 23.9846 17.6757C20.796 19.3979 18.2108 23.5867 18.2108 27.0311V28.9771C18.1872 29.7499 18.3545 30.5174 18.6998 31.2199L14.7309 33.3605C14.1089 33.7415 13.5912 34.254 13.2199 34.8565C12.8485 35.4591 12.6338 36.1349 12.5931 36.8293C12.5931 38.1088 13.5502 38.6245 14.7309 37.9872L40.6038 23.9905C41.2231 23.6114 41.7391 23.102 42.1103 22.5031C42.4815 21.9041 42.6977 21.2323 42.7416 20.5412C42.7416 19.2422 41.7845 18.7265 40.6038 19.3638Z" fill="#EBEBEB"/>
<path d="M63.5741 29.0356L59.9694 30.9816C59.99 30.8349 60.0004 30.687 60.0006 30.5389V29.5659C60.0006 27.8291 58.695 27.1334 57.0877 27.9945C56.3959 28.3929 55.8034 28.9254 55.3504 29.5562C55.0903 27.3718 53.2697 26.5545 51.033 27.7561C48.6247 29.0551 46.6741 32.2174 46.6741 34.8153V36.2748C46.6565 36.8582 46.7829 37.4375 47.0434 37.9678L44.0421 39.5781C43.5725 39.8654 43.1818 40.252 42.9016 40.7067C42.6215 41.1615 42.4598 41.6715 42.4296 42.1955C42.4296 43.1685 43.1526 43.5529 44.0421 43.0712L63.5689 32.5287C64.0389 32.2415 64.4302 31.8549 64.7112 31.4003C64.9922 30.9457 65.155 30.4356 65.1866 29.9113C65.1918 28.9481 64.4636 28.554 63.5741 29.0356Z" fill="#EBEBEB"/>
<path d="M201.433 164.633C216.466 164.633 228.653 158.051 228.653 149.931C228.653 141.811 216.466 135.229 201.433 135.229C186.399 135.229 174.212 141.811 174.212 149.931C174.212 158.051 186.399 164.633 201.433 164.633Z" fill="#E0E0E0"/>
<path d="M182.535 215.721C181.467 215.715 180.405 215.573 179.378 215.298C176.257 214.485 175.315 212.968 175.05 211.839C174.629 210.01 175.804 208.117 177.131 207.052C177.614 206.672 178.171 206.273 178.743 205.86C180.241 204.78 182.103 203.427 182.535 202.401L184.616 197.351L183.029 196.495L183.372 195.75L181.718 196.081L180.975 195.152C179.331 195.891 175.289 197.725 169.869 200.26C168.621 200.844 167.57 201.35 166.649 201.793C163.606 203.252 161.926 204.069 159.367 204.639C158.427 204.856 157.464 204.968 156.496 204.974C154.504 204.974 152.943 204.444 151.986 203.442C151.562 202.972 151.252 202.421 151.079 201.828C150.905 201.235 150.872 200.613 150.982 200.007C151.549 195.249 161.468 191.099 166.618 190.666C168.309 190.52 169.906 190.452 171.632 190.452C172.47 190.452 173.224 190.452 173.9 190.486C174.42 190.486 174.941 190.486 175.383 190.486C175.825 190.486 176.251 190.486 176.626 190.442C178.577 190.277 184.642 189.226 184.704 189.216L185.365 189.105L185.77 189.591L187.284 189.319C189.287 187.99 204.611 177.832 208.226 175.507C210.483 174.047 214.525 171.761 215.753 171.761H216.413L216.819 172.335L217.131 172.88L216.715 173.522C216.626 173.658 214.046 177.414 210.931 179.725C209.641 180.698 205.916 183.641 202.213 186.609L230.26 181.574L229.032 183.52C228.694 184.069 226.874 185.621 217.433 188.234C211.747 189.8 201.365 192.053 193.547 193.683L192.288 194.709C192.2 196.013 191.919 199.978 191.731 202.055C191.726 202.897 191.863 203.735 192.137 204.536C192.616 206.283 193.204 208.463 191.669 210.691C190.358 212.573 187.445 215.721 182.535 215.721ZM184.512 208.175C183.834 208.16 183.161 208.271 182.53 208.502C181.899 208.734 181.324 209.081 180.839 209.523C180.697 209.652 180.588 209.81 180.522 209.985C180.456 210.159 180.435 210.346 180.46 210.53C180.578 210.753 180.751 210.946 180.965 211.095C181.178 211.243 181.425 211.343 181.687 211.386C182.09 211.491 182.507 211.542 182.925 211.537C183.603 211.552 184.278 211.441 184.909 211.21C185.54 210.978 186.116 210.632 186.603 210.19C186.746 210.062 186.855 209.904 186.92 209.728C186.985 209.553 187.005 209.366 186.977 209.183C186.859 208.96 186.687 208.766 186.473 208.618C186.26 208.47 186.012 208.372 185.75 208.331C185.347 208.225 184.93 208.172 184.512 208.175V208.175ZM170.166 194.261C168.111 194.29 166.073 194.619 164.127 195.235C158.748 196.889 157.058 198.947 156.532 200.027C156.465 200.163 156.319 200.513 156.444 200.683C156.559 200.793 156.7 200.876 156.855 200.927C157.01 200.979 157.175 200.997 157.338 200.98C157.514 200.98 157.689 200.958 157.859 200.917C158.861 200.661 159.806 200.237 160.647 199.667C161.736 199.007 162.865 198.406 164.028 197.866C166.832 196.576 169.734 195.478 172.709 194.583L172.803 194.549C171.941 194.343 171.054 194.247 170.166 194.261Z" fill="#E0E0E0"/>
<path d="M86.5653 213.323C83.876 214.607 90.6746 219.083 94.0348 217.356L153.38 184.867L160.449 177.891C160.519 177.82 160.562 177.729 160.571 177.633C160.581 177.537 160.557 177.441 160.503 177.359C160.449 177.277 160.367 177.214 160.271 177.179C160.175 177.144 160.07 177.139 159.97 177.166L146.332 181.058L86.5653 213.323Z" fill="#E0E0E0"/>
<path d="M35.9744 203.169L13.2225 190.88C11.9377 190.189 11.9377 189.065 13.2225 188.375L140.537 119.705C141.257 119.364 142.053 119.187 142.86 119.187C143.667 119.187 144.462 119.364 145.182 119.705L167.939 131.994C169.219 132.685 169.219 133.808 167.939 134.499L40.6194 203.169C39.8994 203.51 39.1038 203.687 38.2969 203.687C37.49 203.687 36.6944 203.51 35.9744 203.169V203.169Z" fill="#E0E0E0"/>
<path d="M182.431 137.39C182.442 137.269 182.488 137.154 182.563 137.055C182.638 136.957 182.739 136.879 182.858 136.83C183.176 136.679 183.528 136.6 183.885 136.6C184.242 136.6 184.594 136.679 184.912 136.83C185.03 136.88 185.131 136.958 185.206 137.056C185.281 137.155 185.326 137.27 185.339 137.39L182.686 150.112C182.675 150.195 182.642 150.274 182.589 150.341C182.536 150.408 182.465 150.462 182.384 150.496C182.16 150.604 181.911 150.66 181.659 150.66C181.406 150.66 181.157 150.604 180.933 150.496C180.852 150.462 180.781 150.408 180.728 150.341C180.675 150.274 180.642 150.195 180.631 150.112V150.112L182.431 137.39Z" fill="#455A64"/>
<path d="M220.075 137.389C220.064 137.27 220.019 137.155 219.945 137.056C219.871 136.958 219.771 136.88 219.654 136.83C219.332 136.675 218.975 136.595 218.613 136.595C218.252 136.595 217.895 136.675 217.573 136.83C217.456 136.88 217.356 136.958 217.282 137.056C217.208 137.155 217.163 137.27 217.152 137.389L219.799 150.111C219.81 150.194 219.842 150.272 219.894 150.34C219.946 150.407 220.016 150.461 220.096 150.496C220.321 150.604 220.571 150.66 220.824 150.66C221.077 150.66 221.327 150.604 221.552 150.496C221.633 150.461 221.702 150.407 221.754 150.34C221.806 150.272 221.839 150.194 221.849 150.111V150.111L220.075 137.389Z" fill="#455A64"/>
<path d="M202.884 139.272C202.872 139.152 202.827 139.038 202.752 138.94C202.677 138.843 202.575 138.766 202.457 138.717C202.139 138.566 201.787 138.487 201.43 138.487C201.073 138.487 200.721 138.566 200.403 138.717C200.286 138.767 200.185 138.844 200.11 138.941C200.035 139.038 199.989 139.153 199.976 139.272L200.403 157.419C200.413 157.501 200.447 157.58 200.5 157.648C200.553 157.715 200.623 157.768 200.704 157.803C200.929 157.909 201.178 157.964 201.43 157.964C201.682 157.964 201.93 157.909 202.156 157.803C202.237 157.768 202.307 157.715 202.36 157.648C202.413 157.58 202.446 157.501 202.457 157.419V157.419L202.884 139.272Z" fill="#455A64"/>
<path d="M227.482 127.693H227.456C227.456 124.093 224.939 120.493 219.851 117.749C209.677 112.257 193.183 112.257 183.014 117.749C177.926 120.493 175.404 124.074 175.404 127.693V129.639C175.461 133.191 178.004 136.733 183.034 139.443C193.204 144.935 209.698 144.935 219.872 139.443C224.892 136.733 227.441 133.191 227.503 129.639L227.482 127.693Z" fill="#00A1CD"/>
<path d="M183.008 117.749C172.839 123.242 172.839 132.15 183.008 137.642C193.177 143.135 209.672 143.135 219.846 137.642C230.021 132.15 230.021 123.242 219.846 117.749C209.672 112.257 193.183 112.257 183.008 117.749Z" fill="#00A1CD"/>
<path opacity="0.45" d="M183.008 117.749C172.839 123.242 172.839 132.15 183.008 137.642C193.177 143.135 209.672 143.135 219.846 137.642C230.021 132.15 230.021 123.242 219.846 117.749C209.672 112.257 193.183 112.257 183.008 117.749Z" fill="white"/>
<g opacity="0.05">
<path opacity="0.05" d="M207.139 125.344C210.384 127.095 210.384 129.936 207.139 131.668C203.893 133.4 198.629 133.42 195.388 131.668C192.148 129.917 192.142 127.076 195.388 125.344C198.634 123.612 203.893 123.587 207.139 125.344Z" fill="black"/>
</g>
<path d="M196.096 128.905C193.266 126.21 191.607 119.477 194.363 117.336H208.408C211.165 119.477 209.505 126.205 206.681 128.905L206.608 128.978L206.509 129.066C206.426 129.139 206.343 129.211 206.254 129.28L206.187 129.328L205.973 129.479C205.856 129.56 205.733 129.633 205.604 129.698C203.284 130.953 199.513 130.953 197.188 129.698C197.063 129.635 196.943 129.557 196.819 129.479L196.621 129.338L196.538 129.275C196.45 129.213 196.369 129.145 196.293 129.07L196.179 128.968C196.148 128.951 196.12 128.93 196.096 128.905V128.905Z" fill="#EBEBEB"/>
<path d="M207.17 116.475C210.369 118.202 210.369 121.004 207.17 122.731C203.971 124.458 198.785 124.458 195.581 122.731C192.377 121.004 192.382 118.202 195.581 116.475C198.78 114.747 203.971 114.747 207.17 116.475Z" fill="#FAFAFA"/>
<path d="M204.902 117.701C206.847 118.752 206.847 120.454 204.902 121.505C203.81 122.023 202.602 122.292 201.378 122.292C200.153 122.292 198.946 122.023 197.854 121.505C195.903 120.454 195.903 118.752 197.854 117.701C198.946 117.184 200.153 116.914 201.378 116.914C202.602 116.914 203.81 117.184 204.902 117.701V117.701Z" fill="#EBEBEB"/>
<path d="M197.854 119.506C198.946 118.988 200.153 118.719 201.378 118.719C202.602 118.719 203.81 118.988 204.902 119.506C205.374 119.744 205.774 120.088 206.067 120.508C205.77 120.917 205.37 121.251 204.902 121.481C203.81 121.998 202.602 122.267 201.378 122.267C200.153 122.267 198.946 121.998 197.854 121.481C197.385 121.25 196.984 120.916 196.683 120.508C196.98 120.089 197.382 119.745 197.854 119.506Z" fill="#E0E0E0"/>
<path d="M204.47 120.508C205.467 119.56 206.326 118.494 207.024 117.336C208.2 115.39 208.418 112.777 207.81 112.471C207.201 112.164 204.72 114.752 204.72 114.752C204.95 113.657 205.039 112.54 204.985 111.425C204.881 109.693 204.429 108.117 203.898 107.8C203.367 107.484 202.176 109.669 201.667 111.255C201.157 112.841 200.85 114.144 200.85 114.144C200.648 112.908 200.344 111.688 199.94 110.496C199.321 108.846 198.759 108.477 198.327 108.637C197.895 108.798 197.604 109.571 197.474 111.76C197.429 112.809 197.465 113.86 197.583 114.903C197.583 114.903 196.709 114.003 195.737 113.132C194.67 112.159 194.218 112.043 193.911 112.223C193.604 112.403 193.521 113.896 195.175 116.689C195.996 118.111 197.049 119.404 198.296 120.522C198.296 120.522 200.569 121.885 204.47 120.508Z" fill="#00A1CD"/>
<path opacity="0.3" d="M204.47 120.508C205.467 119.56 206.326 118.494 207.024 117.336C208.2 115.39 208.418 112.777 207.81 112.471C207.201 112.164 204.72 114.752 204.72 114.752C204.95 113.657 205.039 112.54 204.985 111.425C204.881 109.693 204.429 108.117 203.898 107.8C203.367 107.484 202.176 109.669 201.667 111.255C201.157 112.841 200.85 114.144 200.85 114.144C200.648 112.908 200.344 111.688 199.94 110.496C199.321 108.846 198.759 108.477 198.327 108.637C197.895 108.798 197.604 109.571 197.474 111.76C197.429 112.809 197.465 113.86 197.583 114.903C197.583 114.903 196.709 114.003 195.737 113.132C194.67 112.159 194.218 112.043 193.911 112.223C193.604 112.403 193.521 113.896 195.175 116.689C195.996 118.111 197.049 119.404 198.296 120.522C198.296 120.522 200.569 121.885 204.47 120.508Z" fill="black"/>
<path d="M112.729 184.074L132.287 173.493C134.306 172.408 135.315 170.977 135.315 169.552C135.315 168.126 135.315 167.008 135.315 167.008L115.029 156.304C114.461 155.958 113.989 155.492 113.65 154.944C113.311 154.395 113.115 153.78 113.078 153.147V130.593L78.9137 149.08V171.639C78.9494 172.271 79.1443 172.886 79.4823 173.433C79.8204 173.981 80.2922 174.447 80.8591 174.792L98.1389 184.074C102.16 186.249 108.698 186.249 112.729 184.074Z" fill="#00A1CD"/>
<g opacity="0.6">
<path opacity="0.6" d="M112.729 184.074L132.287 173.493C134.306 172.408 135.315 170.977 135.315 169.552C135.315 168.126 135.315 167.008 135.315 167.008L115.029 156.304C114.461 155.958 113.989 155.492 113.65 154.944C113.311 154.395 113.115 153.78 113.078 153.147V130.593L78.9137 149.08V171.639C78.9494 172.271 79.1443 172.886 79.4823 173.433C79.8204 173.981 80.2922 174.447 80.8591 174.792L98.1389 184.074C102.16 186.249 108.698 186.249 112.729 184.074Z" fill="black"/>
</g>
<path opacity="0.3" d="M87.1167 175.609V178.168L80.8747 174.792C80.3092 174.445 79.8386 173.98 79.5007 173.432C79.1628 172.884 78.9671 172.27 78.9293 171.639V149.06L85.4209 145.572C85.551 147.114 85.7018 148.715 85.8371 150.272L81.27 152.743V170.364C81.3033 170.997 81.497 171.612 81.8354 172.161C82.1737 172.709 82.6468 173.174 83.2154 173.517L87.1167 175.609Z" fill="black"/>
<path d="M81.27 170.345C81.3057 170.977 81.5006 171.592 81.8387 172.139C82.1767 172.687 82.6485 173.153 83.2154 173.498L98.1388 181.53C102.17 183.704 108.709 183.709 112.745 181.53L132.313 170.953C136.345 168.779 136.345 165.247 132.313 163.067L117.385 155.035C116.818 154.689 116.347 154.222 116.009 153.674C115.671 153.125 115.476 152.51 115.439 151.877V134.251L81.2752 152.739L81.27 170.345Z" fill="#00A1CD"/>
<path opacity="0.3" d="M81.27 170.345C81.3057 170.977 81.5006 171.592 81.8387 172.139C82.1767 172.687 82.6485 173.153 83.2154 173.498L98.1388 181.53C102.17 183.704 108.709 183.709 112.745 181.53L132.313 170.953C136.345 168.779 136.345 165.247 132.313 163.067L117.385 155.035C116.818 154.689 116.347 154.222 116.009 153.674C115.671 153.125 115.476 152.51 115.439 151.877V134.251L81.2752 152.739L81.27 170.345Z" fill="black"/>
<path opacity="0.5" d="M121.348 157.175L117.385 155.035C116.818 154.689 116.347 154.222 116.009 153.674C115.671 153.125 115.476 152.51 115.439 151.877V134.251L81.2752 152.739V170.365C81.3109 170.996 81.5058 171.611 81.8438 172.159C82.1819 172.707 82.6537 173.172 83.2206 173.517L87.1218 175.624L121.348 157.175Z" fill="black"/>
<path d="M135.32 167.008V169.552C135.32 170.983 134.28 172.403 132.293 173.498L112.729 184.069C110.586 185.142 108.19 185.699 105.759 185.69V183.155C108.19 183.164 110.586 182.607 112.729 181.535L132.293 170.953C134.306 169.868 135.32 168.438 135.32 167.008Z" fill="#00A1CD"/>
<path opacity="0.5" d="M135.32 167.008V169.552C135.32 170.983 134.28 172.403 132.293 173.498L112.729 184.069C110.586 185.142 108.19 185.699 105.759 185.69V183.155C108.19 183.164 110.586 182.607 112.729 181.535L132.293 170.953C134.306 169.868 135.32 168.438 135.32 167.008Z" fill="black"/>
<path d="M26.4086 192.277C27.1463 192.612 27.9582 192.779 28.7782 192.764C29.5981 192.75 30.4027 192.554 31.1265 192.194L163.247 120.843C163.955 120.411 164.543 119.829 164.965 119.144C165.388 118.46 165.631 117.692 165.677 116.903V4.35024C165.649 3.58359 165.427 2.834 165.03 2.16268C164.633 1.49135 164.072 0.91731 163.393 0.487413C162.656 0.153195 161.845 -0.0135155 161.026 0.000856337C160.207 0.0152282 159.404 0.210276 158.68 0.570119L26.5647 71.9206C25.8557 72.3517 25.2657 72.9334 24.8427 73.6182C24.4196 74.303 24.1756 75.0715 24.1303 75.8613V188.385C24.1529 189.156 24.3713 189.911 24.7674 190.588C25.1636 191.264 25.7261 191.843 26.4086 192.277V192.277Z" fill="#00A1CD"/>
<path d="M31.1264 192.169L163.247 120.819C163.956 120.387 164.546 119.804 164.969 119.118C165.392 118.433 165.636 117.664 165.682 116.873V4.34532C165.682 2.88581 164.589 2.30687 163.247 3.03176L31.1264 74.3823C30.4175 74.8134 29.8275 75.395 29.4044 76.0798C28.9814 76.7646 28.7373 77.5332 28.6921 78.3229V190.851C28.6921 192.306 29.7844 192.894 31.1264 192.169Z" fill="#00A1CD"/>
<path opacity="0.5" d="M31.1264 192.169L163.247 120.819C163.956 120.387 164.546 119.804 164.969 119.118C165.392 118.433 165.636 117.664 165.682 116.873V4.34532C165.682 2.88581 164.589 2.30687 163.247 3.03176L31.1264 74.3823C30.4175 74.8134 29.8275 75.395 29.4044 76.0798C28.9814 76.7646 28.7373 77.5332 28.6921 78.3229V190.851C28.6921 192.306 29.7844 192.894 31.1264 192.169Z" fill="black"/>
<path d="M30.7675 194.768C30.0767 195.046 29.3299 195.182 28.5779 195.167C27.8258 195.152 27.086 194.986 26.4086 194.68C25.7293 194.25 25.1683 193.676 24.7715 193.005C24.3746 192.334 24.1531 191.584 24.1251 190.817V181.71L28.6921 184.181V193.284C28.6921 194.607 29.592 195.196 30.7675 194.768Z" fill="#00A1CD"/>
<path opacity="0.5" d="M30.7675 194.768C30.0767 195.046 29.3299 195.182 28.5779 195.167C27.8258 195.152 27.086 194.986 26.4086 194.68C25.7293 194.25 25.1683 193.676 24.7715 193.005C24.3746 192.334 24.1531 191.584 24.1251 190.817V181.71L28.6921 184.181V193.284C28.6921 194.607 29.592 195.196 30.7675 194.768Z" fill="black"/>
<path d="M28.6921 184.181V193.279C28.6921 194.738 29.7844 195.322 31.1264 194.592L163.247 123.247C163.956 122.814 164.546 122.232 164.969 121.546C165.392 120.861 165.636 120.091 165.682 119.301V110.184L28.6921 184.181Z" fill="#00A1CD"/>
<path opacity="0.3" d="M28.6921 184.162V193.279C28.6921 194.738 29.7844 195.322 31.1264 194.592L163.247 123.247C163.956 122.814 164.546 122.232 164.969 121.546C165.392 120.861 165.636 120.091 165.682 119.301V110.184L28.6921 184.162Z" fill="black"/>
<path d="M33.2591 172.758V79.7437C33.2871 79.2692 33.434 78.8076 33.6879 78.3961C33.9418 77.9845 34.2956 77.6345 34.7208 77.3744L159.664 9.90619C160.47 9.4732 161.125 9.82349 161.125 10.6943V103.733C161.097 104.207 160.95 104.668 160.696 105.079C160.442 105.489 160.089 105.838 159.664 106.098L34.7208 173.551C33.9145 173.984 33.2591 173.629 33.2591 172.758Z" fill="#00A1CD"/>
<path d="M33.2591 172.758V79.7437C33.2871 79.2692 33.434 78.8076 33.6879 78.3961C33.9418 77.9845 34.2956 77.6345 34.7208 77.3744L159.664 9.90619C160.47 9.4732 161.125 9.82349 161.125 10.6943V103.733C161.097 104.207 160.95 104.668 160.696 105.079C160.442 105.489 160.089 105.838 159.664 106.098L34.7208 173.551C33.9145 173.984 33.2591 173.629 33.2591 172.758Z" fill="#263238"/>
<path opacity="0.7" d="M29.4099 76.0706C28.9774 76.7553 28.7309 77.5287 28.6921 78.3231V184.181L24.1251 181.71V75.8614C24.1565 75.068 24.4016 74.2949 24.8377 73.6138L29.4099 76.0706Z" fill="black"/>
<path opacity="0.3" d="M165.671 3.97063C165.5 2.79816 164.485 2.3749 163.258 3.03168L31.1368 74.3822C30.4174 74.7993 29.8245 75.3823 29.4151 76.0752L24.8481 73.6087C25.2605 72.9177 25.8527 72.3354 26.5698 71.9156L158.696 0.594302C159.42 0.23366 160.224 0.038177 161.044 0.0238037C161.864 0.00943035 162.676 0.176574 163.414 0.511596C164.032 0.904859 164.552 1.41682 164.942 2.01331C165.331 2.60979 165.58 3.27708 165.671 3.97063V3.97063Z" fill="black"/>
<path d="M45.8106 181.612C45.5211 181.772 45.1945 181.864 44.8587 181.88C44.38 181.939 43.8936 181.859 43.4647 181.651C43.1244 181.434 42.8442 181.144 42.647 180.806C42.4499 180.468 42.3415 180.091 42.3307 179.705V92.8159L44.6143 94.0468V180.956C44.6143 181.471 44.8899 181.768 45.2853 181.768C45.4707 181.754 45.6503 181.701 45.8106 181.612V181.612Z" fill="#F0F0F0"/>
<path d="M171.393 112.49C171.368 112.88 171.245 113.26 171.035 113.598C170.824 113.936 170.532 114.223 170.181 114.436L45.8106 181.612C45.1448 181.972 44.6038 181.68 44.6038 180.956V86.7053L47.9381 84.9052C48.6039 84.5452 49.691 79.0672 50.362 78.6829L79.283 63.0661C79.954 62.7061 81.5301 66.7684 82.1959 66.4035L171.393 18.2397V112.49Z" fill="#FAFAFA"/>
<path d="M170.831 19.13V112.49C170.808 112.791 170.712 113.083 170.551 113.344C170.39 113.605 170.167 113.829 169.9 113.998L45.5297 181.16C45.4528 181.205 45.3655 181.234 45.2748 181.242C45.1604 181.242 45.1604 180.97 45.1604 180.955V87.002L48.2189 85.3479C48.7027 85.0852 49.0044 84.2046 49.6858 81.9424C49.929 80.9729 50.2632 80.0254 50.6845 79.1109L79.3454 63.6353C79.6853 64.0654 79.9896 64.5192 80.2557 64.9926C81.0359 66.277 81.4729 66.9386 82.1075 66.9386C82.2378 66.9386 82.3656 66.905 82.4768 66.8413L170.831 19.13ZM171.393 18.2251L82.1959 66.3889C82.1692 66.4042 82.1387 66.4125 82.1075 66.4132C81.4312 66.4132 80.0268 63.0077 79.3714 63.0077C79.3424 63.0005 79.3119 63.0005 79.283 63.0077L50.362 78.6244C49.691 78.9893 48.6039 84.4625 47.9381 84.8468L44.6038 86.7052V180.955C44.6038 181.471 44.8743 181.768 45.2748 181.768C45.4599 181.76 45.6395 181.707 45.795 181.612L170.181 114.436C170.532 114.223 170.824 113.936 171.035 113.598C171.245 113.26 171.368 112.88 171.393 112.49V18.2251Z" fill="#E0E0E0"/>
<path d="M43.4647 90.1836C43.1235 89.967 42.8422 89.6775 42.6441 89.3391C42.4461 89.0008 42.3369 88.6232 42.3256 88.2376V79.4076C42.3494 79.0185 42.47 78.6401 42.6777 78.3022C42.8854 77.9644 43.1745 77.6766 43.5219 77.4616L167.893 10.3242C168.242 10.1167 168.647 10.0029 169.061 9.99506C169.475 9.98723 169.884 10.0857 170.242 10.2797C170.601 10.4737 170.896 10.756 171.095 11.0957C171.294 11.4355 171.39 11.8198 171.372 12.2069V21.0272C171.348 21.4178 171.226 21.7976 171.015 22.1357C170.804 22.4737 170.512 22.7607 170.16 22.9732L45.8106 90.1447C45.4502 90.3226 45.0501 90.4189 44.6426 90.4256C44.2351 90.4324 43.8317 90.3495 43.4647 90.1836V90.1836Z" fill="#00A1CD"/>
<path opacity="0.4" d="M171.378 11.9832C171.294 11.3946 170.785 11.1805 170.181 11.4967L45.8106 78.6731C45.4557 78.8884 45.1613 79.1804 44.9524 79.5244L42.6793 78.2936C42.883 77.9558 43.1723 77.6701 43.5219 77.4617L167.893 10.3243C168.227 10.1245 168.613 10.011 169.01 9.9951C169.407 9.97921 169.801 10.0615 170.153 10.2338C170.505 10.406 170.802 10.6621 171.014 10.9761C171.227 11.2901 171.346 11.6509 171.362 12.0222L171.378 11.9832Z" fill="white"/>
<path opacity="0.1" d="M44.9524 79.5243C44.7361 79.8616 44.6161 80.2452 44.6039 80.6384V94.0707L42.3204 92.8399V79.4075C42.3178 79.3622 42.3178 79.3167 42.3204 79.2713C42.3297 79.1764 42.3453 79.0822 42.3672 78.9891C42.4323 78.7436 42.5338 78.5078 42.6689 78.2886L44.9524 79.5243Z" fill="black"/>
<path d="M171.388 12.1633V18.2252L82.1907 66.3889C81.5249 66.7538 80.9839 66.457 80.9839 65.737V63.4407C80.9839 62.7207 80.4637 62.4239 79.7667 62.7888L50.3568 78.6683C50.0064 78.8817 49.7143 79.1688 49.5039 79.5067C49.2934 79.8447 49.1705 80.224 49.1448 80.6143V82.9057C49.1184 83.2959 48.9951 83.6749 48.7847 84.0127C48.5743 84.3505 48.2827 84.6378 47.9329 84.8517L44.6038 86.7053V80.6386C44.6297 80.2489 44.7522 79.8701 44.9616 79.5324C45.1711 79.1946 45.4617 78.9071 45.8106 78.6926L170.181 11.5552C170.847 11.1465 171.388 11.4433 171.388 12.1633Z" fill="#00A1CD"/>
<path d="M165.708 15.9626C166.55 15.5102 167.232 15.8799 167.232 16.7897C167.203 17.2846 167.05 17.7662 166.785 18.1956C166.521 18.6249 166.151 18.9899 165.708 19.2611C164.865 19.7135 164.179 19.3438 164.179 18.434C164.208 17.9388 164.362 17.457 164.628 17.0277C164.894 16.5984 165.264 16.2335 165.708 15.9626V15.9626Z" fill="white"/>
<path d="M160.215 18.9255C161.058 18.4731 161.739 18.8379 161.739 19.7477C161.711 20.2428 161.558 20.7247 161.294 21.1542C161.029 21.5837 160.659 21.9486 160.215 22.2191C159.372 22.6764 158.691 22.3067 158.691 21.3969C158.72 20.902 158.873 20.4204 159.137 19.991C159.402 19.5617 159.771 19.1967 160.215 18.9255V18.9255Z" fill="white"/>
<path d="M154.722 21.8886C155.565 21.4313 156.246 21.801 156.246 22.7108C156.217 23.2057 156.064 23.6873 155.8 24.1167C155.535 24.546 155.166 24.9111 154.722 25.1822C153.879 25.6347 153.198 25.2698 153.198 24.36C153.226 23.8649 153.379 23.383 153.643 22.9535C153.908 22.524 154.278 22.1592 154.722 21.8886V21.8886Z" fill="white"/>
<path d="M171.393 18.2251V25.5956L44.6038 94.0709V86.7052L47.0954 85.3576C47.7612 84.9976 47.9849 84.4479 48.3022 83.4116L49.15 80.6677C49.4153 79.6947 49.6702 79.0671 50.362 78.7217L79.283 63.105C79.954 62.745 80.4794 62.7061 80.9891 63.4942L82.0294 65.2553C82.4091 65.8683 82.6016 66.2283 83.2674 65.8683L171.393 18.2251Z" fill="#E6E6E6"/>
<path d="M44.6039 86.6957V94.0711L42.3204 92.8403V85.4746L44.6039 86.6957Z" fill="#E0E0E0"/>
<path d="M50.1644 87.2307L48.2606 88.2573L48.9836 86.9534C49.0128 86.9043 49.0281 86.8491 49.0281 86.7929C49.0281 86.7367 49.0128 86.6815 48.9836 86.6323C48.9264 86.5691 48.8328 86.6323 48.7651 86.7296L47.7248 88.5832C47.7248 88.5832 47.7248 88.627 47.6988 88.6513C47.6728 88.6756 47.6988 88.6513 47.6988 88.6513C47.6963 88.6821 47.6963 88.713 47.6988 88.7438C47.6953 88.7712 47.6953 88.799 47.6988 88.8265C47.6988 88.8265 47.6988 88.8265 47.6988 88.8265C47.7063 88.8401 47.715 88.8531 47.7248 88.8654V88.8654L48.7651 89.6049C48.7799 89.6159 48.7983 89.6219 48.8172 89.6219C48.8361 89.6219 48.8544 89.6159 48.8692 89.6049C48.9224 89.5726 48.9627 89.5247 48.9836 89.4686C49.0408 89.347 49.0304 89.2108 48.9836 89.167L48.2606 88.6416L50.1644 87.6151C50.2127 87.5791 50.2514 87.5331 50.2776 87.4808C50.3038 87.4285 50.3167 87.3712 50.3152 87.3134C50.3152 87.2453 50.2476 87.1918 50.1644 87.2307Z" fill="#455A64"/>
<path d="M51.7509 86.3695L53.6547 85.343L52.9264 84.8224C52.8955 84.7766 52.879 84.7234 52.879 84.6692C52.879 84.6149 52.8955 84.5618 52.9264 84.5159C52.9785 84.3943 53.0773 84.3359 53.1397 84.3797L54.18 85.1241C54.1942 85.134 54.205 85.1475 54.2112 85.163C54.2112 85.163 54.2112 85.163 54.2112 85.163C54.2166 85.1903 54.2166 85.2184 54.2112 85.2457C54.2163 85.278 54.2163 85.3107 54.2112 85.343L54.18 85.416L53.1397 87.2744C53.1197 87.319 53.0851 87.3564 53.0409 87.3814C53.0254 87.3951 53.005 87.4028 52.9837 87.4028C52.9624 87.4028 52.9419 87.3951 52.9264 87.3814C52.8968 87.3334 52.8812 87.2788 52.8812 87.2233C52.8812 87.1678 52.8968 87.1133 52.9264 87.0652L53.6547 85.7614L51.7509 86.7879C51.6677 86.8317 51.6 86.7879 51.6 86.6517C51.6024 86.5973 51.6171 86.5441 51.6431 86.4955C51.6691 86.4468 51.7058 86.4039 51.7509 86.3695V86.3695Z" fill="#455A64"/>
<path d="M57.9928 81.2466C57.9928 81.1396 57.8836 81.1493 57.8316 81.2466L57.5715 81.845C57.1242 81.8012 56.5884 82.205 56.2243 82.925C55.7509 83.8591 55.7509 84.9635 56.2243 85.3867C56.3383 85.4863 56.4858 85.5456 56.6415 85.5545C56.7971 85.5634 56.9513 85.5213 57.0773 85.4354C57.4581 85.1955 57.7562 84.8575 57.9356 84.4624C57.9643 84.4149 57.9794 84.3613 57.9794 84.3067C57.9794 84.2521 57.9643 84.1985 57.9356 84.151C57.8732 84.0975 57.7796 84.151 57.7171 84.2678C57.3634 84.9635 56.7912 85.2748 56.4427 84.9586C56.0942 84.6424 56.089 83.8153 56.4427 83.1196C56.6924 82.6331 57.0513 82.3315 57.3634 82.312L57.171 82.7645C57.119 82.8812 57.171 82.9883 57.2438 82.9396L58.0188 82.4531C58.0507 82.4309 58.0757 82.4012 58.0913 82.367C58.1068 82.3328 58.1123 82.2954 58.1073 82.2585L57.9928 81.2466Z" fill="#455A64"/>
<path d="M78.4456 66.4231L79.1426 65.0512C79.1818 64.9858 79.2023 64.9121 79.2023 64.8371C79.2023 64.7622 79.1818 64.6885 79.1426 64.6231C79.0594 64.5501 78.9241 64.6231 78.8461 64.7836L78.1491 66.1556L77.4573 65.5328C77.374 65.4599 77.244 65.5328 77.1608 65.6934C77.119 65.758 77.0969 65.832 77.0969 65.9074C77.0969 65.9829 77.119 66.0569 77.1608 66.1215L77.8526 66.7588L77.1608 68.1308C77.119 68.1953 77.0969 68.2694 77.0969 68.3448C77.0969 68.4203 77.119 68.4943 77.1608 68.5589C77.1808 68.5756 77.2067 68.5849 77.2336 68.5849C77.2605 68.5849 77.2864 68.5756 77.3064 68.5589C77.3743 68.5181 77.427 68.4586 77.4573 68.3886L78.1491 67.0167L78.8461 67.6394C78.8661 67.6562 78.892 67.6654 78.9189 67.6654C78.9458 67.6654 78.9717 67.6562 78.9917 67.6394C79.0596 67.5986 79.1123 67.5391 79.1426 67.4691C79.1818 67.4037 79.2023 67.33 79.2023 67.2551C79.2023 67.1801 79.1818 67.1064 79.1426 67.041L78.4456 66.4231Z" fill="#455A64"/>
<path d="M60.5208 82.9349V80.6386C60.546 80.2481 60.6688 79.8687 60.8793 79.5307C61.0898 79.1928 61.3821 78.9057 61.7328 78.6926L163.357 23.8199C164.028 23.455 164.569 23.7518 164.569 24.4718V26.7681C164.543 27.1585 164.421 27.538 164.21 27.8759C164 28.2139 163.707 28.501 163.357 28.7141L61.7276 83.5868C61.0618 83.9516 60.5208 83.6549 60.5208 82.9349Z" fill="#FAFAFA"/>
<path d="M161.708 28.9085C161.672 28.9141 161.635 28.9141 161.599 28.9085C161.531 28.8791 161.475 28.8287 161.442 28.7659C161.409 28.703 161.4 28.6315 161.417 28.5631L161.536 27.6339L161.068 27.3177C161.027 27.2877 160.995 27.2492 160.973 27.2052C160.951 27.1612 160.941 27.1131 160.943 27.0647C160.941 26.9891 160.958 26.9142 160.992 26.8458C161.027 26.7774 161.077 26.7174 161.141 26.6706L161.853 26.1549C161.868 26.1392 161.878 26.121 161.885 26.1014L162.202 25.1284C162.221 25.0483 162.266 24.9755 162.33 24.9191C162.394 24.8628 162.474 24.8256 162.561 24.8122C162.619 24.8059 162.679 24.8178 162.729 24.8459C162.78 24.874 162.819 24.9168 162.842 24.9678V24.9678L163.107 25.4981L163.71 25.2841C163.764 25.2617 163.824 25.2562 163.881 25.2685C163.939 25.2808 163.99 25.3101 164.028 25.3522C164.077 25.4195 164.104 25.4992 164.104 25.5808C164.104 25.6625 164.077 25.7422 164.028 25.8095L163.508 26.7144C163.505 26.7322 163.505 26.7501 163.508 26.7679L163.632 27.5852C163.642 27.66 163.633 27.7358 163.606 27.8067C163.579 27.8776 163.534 27.9417 163.476 27.9939C163.442 28.0314 163.399 28.0603 163.35 28.0782C163.301 28.096 163.248 28.1021 163.195 28.0961L162.639 28.0134L162.01 28.7626C161.976 28.8083 161.931 28.8456 161.878 28.871C161.826 28.8965 161.767 28.9094 161.708 28.9085V28.9085ZM161.365 27.0112L161.833 27.3274C161.881 27.3644 161.918 27.4126 161.94 27.4673C161.962 27.522 161.968 27.5812 161.958 27.6387L161.874 28.2615L162.296 27.775C162.332 27.727 162.38 27.6885 162.437 27.663C162.493 27.6374 162.556 27.6257 162.618 27.629L163.201 27.6971C163.205 27.6762 163.205 27.6548 163.201 27.6339L163.076 26.8166C163.066 26.7157 163.088 26.6143 163.138 26.5247L163.591 25.7317L163.159 25.8922C163.091 25.9186 163.014 25.9192 162.945 25.8937C162.876 25.8683 162.821 25.819 162.79 25.756L162.582 25.3376L162.296 26.2084C162.266 26.3064 162.204 26.3932 162.119 26.4565L161.406 26.943C161.386 26.9616 161.371 26.9852 161.365 27.0112V27.0112Z" fill="#E0E0E0"/>
<path d="M165.999 23.5376C165.906 23.5402 165.814 23.5133 165.739 23.4614C165.664 23.4094 165.61 23.3354 165.586 23.2512C165.561 23.167 165.567 23.0775 165.604 22.9971C165.64 22.9167 165.704 22.8501 165.786 22.8079L169.198 20.964C169.246 20.9346 169.3 20.9146 169.356 20.9054C169.413 20.8961 169.471 20.8977 169.526 20.91C169.582 20.9224 169.635 20.9453 169.681 20.9773C169.727 21.0093 169.765 21.0497 169.794 21.0961C169.823 21.1425 169.841 21.1939 169.848 21.2472C169.854 21.3004 169.849 21.3544 169.833 21.4058C169.817 21.4572 169.789 21.5049 169.753 21.5461C169.716 21.5872 169.671 21.6209 169.619 21.6451L166.207 23.4841C166.145 23.5204 166.073 23.539 165.999 23.5376Z" fill="#455A64"/>
<path d="M165.999 25.4058C165.925 25.4064 165.853 25.3887 165.789 25.3545C165.725 25.3203 165.672 25.2708 165.635 25.2112C165.58 25.1206 165.564 25.0133 165.593 24.9124C165.621 24.8114 165.69 24.7248 165.786 24.6711L169.198 22.8322C169.246 22.8059 169.299 22.7887 169.354 22.7816C169.409 22.7744 169.464 22.7775 169.518 22.7906C169.572 22.8037 169.622 22.8266 169.666 22.858C169.71 22.8893 169.748 22.9285 169.775 22.9733C169.803 23.0179 169.821 23.0672 169.828 23.1184C169.836 23.1696 169.832 23.2216 169.817 23.2714C169.803 23.3212 169.778 23.3678 169.744 23.4085C169.71 23.4492 169.668 23.4831 169.619 23.5084L166.207 25.3523C166.145 25.3885 166.073 25.4071 165.999 25.4058V25.4058Z" fill="#455A64"/>
<path d="M165.999 27.2255C165.906 27.2258 165.816 27.1974 165.742 27.1449C165.669 27.0923 165.616 27.0184 165.591 26.9347C165.567 26.851 165.573 26.7622 165.608 26.6819C165.643 26.6017 165.706 26.5345 165.786 26.4909L169.198 24.6471C169.296 24.5957 169.411 24.5822 169.519 24.6095C169.627 24.6368 169.719 24.7027 169.776 24.793C169.803 24.8376 169.821 24.887 169.828 24.9381C169.836 24.9893 169.832 25.0413 169.817 25.0911C169.803 25.1409 169.778 25.1875 169.744 25.2282C169.71 25.2689 169.668 25.3029 169.619 25.3282L166.207 27.172C166.144 27.206 166.072 27.2244 165.999 27.2255V27.2255Z" fill="#455A64"/>
<path d="M48.3438 96.1336C48.2505 96.1361 48.159 96.1093 48.084 96.0573C48.009 96.0054 47.9549 95.9314 47.9303 95.8472C47.9056 95.763 47.912 95.6735 47.9483 95.5931C47.9847 95.5127 48.0488 95.446 48.1305 95.4038L51.5428 93.56C51.6388 93.5146 51.7498 93.5052 51.853 93.5339C51.9562 93.5626 52.0437 93.6272 52.0976 93.7143C52.1515 93.8014 52.1677 93.9046 52.1429 94.0025C52.1181 94.1005 52.0541 94.1859 51.9641 94.2411L48.5518 96.0801C48.4891 96.1156 48.4171 96.1342 48.3438 96.1336V96.1336Z" fill="#455A64"/>
<path d="M48.3438 97.9772C48.2701 97.9778 48.1976 97.9601 48.1336 97.926C48.0696 97.8918 48.0165 97.8423 47.9797 97.7826C47.9516 97.7379 47.9332 97.6885 47.9256 97.6371C47.9179 97.5858 47.9212 97.5335 47.9353 97.4833C47.9493 97.4332 47.9737 97.3861 48.0072 97.3448C48.0407 97.3035 48.0826 97.2687 48.1305 97.2426L51.5428 95.4036C51.5902 95.3775 51.6426 95.3604 51.6971 95.3533C51.7517 95.3462 51.8071 95.3493 51.8603 95.3625C51.9136 95.3756 51.9635 95.3985 52.0072 95.4297C52.0509 95.461 52.0875 95.5001 52.1149 95.5447C52.143 95.5894 52.1614 95.6389 52.169 95.6902C52.1767 95.7416 52.1734 95.7938 52.1594 95.844C52.1453 95.8942 52.1209 95.9413 52.0874 95.9826C52.0539 96.0239 52.012 96.0586 51.9641 96.0847L48.5518 97.9237C48.4891 97.9592 48.4171 97.9778 48.3438 97.9772V97.9772Z" fill="#455A64"/>
<path d="M48.3438 99.8409C48.2511 99.8412 48.1609 99.8128 48.0871 99.7602C48.0134 99.7077 47.9602 99.6338 47.9359 99.5501C47.9116 99.4664 47.9175 99.3776 47.9527 99.2973C47.9879 99.2171 48.0504 99.1499 48.1305 99.1063L51.5428 97.2673C51.59 97.2405 51.6425 97.2228 51.6972 97.2154C51.7518 97.208 51.8075 97.211 51.861 97.2241C51.9144 97.2373 51.9644 97.2604 52.008 97.2921C52.0517 97.3237 52.0881 97.3633 52.115 97.4084C52.143 97.4527 52.1612 97.5018 52.1688 97.5528C52.1763 97.6038 52.173 97.6557 52.159 97.7054C52.145 97.7552 52.1205 97.8019 52.0871 97.8427C52.0536 97.8836 52.0118 97.9179 51.9641 97.9436L48.5519 99.7874C48.4882 99.8208 48.4168 99.8392 48.3438 99.8409V99.8409Z" fill="#455A64"/>
<path d="M78.6068 79.8941V82.7206C78.6068 83.2996 79.0438 83.5331 79.5795 83.2461L120.116 61.3243V56.3911L79.5847 78.3129C79.3 78.4858 79.0631 78.7191 78.8931 78.9939C78.7232 79.2686 78.6251 79.5771 78.6068 79.8941V79.8941Z" fill="#E6E6E6"/>
<path d="M125.224 53.6228C125.744 53.3309 126.196 53.5693 126.196 54.1483V56.9748C126.177 57.2905 126.08 57.5975 125.911 57.8713C125.742 58.1451 125.506 58.3779 125.224 58.5511L120.116 61.3096V56.391L125.224 53.6228Z" fill="#00A1CD"/>
<path d="M124.844 57.5152L124.277 57.3449C124.335 57.1202 124.364 56.89 124.365 56.6589C124.392 56.4433 124.358 56.2249 124.267 56.0253C124.175 55.8257 124.03 55.6517 123.845 55.5205C123.716 55.4564 123.572 55.4262 123.426 55.4331C123.28 55.4399 123.139 55.4836 123.018 55.5594C122.655 55.8197 122.363 56.1561 122.165 56.5415C121.968 56.9269 121.869 57.3504 121.879 57.7779C121.853 57.9935 121.887 58.2119 121.978 58.4115C122.069 58.6111 122.214 58.7851 122.399 58.9163C122.509 58.9742 122.632 59.0044 122.758 59.0039C122.924 59.0023 123.085 58.9586 123.226 58.8774C123.661 58.5989 123.985 58.1934 124.147 57.7244L124.719 57.8898C124.74 57.8945 124.761 57.8945 124.781 57.8898C124.835 57.8949 124.888 57.8807 124.93 57.8501C124.972 57.8195 125 57.7748 125.008 57.7254C125.016 57.676 125.004 57.6256 124.973 57.5847C124.943 57.5437 124.896 57.5153 124.844 57.5054V57.5152ZM123.018 58.5368C122.959 58.5768 122.89 58.6012 122.818 58.6072C122.745 58.6132 122.673 58.6006 122.607 58.5709C122.492 58.471 122.405 58.3469 122.351 58.209C122.298 58.0711 122.281 57.9234 122.3 57.7779C122.295 57.42 122.375 57.0656 122.535 56.7406C122.695 56.4156 122.932 56.1284 123.226 55.9C123.305 55.8556 123.394 55.8305 123.486 55.827C123.54 55.8255 123.592 55.8391 123.637 55.8659C123.752 55.9659 123.84 56.0899 123.893 56.2278C123.946 56.3657 123.964 56.5135 123.944 56.6589C123.949 57.016 123.868 57.3695 123.708 57.6936C123.548 58.0177 123.312 58.3041 123.018 58.532V58.5368Z" fill="#FAFAFA"/>
<path d="M61.7588 87.9359L55.907 91.0836C55.6241 91.2544 55.3886 91.4854 55.2195 91.7577C55.0504 92.0299 54.9527 92.3358 54.9343 92.6502V95.467C54.9343 96.0459 55.3712 96.2795 55.907 95.9924L61.7588 92.8253C62.041 92.6532 62.2758 92.4212 62.4439 92.1481C62.6121 91.875 62.7088 91.5686 62.7263 91.2539V88.4565C62.7263 87.8824 62.2945 87.644 61.7588 87.9359Z" fill="#00A1CD"/>
<path d="M163.528 32.9758C162.865 33.3809 162.314 33.9263 161.918 34.5678C161.522 35.2092 161.293 35.9288 161.25 36.6684C161.25 38.0306 162.29 38.5803 163.528 37.9041C164.193 37.4988 164.746 36.9528 165.142 36.3105C165.539 35.6681 165.768 34.9474 165.812 34.2067C165.812 32.8445 164.787 32.2947 163.528 32.9758Z" fill="#00A1CD"/>
<path d="M163.263 35.1357C163.192 35.1368 163.122 35.12 163.06 35.087C162.988 35.039 162.93 34.9745 162.891 34.8995C162.853 34.8246 162.836 34.7418 162.842 34.6589C162.851 34.4639 162.911 34.2738 163.015 34.1046C163.119 33.9354 163.265 33.7918 163.44 33.6859V33.6859C163.511 33.6333 163.597 33.6019 163.688 33.5958C163.778 33.5897 163.869 33.6092 163.947 33.6516C164.026 33.6941 164.089 33.7576 164.128 33.834C164.167 33.9104 164.181 33.9961 164.168 34.08C164.157 34.2752 164.097 34.4652 163.992 34.6344C163.887 34.8035 163.74 34.947 163.565 35.053C163.473 35.1036 163.369 35.132 163.263 35.1357V35.1357Z" fill="white"/>
<path d="M164.428 35.2868C164.302 35.2277 164.16 35.2019 164.019 35.2122C163.878 35.2225 163.742 35.2684 163.627 35.3452L163.294 35.5252C162.992 35.7044 162.74 35.9483 162.559 36.2369C162.378 36.5254 162.274 36.8502 162.254 37.1842V37.408C162.458 37.4903 162.681 37.522 162.901 37.4998C163.122 37.4777 163.332 37.4024 163.513 37.2815C164.038 36.9762 164.471 36.5509 164.772 36.0458V35.9923C164.786 35.8568 164.761 35.7203 164.701 35.5964C164.641 35.4726 164.547 35.3658 164.428 35.2868Z" fill="white"/>
<path d="M155.461 39.5728V38.8187C155.461 37.9625 154.904 37.5684 154.217 37.9382C153.838 38.1923 153.527 38.5264 153.31 38.9133C153.093 39.3003 152.976 39.7295 152.969 40.1664V40.8426C152.953 41.3072 152.807 41.7598 152.548 42.1561V42.1561C152.483 42.2598 152.448 42.3769 152.444 42.4967V42.4967C152.444 42.7156 152.584 42.8129 152.756 42.7205L155.674 41.1491C155.769 41.0839 155.847 40.999 155.901 40.9011C155.955 40.8032 155.984 40.6949 155.986 40.5847C155.989 40.5425 155.983 40.5001 155.967 40.4606C155.95 40.4211 155.925 40.3854 155.892 40.3561V40.3561C155.746 40.2801 155.626 40.1651 155.55 40.0257C155.473 39.8863 155.442 39.7287 155.461 39.5728Z" fill="#00A1CD"/>
<path d="M154.836 41.8496C154.833 42.0592 154.777 42.2651 154.673 42.4509C154.569 42.6368 154.42 42.7973 154.238 42.9199C153.905 43.0951 153.635 42.9199 153.635 42.4967L154.836 41.8496Z" fill="#00A1CD"/>
<path d="M144.704 43.1537C144.863 43.0654 145.04 43.0091 145.224 42.9883C145.368 42.9725 145.514 42.9997 145.64 43.0661C145.762 43.1361 145.859 43.2398 145.916 43.3629C145.983 43.5322 146.009 43.7132 145.994 43.8932C145.996 44.0569 145.976 44.2202 145.937 44.3797C145.899 44.5223 145.85 44.6621 145.791 44.7981C145.734 44.9261 145.67 45.0511 145.598 45.1727L145.39 45.5229C145.328 45.6348 145.266 45.7516 145.214 45.8635C145.164 45.9712 145.127 46.0838 145.104 46.1992C145.099 46.2543 145.085 46.3085 145.063 46.3597C145.045 46.3987 145.016 46.4324 144.979 46.457L144.392 46.7733C144.355 46.7733 144.324 46.7733 144.303 46.7733C144.288 46.7584 144.277 46.7407 144.27 46.7214C144.263 46.7022 144.26 46.6817 144.262 46.6614C144.261 46.5115 144.284 46.3623 144.329 46.2186C144.371 46.0776 144.423 45.9395 144.485 45.8051C144.553 45.6738 144.621 45.5424 144.699 45.4208C144.777 45.2991 144.839 45.1775 144.907 45.0705C144.974 44.9635 145.021 44.8516 145.068 44.7494C145.107 44.658 145.128 44.5608 145.13 44.4624C145.13 44.3261 145.094 44.2386 145.026 44.2045C144.959 44.1705 144.844 44.2045 144.699 44.2629C144.574 44.3242 144.468 44.4147 144.392 44.5256C144.334 44.613 144.287 44.706 144.251 44.8029L144.178 45.0462C144.162 45.1121 144.119 45.1696 144.059 45.2067L143.471 45.5229C143.46 45.5301 143.448 45.5339 143.435 45.5339C143.421 45.5339 143.409 45.5301 143.398 45.5229C143.386 45.5095 143.377 45.4939 143.372 45.4772C143.367 45.4605 143.365 45.443 143.367 45.4256C143.374 45.2363 143.406 45.0485 143.461 44.8662C143.527 44.65 143.614 44.44 143.721 44.2386C143.834 44.0262 143.974 43.827 144.137 43.645C144.293 43.4506 144.485 43.2841 144.704 43.1537ZM145.12 47.649C145.12 47.7011 145.107 47.7526 145.083 47.7998C145.064 47.8417 145.031 47.8772 144.99 47.9019L144.386 48.2279C144.381 48.2333 144.374 48.2377 144.366 48.2406C144.359 48.2436 144.35 48.2451 144.342 48.2451C144.334 48.2451 144.326 48.2436 144.318 48.2406C144.311 48.2377 144.304 48.2333 144.298 48.2279C144.283 48.213 144.272 48.1953 144.265 48.1761C144.257 48.1568 144.255 48.1363 144.256 48.116V47.4203C144.258 47.3677 144.272 47.3161 144.298 47.2695C144.314 47.2258 144.345 47.1883 144.386 47.1625L144.99 46.8365C145.003 46.8262 145.02 46.8206 145.037 46.8206C145.054 46.8206 145.07 46.8262 145.083 46.8365C145.097 46.8509 145.108 46.8679 145.114 46.8863C145.12 46.9048 145.122 46.9243 145.12 46.9435V47.649Z" fill="#00A1CD"/>
<path d="M134.696 61.4654V71.1371C134.696 71.8619 135.216 72.1539 135.908 71.7938L149.401 64.4963C149.751 64.2829 150.043 63.9957 150.254 63.6578C150.464 63.3199 150.587 62.9406 150.613 62.5503V52.8932C150.613 52.1732 150.093 51.8764 149.401 52.2413L135.877 59.5388C135.535 59.7535 135.25 60.0389 135.046 60.3731C134.841 60.7072 134.721 61.081 134.696 61.4654Z" fill="#00A1CD"/>
<path opacity="0.5" d="M134.696 61.4654V71.1371C134.696 71.8619 135.216 72.1539 135.908 71.7938L149.401 64.4963C149.751 64.2829 150.043 63.9957 150.254 63.6578C150.464 63.3199 150.587 62.9406 150.613 62.5503V52.8932C150.613 52.1732 150.093 51.8764 149.401 52.2413L135.877 59.5388C135.535 59.7535 135.25 60.0389 135.046 60.3731C134.841 60.7072 134.721 61.081 134.696 61.4654Z" fill="white"/>
<path d="M140.464 65.5229V61.2952C140.468 61.0845 140.557 60.8829 140.713 60.7312C140.87 60.5795 141.082 60.489 141.307 60.4779L145.432 60.3076C145.895 60.3076 146.015 60.5363 145.708 60.8574L141.026 65.7224C140.719 66.0435 140.464 65.9559 140.464 65.5229Z" fill="#FAFAFA"/>
<path d="M154.493 50.1687L165.417 44.2577C165.718 44.0971 165.963 44.2139 165.963 44.5155C165.949 44.6862 165.892 44.8514 165.798 44.9976C165.703 45.1439 165.572 45.2671 165.417 45.3572L154.493 51.2682C154.191 51.4287 153.973 51.312 153.973 51.0103C153.983 50.8418 154.036 50.6778 154.126 50.5317C154.216 50.3855 154.342 50.2612 154.493 50.1687V50.1687Z" fill="#455A64"/>
<path d="M154.493 52.363L165.417 46.4569C165.718 46.2963 165.963 46.4082 165.963 46.7147C165.949 46.8854 165.892 47.0506 165.798 47.1968C165.703 47.3431 165.572 47.4663 165.417 47.5564L154.493 53.4625C154.191 53.6279 153.973 53.5112 153.973 53.2095C153.983 53.0403 154.036 52.8757 154.126 52.7287C154.216 52.5818 154.342 52.4566 154.493 52.363V52.363Z" fill="#455A64"/>
<path d="M154.493 54.4988L165.417 48.5878C165.718 48.4272 165.963 48.544 165.963 48.8456C165.949 49.0162 165.892 49.1814 165.798 49.3277C165.703 49.474 165.572 49.5972 165.417 49.6873L154.493 55.5934C154.191 55.7588 153.973 55.642 153.973 55.3404C153.983 55.1718 154.035 55.0077 154.126 54.8615C154.216 54.7152 154.342 54.591 154.493 54.4988Z" fill="#455A64"/>
<path d="M154.316 57.549L161.827 53.4916C162.03 53.3797 162.197 53.4624 162.197 53.6667C162.187 53.7834 162.149 53.8964 162.085 53.9969C162.021 54.0974 161.933 54.1825 161.827 54.2456L154.316 58.3031C154.113 58.4101 153.947 58.3323 153.947 58.1231C153.956 58.007 153.995 57.8947 154.059 57.795C154.123 57.6953 154.211 57.611 154.316 57.549V57.549Z" fill="#E0E0E0"/>
<path d="M154.316 59.0573L161.827 54.9999C162.03 54.888 162.197 54.9707 162.197 55.175C162.187 55.2917 162.149 55.4047 162.085 55.5052C162.021 55.6057 161.933 55.6908 161.827 55.7539L154.316 59.8114C154.113 59.9184 153.947 59.8406 153.947 59.6314C153.956 59.5153 153.995 59.403 154.059 59.3033C154.123 59.2036 154.211 59.1193 154.316 59.0573V59.0573Z" fill="#E0E0E0"/>
<path d="M154.316 60.5168L161.827 56.4642C162.03 56.3523 162.197 56.4301 162.197 56.6393C162.187 56.756 162.149 56.8691 162.085 56.9695C162.021 57.07 161.933 57.1552 161.827 57.2183L154.316 61.2708C154.113 61.3827 153.947 61.3049 153.947 61.0957C153.956 60.979 153.994 60.866 154.059 60.7655C154.123 60.665 154.211 60.5798 154.316 60.5168V60.5168Z" fill="#E0E0E0"/>
<path d="M134.696 78.6633V88.3252C134.696 89.0501 135.216 89.342 135.908 88.982L149.401 81.6845C149.751 81.471 150.043 81.1839 150.254 80.846C150.464 80.5081 150.587 80.1288 150.613 79.7384V70.0814C150.613 69.3565 150.093 69.0646 149.401 69.4246L135.877 76.7221C135.532 76.938 135.247 77.2257 135.042 77.5626C134.837 77.8994 134.718 78.2763 134.696 78.6633V78.6633Z" fill="#00A1CD"/>
<path opacity="0.5" d="M134.696 78.6633V88.3252C134.696 89.0501 135.216 89.342 135.908 88.982L149.401 81.6845C149.751 81.471 150.043 81.1839 150.254 80.846C150.464 80.5081 150.587 80.1288 150.613 79.7384V70.0814C150.613 69.3565 150.093 69.0646 149.401 69.4246L135.877 76.7221C135.532 76.938 135.247 77.2257 135.042 77.5626C134.837 77.8994 134.718 78.2763 134.696 78.6633V78.6633Z" fill="white"/>
<path d="M140.464 82.7158V78.493C140.467 78.2819 140.555 78.0797 140.712 77.9277C140.869 77.7757 141.082 77.6856 141.307 77.6757L145.432 77.5054C145.895 77.5054 146.015 77.734 145.708 78.0551L141.026 82.9202C140.719 83.2412 140.464 83.1537 140.464 82.7158Z" fill="#FAFAFA"/>
<path d="M154.493 67.362L165.417 61.4559C165.718 61.2954 165.963 61.4072 165.963 61.7137C165.949 61.8844 165.892 62.0496 165.798 62.1959C165.703 62.3421 165.572 62.4653 165.417 62.5554L154.493 68.4615C154.191 68.6269 153.973 68.5102 153.973 68.2086C153.983 68.0393 154.036 67.8747 154.126 67.7278C154.216 67.5808 154.342 67.4556 154.493 67.362V67.362Z" fill="#455A64"/>
<path d="M154.493 69.5608L165.417 63.6546C165.718 63.4941 165.963 63.606 165.963 63.9125C165.948 64.0829 165.891 64.2478 165.796 64.394C165.702 64.5401 165.572 64.6635 165.417 64.7541L154.493 70.6603C154.191 70.8208 153.973 70.7089 153.973 70.4024C153.983 70.2339 154.036 70.0699 154.126 69.9238C154.216 69.7776 154.342 69.6533 154.493 69.5608V69.5608Z" fill="#455A64"/>
<path d="M154.493 71.6916L165.417 65.7855C165.718 65.6249 165.963 65.7368 165.963 66.0433C165.949 66.214 165.892 66.3792 165.798 66.5254C165.703 66.6717 165.572 66.7949 165.417 66.885L154.493 72.7911C154.191 72.9517 153.973 72.8398 153.973 72.5333C153.984 72.3649 154.037 72.2013 154.127 72.0552C154.217 71.9092 154.343 71.7847 154.493 71.6916V71.6916Z" fill="#455A64"/>
<path d="M154.316 74.7423L161.827 70.6898C162.03 70.5779 162.197 70.6557 162.197 70.8649C162.187 70.9816 162.149 71.0946 162.085 71.1951C162.021 71.2956 161.933 71.3808 161.827 71.4439L154.316 75.5159C154.113 75.6278 153.947 75.5499 153.947 75.3407C153.953 75.2207 153.99 75.1037 154.054 74.9997C154.118 74.8956 154.208 74.8073 154.316 74.7423Z" fill="#E0E0E0"/>
<path d="M154.316 76.2502L161.827 72.1976C162.03 72.0857 162.197 72.1635 162.197 72.3727C162.187 72.4894 162.149 72.6025 162.085 72.703C162.021 72.8034 161.933 72.8886 161.827 72.9517L154.316 77.0042C154.113 77.1161 153.947 77.0383 153.947 76.8291C153.956 76.7124 153.994 76.5994 154.059 76.4989C154.123 76.3984 154.211 76.3132 154.316 76.2502V76.2502Z" fill="#E0E0E0"/>
<path d="M154.316 77.7145L161.827 73.6619C162.03 73.55 162.197 73.6279 162.197 73.8371C162.187 73.9538 162.149 74.0668 162.085 74.1673C162.021 74.2678 161.933 74.3529 161.827 74.416L154.316 78.4686C154.113 78.5805 153.947 78.5026 153.947 78.2934C153.956 78.1768 153.994 78.0637 154.059 77.9632C154.123 77.8627 154.211 77.7776 154.316 77.7145V77.7145Z" fill="#E0E0E0"/>
<path d="M134.696 95.8467V105.509C134.696 106.234 135.216 106.525 135.908 106.165L149.401 98.8679C149.751 98.6545 150.043 98.3673 150.254 98.0294C150.464 97.6915 150.587 97.3122 150.613 96.9219V87.2648C150.613 86.5448 150.093 86.248 149.401 86.6129L135.877 93.9104C135.533 94.126 135.248 94.413 135.043 94.749C134.838 95.0849 134.719 95.4606 134.696 95.8467V95.8467Z" fill="#00A1CD"/>
<path opacity="0.5" d="M134.696 95.8467V105.509C134.696 106.234 135.216 106.525 135.908 106.165L149.401 98.8679C149.751 98.6545 150.043 98.3673 150.254 98.0294C150.464 97.6915 150.587 97.3122 150.613 96.9219V87.2648C150.613 86.5448 150.093 86.248 149.401 86.6129L135.877 93.9104C135.533 94.126 135.248 94.413 135.043 94.749C134.838 95.0849 134.719 95.4606 134.696 95.8467V95.8467Z" fill="white"/>
<path d="M140.464 99.9043V95.6766C140.468 95.4658 140.557 95.2643 140.713 95.1125C140.87 94.9608 141.082 94.8703 141.307 94.8592L145.432 94.689C145.895 94.689 146.015 94.9176 145.708 95.2387L141.026 100.104C140.719 100.425 140.464 100.328 140.464 99.9043Z" fill="#FAFAFA"/>
<path d="M154.493 84.55L165.417 78.639C165.718 78.4785 165.963 78.5952 165.963 78.8969C165.949 79.0675 165.892 79.2327 165.798 79.379C165.703 79.5253 165.572 79.6485 165.417 79.7385L154.493 85.6495C154.191 85.8101 153.973 85.6933 153.973 85.3917C153.983 85.223 154.035 85.059 154.126 84.9127C154.216 84.7665 154.342 84.6423 154.493 84.55V84.55Z" fill="#455A64"/>
<path d="M154.493 86.7444L165.417 80.8382C165.718 80.6777 165.963 80.7896 165.963 81.0961C165.949 81.2667 165.892 81.4319 165.798 81.5782C165.703 81.7244 165.572 81.8476 165.417 81.9377L154.493 87.8439C154.191 88.0093 153.973 87.8925 153.973 87.5909C153.983 87.4217 154.036 87.257 154.126 87.1101C154.216 86.9631 154.342 86.8379 154.493 86.7444V86.7444Z" fill="#455A64"/>
<path d="M154.493 88.8801L165.417 82.9691C165.718 82.8086 165.963 82.9253 165.963 83.227C165.949 83.3976 165.892 83.5628 165.798 83.7091C165.703 83.8553 165.572 83.9785 165.417 84.0686L154.493 89.9747C154.191 90.1402 153.973 90.0234 153.973 89.7218C153.983 89.5531 154.035 89.389 154.126 89.2428C154.216 89.0966 154.342 88.9723 154.493 88.8801Z" fill="#455A64"/>
<path d="M154.316 91.9303L161.827 87.8729C162.03 87.761 162.197 87.8437 162.197 88.048C162.187 88.1647 162.149 88.2778 162.085 88.3783C162.021 88.4787 161.933 88.5639 161.827 88.627L154.316 92.6844C154.113 92.7914 153.947 92.7136 153.947 92.5044C153.956 92.3884 153.995 92.276 154.059 92.1763C154.123 92.0766 154.211 91.9924 154.316 91.9303V91.9303Z" fill="#E0E0E0"/>
<path d="M154.316 93.4386L161.827 89.3812C162.03 89.2693 162.197 89.352 162.197 89.5563C162.187 89.673 162.149 89.7861 162.085 89.8866C162.021 89.987 161.933 90.0722 161.827 90.1353L154.316 94.1927C154.113 94.2997 153.947 94.2219 153.947 94.0127C153.956 93.8967 153.995 93.7843 154.059 93.6846C154.123 93.5849 154.211 93.5007 154.316 93.4386V93.4386Z" fill="#E0E0E0"/>
<path d="M154.316 94.8981L161.827 90.8455C162.03 90.7336 162.197 90.8115 162.197 91.0207C162.187 91.1374 162.149 91.2504 162.085 91.3509C162.021 91.4514 161.933 91.5365 161.827 91.5996L154.316 95.6522C154.113 95.7641 153.947 95.6862 153.947 95.477C153.956 95.3604 153.994 95.2473 154.059 95.1468C154.123 95.0463 154.211 94.9612 154.316 94.8981V94.8981Z" fill="#E0E0E0"/>
<path d="M134.696 113.044V122.706C134.696 123.426 135.216 123.718 135.908 123.358L149.401 116.061C149.751 115.847 150.044 115.56 150.254 115.222C150.465 114.884 150.588 114.505 150.613 114.115V104.457C150.613 103.737 150.093 103.446 149.401 103.806L135.877 111.103C135.532 111.319 135.247 111.607 135.042 111.944C134.837 112.28 134.718 112.657 134.696 113.044V113.044Z" fill="#00A1CD"/>
<path opacity="0.5" d="M134.696 113.044V122.706C134.696 123.426 135.216 123.718 135.908 123.358L149.401 116.061C149.751 115.847 150.044 115.56 150.254 115.222C150.465 114.884 150.588 114.505 150.613 114.115V104.457C150.613 103.737 150.093 103.446 149.401 103.806L135.877 111.103C135.532 111.319 135.247 111.607 135.042 111.944C134.837 112.28 134.718 112.657 134.696 113.044V113.044Z" fill="white"/>
<path d="M140.464 117.102V112.879C140.467 112.668 140.555 112.465 140.712 112.312C140.868 112.159 141.081 112.068 141.307 112.057L145.432 111.892C145.895 111.892 146.015 112.115 145.708 112.441L141.026 117.306C140.719 117.627 140.464 117.535 140.464 117.102Z" fill="#FAFAFA"/>
<path d="M154.493 101.748L165.417 95.842C165.718 95.6766 165.963 95.7933 165.963 96.095C165.949 96.2657 165.893 96.431 165.798 96.5774C165.703 96.7237 165.572 96.8468 165.417 96.9366L154.493 102.848C154.191 103.008 153.973 102.896 153.973 102.59C153.983 102.421 154.036 102.257 154.126 102.111C154.216 101.965 154.342 101.841 154.493 101.748V101.748Z" fill="#455A64"/>
<path d="M154.493 103.947L165.417 98.036C165.718 97.8755 165.963 97.9922 165.963 98.2939C165.949 98.4645 165.892 98.6297 165.798 98.776C165.703 98.9222 165.572 99.0454 165.417 99.1355L154.493 105.047C154.191 105.207 153.973 105.09 153.973 104.789C153.983 104.62 154.036 104.456 154.126 104.31C154.216 104.164 154.342 104.04 154.493 103.947V103.947Z" fill="#455A64"/>
<path d="M154.493 106.078L165.417 100.167C165.718 100.006 165.963 100.123 165.963 100.425C165.949 100.595 165.893 100.761 165.798 100.907C165.703 101.053 165.572 101.177 165.417 101.266L154.493 107.177C154.191 107.338 153.973 107.221 153.973 106.92C153.983 106.751 154.036 106.587 154.126 106.441C154.216 106.295 154.342 106.17 154.493 106.078V106.078Z" fill="#455A64"/>
<path d="M154.316 109.128L161.827 105.071C162.03 104.964 162.197 105.042 162.197 105.251C162.187 105.367 162.149 105.479 162.085 105.579C162.021 105.679 161.933 105.763 161.827 105.825L154.316 109.882C154.113 109.994 153.947 109.912 153.947 109.707C153.956 109.59 153.994 109.477 154.059 109.377C154.123 109.276 154.211 109.191 154.316 109.128V109.128Z" fill="#E0E0E0"/>
<path d="M154.316 110.637L161.827 106.579C162.03 106.472 162.197 106.55 162.197 106.759C162.187 106.875 162.149 106.988 162.085 107.087C162.021 107.187 161.933 107.271 161.827 107.333L154.316 111.391C154.113 111.503 153.947 111.42 153.947 111.215C153.956 111.099 153.994 110.986 154.059 110.885C154.123 110.785 154.211 110.7 154.316 110.637V110.637Z" fill="#E0E0E0"/>
<path d="M154.316 112.096L161.827 108.043C162.03 107.931 162.197 108.014 162.197 108.218C162.187 108.335 162.149 108.448 162.085 108.549C162.021 108.649 161.933 108.734 161.827 108.797L154.316 112.85C154.113 112.962 153.947 112.884 153.947 112.675C153.956 112.558 153.994 112.445 154.059 112.345C154.123 112.244 154.211 112.159 154.316 112.096V112.096Z" fill="#E0E0E0"/>
<path d="M50.6949 159.554L91.486 137.525C92.1518 137.165 92.698 137.423 92.6928 138.1C92.6629 138.48 92.5376 138.849 92.3271 139.176C92.1165 139.503 91.8266 139.779 91.4808 139.982L50.6949 162.011C50.0291 162.371 49.483 162.113 49.483 161.437C49.5128 161.056 49.6381 160.687 49.8487 160.36C50.0592 160.033 50.3491 159.757 50.6949 159.554V159.554Z" fill="#455A64"/>
<path d="M50.1644 164.001L73.0515 151.658C73.4312 151.454 73.7329 151.595 73.7329 151.98C73.7153 152.193 73.6445 152.4 73.5262 152.583C73.4078 152.766 73.2453 152.921 73.0515 153.035L50.1904 165.378C49.8159 165.582 49.509 165.436 49.509 165.057C49.5237 164.845 49.5905 164.64 49.7042 164.457C49.8179 164.274 49.9754 164.118 50.1644 164.001V164.001Z" fill="#E0E0E0"/>
<path d="M59.0695 163.509L88.287 147.737C88.9528 147.372 89.499 147.63 89.499 148.311C89.4691 148.692 89.3438 149.061 89.1333 149.388C88.9227 149.715 88.6328 149.991 88.287 150.194L59.0695 165.966C58.3985 166.326 57.8575 166.073 57.8575 165.392C57.8874 165.011 58.0127 164.643 58.2232 164.316C58.4338 163.988 58.7237 163.712 59.0695 163.509V163.509Z" fill="#455A64"/>
<path d="M58.5338 167.951L69.8265 161.855C70.2062 161.651 70.5079 161.797 70.5079 162.176C70.4915 162.39 70.4212 162.597 70.3027 162.781C70.1843 162.964 70.0211 163.119 69.8265 163.232L58.5338 169.328C58.1592 169.527 57.8575 169.386 57.8575 169.007C57.8734 168.793 57.9429 168.587 58.0604 168.403C58.1779 168.22 58.3401 168.065 58.5338 167.951V167.951Z" fill="#E0E0E0"/>
<path d="M52.6404 166.312C51.7138 166.877 50.9426 167.638 50.3895 168.534C49.8364 169.43 49.5169 170.436 49.457 171.469C49.457 173.366 50.8822 174.14 52.6404 173.186C53.5675 172.621 54.3391 171.86 54.8923 170.964C55.4455 170.068 55.7646 169.062 55.8237 168.029C55.8237 166.132 54.3985 165.363 52.6404 166.312Z" fill="#00A1CD"/>
<path d="M52.271 169.338C52.1706 169.341 52.0713 169.318 51.9849 169.27C51.8812 169.206 51.7979 169.117 51.7438 169.012C51.6898 168.908 51.6671 168.792 51.678 168.676C51.6922 168.403 51.7761 168.138 51.9228 167.901C52.0694 167.665 52.2744 167.465 52.5207 167.319C52.6219 167.252 52.7408 167.211 52.8646 167.203C52.9883 167.194 53.1122 167.218 53.2229 167.27C53.3267 167.334 53.41 167.423 53.464 167.527C53.5181 167.632 53.5408 167.748 53.5298 167.864C53.5158 168.136 53.4325 168.401 53.2868 168.637C53.1412 168.873 52.9374 169.073 52.6924 169.221C52.565 169.293 52.4199 169.333 52.271 169.338V169.338Z" fill="white"/>
<path d="M53.9251 169.537C53.7474 169.455 53.549 169.419 53.3512 169.433C53.1533 169.448 52.9634 169.512 52.8016 169.62L52.3438 169.868C51.9237 170.119 51.5741 170.461 51.3243 170.865C51.0745 171.269 50.9318 171.723 50.9082 172.189V172.495C51.1923 172.611 51.5038 172.656 51.8121 172.626C52.1204 172.595 52.4148 172.49 52.6664 172.32C53.3991 171.895 54.0042 171.302 54.4245 170.598V170.525C54.4421 170.334 54.4052 170.141 54.3174 169.968C54.2297 169.794 54.0943 169.646 53.9251 169.537V169.537Z" fill="white"/>
<path d="M107.554 138.673L121.047 131.376C121.718 131.016 122.264 131.308 122.264 132.033V134.324C122.238 134.715 122.114 135.094 121.903 135.432C121.691 135.77 121.398 136.057 121.047 136.27L107.554 143.568C106.883 143.928 106.342 143.636 106.342 142.911V140.619C106.367 140.229 106.49 139.85 106.701 139.512C106.911 139.174 107.203 138.887 107.554 138.673V138.673Z" fill="#00A1CD"/>
<path opacity="0.7" d="M107.554 138.673L121.047 131.376C121.718 131.016 122.264 131.308 122.264 132.033V134.324C122.238 134.715 122.114 135.094 121.903 135.432C121.691 135.77 121.398 136.057 121.047 136.27L107.554 143.568C106.883 143.928 106.342 143.636 106.342 142.911V140.619C106.367 140.229 106.49 139.85 106.701 139.512C106.911 139.174 107.203 138.887 107.554 138.673V138.673Z" fill="white"/>
<path d="M127.195 130.383V129.629C127.195 128.773 126.639 128.374 125.947 128.749C125.567 129.003 125.256 129.337 125.04 129.724C124.823 130.111 124.706 130.54 124.698 130.977V131.653C124.684 132.117 124.54 132.57 124.282 132.967V132.967C124.22 133.073 124.186 133.191 124.183 133.312V133.312C124.183 133.531 124.324 133.628 124.495 133.536L127.408 131.96C127.505 131.897 127.584 131.813 127.639 131.716C127.694 131.618 127.724 131.51 127.726 131.4V131.4C127.73 131.358 127.724 131.315 127.707 131.276C127.691 131.236 127.665 131.2 127.632 131.172V131.172C127.485 131.095 127.365 130.979 127.287 130.839C127.21 130.699 127.178 130.54 127.195 130.383V130.383Z" fill="#455A64"/>
<path d="M126.545 132.655C126.543 132.865 126.487 133.072 126.383 133.258C126.279 133.444 126.13 133.604 125.947 133.726C125.619 133.906 125.349 133.726 125.349 133.302L126.545 132.655Z" fill="#455A64"/>
<path d="M102.722 134.076C102.695 134.252 102.598 134.412 102.451 134.524C102.48 134.592 102.494 134.664 102.493 134.738C102.481 134.843 102.443 134.945 102.381 135.035C102.32 135.124 102.237 135.199 102.139 135.253L100.552 136.114V134.168C100.552 134.134 100.989 133.239 101.026 133.103C101.047 132.873 101.047 132.642 101.026 132.412C101.065 132.343 101.128 132.288 101.204 132.257C101.281 132.225 101.366 132.218 101.447 132.237V132.237C101.491 132.257 101.524 132.292 101.541 132.334C101.587 132.432 101.62 132.535 101.64 132.641C101.66 132.826 101.648 133.014 101.603 133.195L102.565 132.675C102.592 132.656 102.623 132.645 102.656 132.64C102.688 132.636 102.722 132.64 102.753 132.651C102.785 132.673 102.812 132.702 102.829 132.736C102.846 132.77 102.854 132.808 102.852 132.845C102.845 132.987 102.79 133.123 102.695 133.234C102.695 133.234 102.888 133.181 102.888 133.419C102.883 133.504 102.859 133.587 102.819 133.663C102.779 133.739 102.723 133.807 102.654 133.862C102.654 133.862 102.722 133.896 102.722 134.076Z" fill="#00A1CD"/>
<path d="M100.324 135.988V136.401C100.322 136.43 100.313 136.459 100.298 136.484C100.282 136.509 100.261 136.531 100.235 136.547L99.715 136.825C99.686 136.832 99.6555 136.832 99.6265 136.825V134.596L100.043 134.373L100.292 134.236C100.299 134.265 100.299 134.295 100.292 134.324L100.324 135.988Z" fill="#00A1CD"/>
<path d="M113.978 126.482C113.979 126.452 113.971 126.423 113.956 126.397C113.941 126.371 113.919 126.349 113.893 126.333C113.866 126.318 113.835 126.309 113.804 126.308C113.772 126.306 113.741 126.313 113.712 126.326C113.738 126.242 113.752 126.156 113.754 126.068C113.754 125.903 113.608 125.82 113.4 125.932L111.814 126.788V128.734C111.987 128.907 112.147 129.09 112.292 129.284C112.313 129.516 112.313 129.748 112.292 129.98C112.292 130.053 112.547 129.946 112.714 129.698C112.751 129.636 112.783 129.57 112.807 129.503C112.85 129.368 112.881 129.229 112.901 129.09C112.926 128.916 112.915 128.739 112.87 128.569L113.827 128.053C113.907 128.011 113.972 127.949 114.014 127.873C114.073 127.784 114.107 127.682 114.113 127.577C114.113 127.397 114.009 127.358 113.957 127.353C114.015 127.303 114.062 127.243 114.095 127.176C114.129 127.11 114.147 127.037 114.149 126.964C114.149 126.827 114.061 126.725 113.915 126.774C113.96 126.682 113.981 126.582 113.978 126.482V126.482Z" fill="#00A1CD"/>
<path d="M111.585 127.158V126.749C111.585 126.696 111.543 126.671 111.491 126.7L110.971 126.973C110.937 126.996 110.906 127.022 110.878 127.051V129.279L111.299 129.055L111.543 128.919C111.558 128.883 111.567 128.845 111.569 128.807L111.585 127.158Z" fill="#00A1CD"/>
<path d="M126.228 120.225L124.48 119.739V120.605C123.788 120.88 123.192 121.33 122.758 121.904C121.796 123.246 122.493 124.015 122.815 124.069C122.815 124.069 122.295 123.743 122.867 122.779C123.257 122.247 123.824 121.85 124.48 121.651V122.624L126.228 120.225Z" fill="#00A1CD"/>
<path d="M105.281 131.021L107.403 129.878C108.074 129.513 108.615 129.771 108.615 130.452C108.585 130.833 108.46 131.201 108.249 131.528C108.039 131.856 107.749 132.132 107.403 132.335L105.281 133.478C104.61 133.843 104.069 133.585 104.069 132.904C104.099 132.523 104.224 132.154 104.434 131.827C104.645 131.5 104.935 131.224 105.281 131.021V131.021Z" fill="#E0E0E0"/>
<path d="M116.651 124.881L118.774 123.733C119.445 123.373 119.986 123.631 119.986 124.307C119.956 124.688 119.83 125.057 119.62 125.384C119.409 125.711 119.119 125.987 118.774 126.19L116.651 127.338C115.98 127.698 115.439 127.445 115.439 126.764C115.469 126.383 115.595 126.014 115.805 125.687C116.016 125.36 116.306 125.084 116.651 124.881Z" fill="#E0E0E0"/>
<path d="M52.8068 100.327L128.922 59.2276C129.593 58.8627 130.134 59.1595 130.134 59.8795V110.607C130.109 110.998 129.986 111.377 129.775 111.715C129.565 112.053 129.273 112.34 128.922 112.553L52.8068 153.672C52.141 154.037 51.5948 153.741 51.5948 153.021V102.273C51.6212 101.883 51.7445 101.504 51.9549 101.166C52.1653 100.829 52.457 100.541 52.8068 100.327V100.327Z" fill="#455A64"/>
<path opacity="0.3" d="M61.6027 145.616L117.468 115.574C117.827 115.38 118.123 115.521 118.123 115.886C118.106 116.091 118.038 116.29 117.925 116.467C117.811 116.643 117.654 116.792 117.468 116.903L61.6027 146.944C61.2386 147.139 60.9473 146.998 60.9473 146.633C60.9631 146.427 61.0308 146.228 61.1447 146.051C61.2586 145.874 61.4155 145.725 61.6027 145.616V145.616Z" fill="white"/>
<path d="M61.6027 145.616L111.97 118.542C112.334 118.348 112.625 118.489 112.625 118.853C112.61 119.059 112.542 119.259 112.428 119.435C112.314 119.612 112.157 119.761 111.97 119.87L61.6027 146.944C61.2386 147.139 60.9473 146.998 60.9473 146.633C60.9631 146.427 61.0308 146.228 61.1447 146.051C61.2586 145.874 61.4155 145.725 61.6027 145.616V145.616Z" fill="white"/>
<path d="M54.7678 149.381V150.685C54.7664 150.717 54.7567 150.749 54.7395 150.777C54.7223 150.805 54.6981 150.828 54.6689 150.846L54.3985 150.992C54.3887 150.998 54.377 151.002 54.365 151.003C54.3529 151.003 54.3409 151.001 54.3304 150.995C54.3199 150.989 54.3114 150.981 54.306 150.971C54.3005 150.961 54.2983 150.949 54.2996 150.938V149.634C54.3022 149.602 54.3124 149.571 54.3295 149.544C54.3466 149.516 54.3702 149.492 54.3985 149.474L54.6689 149.328C54.7262 149.299 54.7678 149.323 54.7678 149.381Z" fill="white"/>
<path d="M55.7041 148.875V150.179C55.7027 150.212 55.693 150.243 55.6758 150.271C55.6586 150.299 55.6344 150.323 55.6053 150.34L55.34 150.486C55.2828 150.515 55.236 150.486 55.236 150.432V149.128C55.2383 149.096 55.249 149.064 55.2671 149.036C55.2852 149.008 55.3102 148.985 55.34 148.968L55.6053 148.822C55.6625 148.793 55.7041 148.817 55.7041 148.875Z" fill="white"/>
<path d="M59.4284 146.905V148.209C59.4259 148.241 59.4157 148.272 59.3986 148.3C59.3815 148.327 59.3579 148.351 59.3296 148.369L59.21 148.438C59.1528 148.467 59.1111 148.438 59.1111 148.384V147.08C59.1125 147.048 59.1222 147.017 59.1394 146.989C59.1566 146.961 59.1808 146.937 59.21 146.92L59.3296 146.852C59.3394 146.845 59.351 146.841 59.3631 146.84C59.3752 146.84 59.3872 146.843 59.3977 146.848C59.4081 146.854 59.4166 146.862 59.4221 146.872C59.4275 146.882 59.4298 146.894 59.4284 146.905V146.905Z" fill="white"/>
<path d="M57.4622 147.917V149.196C57.4622 149.289 57.5142 149.308 57.5819 149.235L58.8406 147.878C58.9083 147.805 58.8771 147.747 58.7782 147.747H57.6443C57.596 147.747 57.5497 147.765 57.5155 147.796C57.4814 147.828 57.4622 147.872 57.4622 147.917V147.917Z" fill="white"/>
<path d="M124.667 111.921C124.624 111.921 124.583 111.905 124.553 111.877C124.523 111.848 124.506 111.81 124.506 111.77V111.342C124.506 111.316 124.513 111.291 124.527 111.269C124.54 111.247 124.56 111.228 124.584 111.215L125.328 110.816C125.345 110.806 125.365 110.799 125.385 110.796C125.406 110.794 125.427 110.795 125.447 110.8C125.467 110.805 125.485 110.814 125.502 110.826C125.518 110.838 125.531 110.853 125.541 110.87C125.56 110.904 125.565 110.943 125.555 110.98C125.544 111.017 125.519 111.049 125.484 111.069L124.823 111.425V111.77C124.823 111.809 124.807 111.847 124.778 111.875C124.749 111.903 124.709 111.919 124.667 111.921V111.921Z" fill="#FAFAFA"/>
<path d="M128.038 110.101C127.996 110.101 127.957 110.086 127.927 110.058C127.898 110.031 127.882 109.994 127.882 109.955V109.775L127.362 110.048C127.344 110.057 127.324 110.063 127.304 110.066C127.284 110.068 127.263 110.067 127.243 110.062C127.223 110.057 127.205 110.049 127.188 110.037C127.172 110.025 127.159 110.011 127.148 109.994C127.137 109.978 127.13 109.959 127.127 109.94C127.124 109.921 127.125 109.901 127.13 109.883C127.136 109.864 127.145 109.846 127.158 109.831C127.171 109.816 127.187 109.804 127.205 109.795L127.944 109.396C127.967 109.381 127.994 109.374 128.022 109.374C128.05 109.374 128.077 109.381 128.1 109.396C128.125 109.408 128.145 109.426 128.159 109.448C128.173 109.471 128.179 109.496 128.178 109.522V109.955C128.178 109.991 128.164 110.027 128.138 110.054C128.112 110.081 128.076 110.097 128.038 110.101V110.101Z" fill="#FAFAFA"/>
<path d="M124.667 113.881C124.641 113.887 124.615 113.887 124.589 113.881C124.565 113.869 124.544 113.85 124.53 113.828C124.515 113.806 124.507 113.781 124.506 113.755V113.322C124.513 113.287 124.532 113.255 124.561 113.233C124.59 113.21 124.627 113.198 124.665 113.198C124.702 113.198 124.739 113.21 124.768 113.233C124.797 113.255 124.816 113.287 124.823 113.322V113.463L125.343 113.19C125.379 113.172 125.422 113.168 125.461 113.178C125.501 113.187 125.535 113.211 125.557 113.244C125.576 113.278 125.581 113.319 125.571 113.356C125.56 113.394 125.535 113.427 125.499 113.448L124.761 113.847C124.733 113.865 124.701 113.877 124.667 113.881V113.881Z" fill="#FAFAFA"/>
<path d="M127.299 112.461C127.265 112.461 127.231 112.45 127.204 112.431C127.177 112.411 127.157 112.384 127.148 112.353C127.139 112.321 127.142 112.289 127.155 112.259C127.168 112.229 127.191 112.204 127.221 112.188L127.882 111.828V111.483C127.882 111.444 127.898 111.407 127.927 111.38C127.957 111.352 127.996 111.337 128.038 111.337C128.079 111.337 128.119 111.352 128.148 111.38C128.177 111.407 128.194 111.444 128.194 111.483V111.916C128.195 111.942 128.188 111.967 128.174 111.99C128.161 112.012 128.14 112.03 128.116 112.042L127.377 112.441C127.354 112.455 127.327 112.461 127.299 112.461V112.461Z" fill="#FAFAFA"/>
<path d="M122.971 113.502H122.945H122.644C122.637 113.502 122.63 113.502 122.624 113.5C122.618 113.498 122.612 113.495 122.607 113.491C122.602 113.487 122.598 113.482 122.596 113.476C122.593 113.47 122.592 113.464 122.592 113.458C122.594 113.414 122.594 113.37 122.592 113.327C122.592 113.278 122.592 113.229 122.592 113.185C122.591 113.155 122.602 113.126 122.623 113.103L122.956 112.723C122.963 112.711 122.966 112.698 122.966 112.684C122.966 112.671 122.963 112.657 122.956 112.645L122.8 112.315C122.8 112.315 122.768 112.315 122.753 112.315L122.394 112.621C122.382 112.629 122.367 112.633 122.352 112.633C122.337 112.633 122.323 112.629 122.311 112.621C122.266 112.585 122.215 112.557 122.16 112.538C122.148 112.534 122.137 112.526 122.131 112.515C122.124 112.505 122.121 112.492 122.123 112.48L122.233 111.994C122.233 111.994 122.233 111.969 122.233 111.959H122.202L121.848 111.994C121.832 111.996 121.818 112.001 121.805 112.01C121.793 112.018 121.782 112.029 121.775 112.042L121.583 112.529C121.568 112.562 121.54 112.588 121.504 112.602C121.43 112.634 121.358 112.673 121.291 112.718C121.26 112.718 121.229 112.718 121.213 112.718L121.036 112.465C121.036 112.465 120.995 112.465 120.969 112.465L120.584 112.845C120.562 112.868 120.551 112.897 120.553 112.928L120.662 113.268C120.671 113.293 120.671 113.321 120.662 113.346C120.599 113.443 120.537 113.536 120.485 113.638C120.466 113.666 120.436 113.687 120.402 113.696L120.074 113.769C120.057 113.772 120.041 113.779 120.027 113.79C120.014 113.8 120.003 113.813 119.996 113.828L119.83 114.348C119.828 114.354 119.828 114.36 119.829 114.366C119.831 114.372 119.833 114.378 119.837 114.382C119.841 114.387 119.847 114.391 119.852 114.393C119.858 114.396 119.865 114.397 119.871 114.397H120.173C120.187 114.397 120.2 114.402 120.21 114.411C120.219 114.42 120.225 114.433 120.225 114.446C120.215 114.534 120.215 114.624 120.225 114.713C120.225 114.743 120.214 114.772 120.194 114.796L119.856 115.18C119.849 115.192 119.845 115.205 119.845 115.219C119.845 115.233 119.849 115.246 119.856 115.258L120.017 115.589C120.017 115.589 120.043 115.589 120.058 115.589L120.417 115.282C120.428 115.274 120.442 115.269 120.456 115.269C120.471 115.269 120.484 115.274 120.495 115.282C120.541 115.318 120.592 115.347 120.646 115.37C120.659 115.373 120.67 115.381 120.677 115.392C120.684 115.403 120.686 115.416 120.683 115.428L120.573 115.915C120.573 115.915 120.573 115.939 120.573 115.949H120.605L120.958 115.915C120.975 115.914 120.991 115.909 121.004 115.9C121.018 115.892 121.029 115.88 121.036 115.866L121.224 115.38C121.241 115.35 121.269 115.326 121.302 115.311L121.411 115.253L121.52 115.195C121.52 115.195 121.583 115.17 121.593 115.195L121.775 115.453C121.784 115.457 121.794 115.46 121.804 115.46C121.814 115.46 121.823 115.457 121.832 115.453L122.217 115.073C122.228 115.063 122.237 115.051 122.243 115.038C122.248 115.024 122.25 115.01 122.248 114.995L122.139 114.655C122.13 114.628 122.13 114.599 122.139 114.572C122.205 114.48 122.264 114.384 122.316 114.285C122.335 114.257 122.365 114.236 122.399 114.227L122.732 114.154C122.763 114.154 122.8 114.12 122.805 114.095L122.971 113.57C122.981 113.57 122.99 113.566 122.997 113.56C123.004 113.553 123.008 113.545 123.008 113.536C123.008 113.527 123.004 113.518 122.997 113.512C122.99 113.505 122.981 113.502 122.971 113.502ZM121.208 114.776H121.078C121.007 114.776 120.937 114.756 120.878 114.718C120.819 114.681 120.773 114.629 120.745 114.567C120.719 114.513 120.703 114.456 120.698 114.397C120.696 114.364 120.696 114.332 120.698 114.3C120.718 113.95 120.871 113.618 121.13 113.365C121.208 113.287 121.297 113.22 121.395 113.166L121.484 113.122C121.562 113.089 121.647 113.072 121.733 113.074H121.775C121.836 113.081 121.894 113.104 121.943 113.14C121.991 113.176 122.029 113.224 122.051 113.278C122.106 113.491 122.1 113.714 122.033 113.924C121.967 114.134 121.842 114.324 121.671 114.475C121.551 114.615 121.391 114.72 121.208 114.776V114.776Z" fill="white"/>
<path d="M104.261 77.4131C105.905 76.5228 107.242 77.2428 107.242 79.0185C107.185 79.9853 106.885 80.9259 106.367 81.7643C105.85 82.6028 105.128 83.3154 104.261 83.8446C102.618 84.7349 101.281 84.0149 101.281 82.2343C101.337 81.2681 101.637 80.328 102.155 79.4903C102.672 78.6526 103.394 77.9409 104.261 77.4131V77.4131Z" fill="#00A1CD"/>
<path d="M105.492 85.3972C105.434 85.4292 105.384 85.4363 105.343 85.4188C105.308 85.3913 105.291 85.3444 105.291 85.2778V79.6889L103.837 81.7612C103.796 81.8234 103.752 81.8673 103.706 81.8929C103.653 81.9216 103.604 81.9155 103.557 81.8745L103.329 81.6696C103.3 81.639 103.285 81.6004 103.285 81.5538C103.285 81.474 103.315 81.3948 103.373 81.3163L105.282 78.5958C105.346 78.5141 105.422 78.4494 105.51 78.4015L105.956 78.1573C106.015 78.1254 106.061 78.1231 106.096 78.1505C106.137 78.1681 106.158 78.2102 106.158 78.2767V84.8038C106.158 84.8703 106.137 84.9381 106.096 85.007C106.061 85.0661 106.015 85.1116 105.956 85.1435L105.492 85.3972Z" fill="#455A64"/>
<path d="M110.935 75.1991L125.39 67.4151C125.791 67.201 126.108 67.3518 126.108 67.7556C126.091 67.9806 126.018 68.1987 125.893 68.3916C125.768 68.5846 125.596 68.7468 125.39 68.8649L110.935 76.6489C110.54 76.863 110.217 76.7122 110.217 76.3084C110.237 76.0842 110.313 75.8675 110.437 75.6751C110.562 75.4827 110.732 75.3198 110.935 75.1991Z" fill="#00A1CD"/>
<path d="M110.711 77.8071L120.631 72.4555C120.901 72.3096 121.125 72.4118 121.125 72.6891C121.114 72.844 121.063 72.9942 120.977 73.1271C120.891 73.26 120.772 73.3717 120.631 73.4529L110.711 78.8044C110.441 78.9503 110.217 78.8482 110.217 78.5709C110.228 78.4159 110.279 78.2657 110.365 78.1328C110.451 78 110.57 77.8883 110.711 77.8071Z" fill="#E0E0E0"/>
<path d="M104.261 87.0701C105.905 86.1847 107.242 86.9047 107.242 88.6804C107.185 89.6472 106.885 90.5878 106.367 91.4262C105.85 92.2646 105.128 92.9773 104.261 93.5065C102.618 94.392 101.281 93.6719 101.281 91.8962C101.338 90.9294 101.637 89.9888 102.155 89.1504C102.673 88.312 103.394 87.5993 104.261 87.0701V87.0701Z" fill="#00A1CD"/>
<path d="M103.706 96.0356C103.647 96.0676 103.598 96.0747 103.557 96.0571C103.522 96.0297 103.504 95.9827 103.504 95.9162V95.5968C103.504 95.4438 103.577 95.2575 103.723 95.038L105.58 91.9071C106.029 91.2355 106.339 90.7203 106.508 90.3616C106.677 89.9963 106.762 89.6639 106.762 89.3645C106.762 88.9786 106.665 88.7285 106.473 88.6143C106.286 88.4969 106.012 88.5371 105.65 88.735C105.311 88.9201 105.04 89.185 104.835 89.5296C104.631 89.8676 104.505 90.2389 104.459 90.6437C104.447 90.7299 104.418 90.8058 104.371 90.8712C104.33 90.9268 104.284 90.969 104.231 90.9977L103.776 91.2467C103.723 91.2754 103.679 91.2828 103.644 91.2686C103.609 91.2479 103.592 91.2109 103.592 91.1576C103.604 90.792 103.688 90.403 103.846 89.9908C104.003 89.572 104.234 89.1764 104.538 88.8042C104.847 88.4221 105.218 88.1129 105.65 87.8767C106.309 87.516 106.806 87.441 107.138 87.6516C107.477 87.8523 107.646 88.2521 107.646 88.8509C107.646 89.2701 107.553 89.7004 107.366 90.1419C107.185 90.5735 106.902 91.0876 106.517 91.6842L104.835 94.5497L107.567 93.0558C107.632 93.0207 107.681 93.0169 107.716 93.0443C107.757 93.0619 107.778 93.1039 107.778 93.1704V93.5796C107.778 93.6462 107.757 93.7139 107.716 93.7828C107.675 93.8451 107.626 93.8922 107.567 93.9241L103.706 96.0356Z" fill="#455A64"/>
<path d="M110.935 84.8565L125.39 77.0725C125.791 76.8584 126.108 77.0092 126.108 77.4081C126.091 77.6338 126.018 77.8525 125.893 78.0462C125.768 78.24 125.596 78.4031 125.39 78.5222L110.935 86.3112C110.54 86.5252 110.217 86.3744 110.217 85.9706C110.236 85.7456 110.311 85.5279 110.436 85.3346C110.56 85.1413 110.731 84.9777 110.935 84.8565Z" fill="#00A1CD"/>
<path d="M110.711 87.469L120.631 82.1175C120.901 81.9667 121.125 82.0737 121.125 82.3462C121.114 82.5011 121.063 82.6513 120.977 82.7842C120.891 82.9171 120.772 83.0288 120.631 83.11L110.711 88.4615C110.441 88.6075 110.217 88.5004 110.217 88.228C110.229 88.0739 110.28 87.9246 110.366 87.7927C110.452 87.6607 110.57 87.5498 110.711 87.469Z" fill="#E0E0E0"/>
<path d="M104.261 96.7318C105.905 95.8415 107.242 96.5615 107.242 98.3421C107.185 99.3083 106.886 100.248 106.368 101.086C105.85 101.924 105.128 102.635 104.261 103.163C102.618 104.054 101.281 103.334 101.281 101.558C101.338 100.591 101.637 99.6505 102.155 98.8121C102.673 97.9737 103.394 97.261 104.261 96.7318V96.7318Z" fill="#00A1CD"/>
<path d="M105.685 104.715C105.224 104.968 104.824 105.103 104.485 105.122C104.152 105.131 103.898 105.047 103.723 104.87C103.554 104.69 103.463 104.453 103.452 104.16C103.452 104.1 103.469 104.044 103.504 103.991C103.539 103.932 103.583 103.888 103.636 103.86L104.065 103.625C104.187 103.558 104.269 103.587 104.31 103.711C104.386 104.002 104.549 104.149 104.8 104.151C105.051 104.147 105.346 104.052 105.685 103.867C106.099 103.64 106.429 103.35 106.674 102.997C106.919 102.636 107.042 102.247 107.042 101.828C107.042 101.022 106.613 100.855 105.755 101.324L104.923 101.779C104.864 101.811 104.815 101.818 104.774 101.8C104.739 101.773 104.721 101.726 104.721 101.659V101.39C104.721 101.297 104.754 101.189 104.818 101.068L106.517 98.0229L103.933 99.4354C103.875 99.4673 103.825 99.4745 103.784 99.4569C103.749 99.4295 103.732 99.3825 103.732 99.316V98.9367C103.732 98.8702 103.749 98.804 103.784 98.7383C103.825 98.6694 103.875 98.619 103.933 98.5871L107.427 96.6766C107.492 96.6415 107.541 96.6377 107.576 96.6651C107.617 96.6827 107.637 96.728 107.637 96.8012V97.1605C107.637 97.2404 107.605 97.3344 107.541 97.4427L105.851 100.513L105.991 100.446C106.587 100.14 107.057 100.06 107.401 100.204C107.745 100.348 107.918 100.74 107.918 101.379C107.918 101.811 107.821 102.24 107.629 102.664C107.436 103.089 107.17 103.481 106.832 103.839C106.493 104.19 106.111 104.482 105.685 104.715Z" fill="#455A64"/>
<path d="M110.935 94.5184L125.39 86.7052C125.791 86.4911 126.108 86.6468 126.108 87.0457C126.091 87.2713 126.017 87.4898 125.892 87.6835C125.768 87.8771 125.595 88.0404 125.39 88.1598L110.935 95.973C110.54 96.1871 110.217 96.0314 110.217 95.6325C110.236 95.4075 110.311 95.1898 110.436 94.9965C110.56 94.8032 110.731 94.6395 110.935 94.5184V94.5184Z" fill="#00A1CD"/>
<path d="M110.711 97.1308L120.631 91.7793C120.901 91.6333 121.125 91.7404 121.125 92.0128C121.114 92.1678 121.063 92.318 120.977 92.4509C120.891 92.5837 120.772 92.6954 120.631 92.7766L110.711 98.1282C110.441 98.279 110.217 98.1719 110.217 97.8995C110.227 97.7437 110.278 97.5925 110.364 97.4587C110.45 97.3249 110.569 97.2125 110.711 97.1308V97.1308Z" fill="#E0E0E0"/>
<path d="M91.3768 109.63C87.8605 110.028 78.3987 110.345 78.3987 110.345C72.1568 107.781 67.2777 102.157 66.6587 95.8177L66.3882 93.0884C65.868 87.912 69.8473 83.081 75.1477 81.5242C76.7017 81.0519 78.3494 80.9129 79.9686 81.1176C81.5878 81.3223 83.137 81.8654 84.5011 82.7066C85.8652 83.5478 87.0093 84.6655 87.8484 85.9768C88.6875 87.2882 89.2001 88.7594 89.3481 90.2813C89.4782 91.624 89.8683 92.8111 91.0282 93.6868C91.6767 94.1208 92.3745 94.4862 93.1089 94.7766C94.1646 95.2098 95.1257 95.8217 95.9438 96.5815C96.3491 96.9642 96.6659 97.4209 96.8744 97.9231C97.0829 98.4253 97.1787 98.9622 97.1557 99.5005C97.0733 100.193 96.7829 100.849 96.3183 101.393C96.2299 101.472 96.1777 101.58 96.1726 101.695C96.1913 101.775 96.2326 101.849 96.2923 101.909C97.369 103.198 97.936 104.979 97.291 106.496C96.842 107.448 96.053 108.224 95.0595 108.691C94.0672 109.152 92.9973 109.45 91.8969 109.571L91.3768 109.63Z" fill="#263238"/>
<path d="M121.806 100.454C121.623 100.219 121.412 100.003 121.177 99.8119C120.766 99.4567 120.199 99.1308 119.674 99.3254C119.365 99.4678 119.111 99.6954 118.945 99.9773C118.612 100.435 118.217 100.858 117.905 101.33C117.478 102.019 116.985 102.67 116.433 103.276C116.199 103.538 115.861 103.899 115.46 103.787C115.389 103.768 115.324 103.731 115.273 103.68C115.23 103.625 115.201 103.562 115.19 103.495C115.141 103.17 115.16 102.839 115.247 102.522C115.331 102.202 115.331 101.868 115.247 101.549C115.199 101.392 115.099 101.254 114.96 101.156C114.821 101.057 114.651 101.004 114.477 101.004C114.38 101.009 114.289 101.049 114.222 101.116C114.177 101.162 114.141 101.217 114.118 101.276C113.438 102.536 112.943 103.877 112.646 105.261C112.579 105.873 112.46 106.48 112.292 107.075C111.85 108.36 110.243 109.021 109.114 109.766C106.656 111.279 104.118 112.676 101.51 113.95C100.23 112.899 92.1466 106.302 89.9151 104.56C86.7005 102.06 83.2883 103.178 82.8253 103.213C82.3624 103.247 81.7486 106.132 85.5302 110.315C85.5302 110.315 97.3222 119.647 99.5745 120.858C100.131 121.155 100.885 121.773 101.796 121.739H101.827H101.941C102.063 121.729 102.184 121.706 102.3 121.67V121.67C103.419 121.335 105.015 120.041 105.686 119.554C109.068 117.009 112.307 114.304 115.393 111.449C116.272 110.651 117.27 109.99 118.222 109.265C119.473 108.378 120.532 107.276 121.343 106.02C121.962 105.136 122.339 104.124 122.441 103.071C122.556 102.157 122.332 101.233 121.806 100.454Z" fill="#FFA8A7"/>
<path d="M70.2738 125.767C67.4909 131.605 66.8147 135.01 66.5962 138.187C66.3778 141.364 66.7003 146.171 66.7003 146.171L91.2675 132.923C90.721 129.686 89.9142 126.492 88.8539 123.368L70.2738 125.767Z" fill="#00A1CD"/>
<path d="M88.8904 116.149L88.7447 122.172C89.0672 123.354 89.5822 125.285 90.1596 127.037C89.7955 128.102 87.1062 130.968 81.3948 132.743C75.361 134.621 68.4792 132.685 67.7146 131.284L70.1073 125.616C70.1073 125.616 68.0267 118.1 67.9955 118.007C67.9643 117.915 70.227 114.859 70.3778 111.196C70.5287 107.533 69.4467 105.961 69.1034 105.611C69.2595 105.548 72.781 104.638 72.781 104.638L79.8032 103.324L83.1062 103.125C85.8579 104.444 88.0868 106.551 89.4678 109.138C90.1062 110.234 90.3915 111.479 90.289 112.723C90.1865 113.968 89.7007 115.157 88.8904 116.149V116.149Z" fill="#FAFAFA"/>
<path d="M84.8956 85.9272C85.629 86.6278 87.1115 88.3062 86.9762 94.3924C86.8358 99.5542 85.0464 100.824 84.1465 101.203C83.2467 101.583 81.5145 101.34 79.8344 101.077V103.592C79.8344 103.592 82.2167 105.144 82.8149 106.55C83.2831 107.645 80.3078 109.172 75.7927 107.353C73.9462 106.608 72.4585 104.716 72.4585 104.716L72.5157 97.2628C72.5157 97.2628 71.5222 98.1579 69.8473 96.7763C68.4637 95.6427 68.0007 93.7259 69.0827 92.7042C69.3638 92.4612 69.7025 92.284 70.0711 92.1872C70.4397 92.0904 70.8275 92.0769 71.2028 92.1477C71.5781 92.2184 71.93 92.3715 72.2297 92.5943C72.5294 92.817 72.7682 93.1032 72.9267 93.4291C75.2404 93.4624 77.5208 92.9111 79.5275 91.8334C83.0802 89.9944 84.6563 87.9316 84.8956 85.9272Z" fill="#FFA8A7"/>
<path d="M80.7134 93.4628C80.7143 93.5895 80.6753 93.7136 80.6014 93.8198C80.5275 93.926 80.4219 94.0095 80.2977 94.0601C80.1735 94.1106 80.0362 94.126 79.9027 94.1042C79.7693 94.0824 79.6456 94.0245 79.5471 93.9375C79.4485 93.8506 79.3794 93.7386 79.3483 93.6153C79.3172 93.4919 79.3255 93.3628 79.3722 93.2439C79.4188 93.1249 79.5018 93.0214 79.6108 92.9462C79.7198 92.8709 79.85 92.8273 79.9852 92.8206C80.0781 92.818 80.1707 92.8326 80.2576 92.8634C80.3445 92.8943 80.424 92.9409 80.4916 93.0006C80.5593 93.0602 80.6137 93.1317 80.6517 93.211C80.6898 93.2903 80.7108 93.3759 80.7134 93.4628Z" fill="#263238"/>
<path d="M80.1829 97.2871L82.7837 97.7298C82.7604 97.8917 82.7024 98.0476 82.6132 98.1881C82.5241 98.3286 82.4055 98.4508 82.2647 98.5476C82.124 98.6443 81.9638 98.7135 81.7938 98.751C81.6238 98.7886 81.4474 98.7937 81.2752 98.7661C80.9238 98.6999 80.6135 98.5088 80.4097 98.2329C80.2059 97.957 80.1246 97.618 80.1829 97.2871V97.2871Z" fill="#B16668"/>
<path d="M81.2804 98.7659C81.4519 98.7993 81.629 98.7993 81.8006 98.7659C81.7872 98.4927 81.662 98.2347 81.4509 98.0454C81.2399 97.8561 80.959 97.75 80.6666 97.7491C80.5091 97.7475 80.3531 97.7774 80.2089 97.8367C80.2753 98.0704 80.4112 98.2818 80.6009 98.4463C80.7905 98.6108 81.0261 98.7216 81.2804 98.7659V98.7659Z" fill="#F28F8F"/>
<path d="M86.2272 91.381L84.6667 90.7826C84.703 90.6843 84.7603 90.594 84.8352 90.5172C84.9101 90.4404 85.001 90.3787 85.1023 90.3358C85.2036 90.293 85.3131 90.27 85.4243 90.2682C85.5354 90.2664 85.6458 90.2858 85.7486 90.3252C85.9571 90.4111 86.1227 90.5682 86.2116 90.7644C86.3005 90.9606 86.3061 91.1811 86.2272 91.381V91.381Z" fill="#263238"/>
<path d="M85.8631 92.9861C85.8629 93.1126 85.8231 93.2362 85.7485 93.3418C85.674 93.4473 85.568 93.5301 85.4437 93.5799C85.3194 93.6298 85.1822 93.6444 85.0491 93.6221C84.916 93.5997 84.7928 93.5414 84.6948 93.4543C84.5967 93.3672 84.5281 93.2551 84.4975 93.1319C84.4668 93.0087 84.4754 92.8798 84.5222 92.7612C84.569 92.6425 84.652 92.5393 84.7609 92.4642C84.8698 92.3892 84.9998 92.3457 85.1348 92.339C85.323 92.3351 85.5051 92.4009 85.6416 92.5222C85.778 92.6434 85.8576 92.8102 85.8631 92.9861V92.9861Z" fill="#263238"/>
<path d="M82.6121 92.7236L83.0906 96.4989L85.1713 95.5745L82.6121 92.7236Z" fill="#F28F8F"/>
<path d="M79.8083 101.062C78.0346 100.839 74.3883 99.851 73.8213 98.4985C74.0468 99.1828 74.4917 99.7857 75.0957 100.226C76.1828 101.101 79.8031 102.094 79.8031 102.094L79.8083 101.062Z" fill="#F28F8F"/>
<path d="M72.651 95.3071C73.1048 95.2709 73.5248 95.0677 73.8184 94.7419C74.112 94.4162 74.2553 93.9948 74.2167 93.5703C74.178 93.1458 73.9607 92.753 73.6124 92.4784C73.2642 92.2037 72.8136 92.0698 72.3597 92.1059L72.651 95.3071Z" fill="#263238"/>
<path d="M54.9655 128.905C55.7301 133.191 57.405 137.175 62.4298 145.159C63.004 146.134 63.7026 147.041 64.5105 147.859C65.3583 148.717 66.3874 149.401 67.5326 149.868C68.2014 150.13 68.9445 150.176 69.6444 149.999C71.0073 149.693 72.1672 148.705 72.2713 148.097C72.4117 147.28 70.846 146.453 70.2322 145.859C69.7121 145.373 68.6717 144.551 68.3232 144.103C67.9747 143.655 67.5794 143.295 68.0163 143.31C68.2816 143.31 68.5365 143.402 68.7914 143.432C69.0094 143.451 69.2288 143.451 69.4468 143.432C69.6655 143.446 69.885 143.416 70.0899 143.343C70.2948 143.27 70.48 143.156 70.6327 143.008C70.6975 142.934 70.7374 142.844 70.7476 142.749C70.7578 142.654 70.7377 142.558 70.69 142.473C70.5895 142.357 70.4562 142.269 70.3051 142.22C69.8242 142.05 69.3566 141.848 68.9058 141.617C68.457 141.376 68.0245 141.11 67.6106 140.819C66.976 140.333 66.1125 139.807 65.7224 139.131C64.7464 137.495 64.0049 135.747 63.5169 133.93C63.1632 132.665 62.4766 130.238 62.1229 127.936C62.2373 127.645 63.8238 124.915 64.8486 123.329C66.3206 121.048 67.725 119.092 69.0827 117.058C71.9488 113.789 71.6835 107.557 69.1451 105.616C64.6821 106.686 63.3973 108.481 61.9252 111.142C60.4896 113.731 56.63 120.95 55.3556 124.516C54.8406 125.927 54.7066 127.434 54.9655 128.905V128.905Z" fill="#FFA8A7"/>
<path d="M185.006 189.766L228.023 180.854L228.112 181.943C228.112 181.943 227.191 183.403 217.141 186.186C207.092 188.968 182.239 193.887 182.239 193.887L181.198 192.598L185.006 189.766Z" fill="#263238"/>
<path d="M215.872 171.926C215.872 171.926 213.323 175.687 210.317 177.895C207.31 180.104 191.211 193.157 191.211 193.157L186.01 195.847L184.449 195.006L186.79 189.912C186.79 189.912 204.97 177.852 208.902 175.317C212.834 172.782 216.377 171.225 215.872 171.926Z" fill="#37474F"/>
<path d="M184.46 193.819L186.02 194.66L185.614 195.629L184.46 195.006V193.819Z" fill="#263238"/>
<path d="M215.914 170.617V171.824L214.619 173.599V171.731L215.914 170.617Z" fill="#37474F"/>
<path d="M190.728 209.08C192.73 206.161 190.395 203.413 190.624 200.912C190.852 198.411 191.206 193.157 191.206 193.157L186.005 195.848C186.005 195.848 184.278 199.973 183.56 201.71C182.842 203.447 179.742 205.281 177.838 206.779C175.934 208.278 174.337 211.858 179.653 213.255C184.969 214.651 188.73 211.985 190.728 209.08ZM181.365 211.309C179.315 210.754 178.701 209.183 179.991 207.796C181.281 206.41 183.986 205.733 186.036 206.288C188.085 206.843 188.694 208.419 187.404 209.805C186.114 211.192 183.445 211.863 181.365 211.309Z" fill="#00A1CD"/>
<path opacity="0.2" d="M190.728 209.08C192.73 206.161 190.395 203.413 190.624 200.912C190.852 198.411 191.206 193.157 191.206 193.157L186.005 195.848C186.005 195.848 184.278 199.973 183.56 201.71C182.842 203.447 179.742 205.281 177.838 206.779C175.934 208.278 174.337 211.858 179.653 213.255C184.969 214.651 188.73 211.985 190.728 209.08ZM181.365 211.309C179.315 210.754 178.701 209.183 179.991 207.796C181.281 206.41 183.986 205.733 186.036 206.288C188.085 206.843 188.694 208.419 187.404 209.805C186.114 211.192 183.445 211.863 181.365 211.309Z" fill="black"/>
<path d="M190.941 191.337C190.648 191.564 190.298 191.718 189.924 191.785C189.55 191.851 189.165 191.828 188.803 191.717C188.018 191.508 187.7 190.987 188.096 190.564C188.389 190.337 188.738 190.183 189.112 190.117C189.486 190.05 189.872 190.073 190.233 190.184C191.019 190.393 191.336 190.914 190.941 191.337Z" fill="#263238"/>
<path d="M184.964 189.187C184.964 189.187 178.816 190.248 176.792 190.423C174.769 190.598 171.841 190.194 166.779 190.627C161.718 191.06 152.605 195.122 152.137 199.063C151.669 203.004 156.038 203.296 159.175 202.59C162.311 201.885 164.049 200.8 169.422 198.285C176.595 194.933 181.354 192.807 181.354 192.807L185.375 189.693L184.964 189.187ZM173.042 194.5C170.118 195.388 167.264 196.467 164.501 197.73C161.073 199.316 160.251 200.391 158.108 200.863C156.366 201.247 154.644 200.333 155.507 198.542C156.439 196.635 159.013 194.65 163.752 193.191C168.491 191.731 172.381 192.004 174.114 192.86C174.805 193.21 175.123 193.862 173.042 194.5Z" fill="#00A1CD"/>
<path opacity="0.2" d="M184.964 189.187C184.964 189.187 178.816 190.248 176.792 190.423C174.769 190.598 171.841 190.194 166.779 190.627C161.718 191.06 152.605 195.122 152.137 199.063C151.669 203.004 156.038 203.296 159.175 202.59C162.311 201.885 164.049 200.8 169.422 198.285C176.595 194.933 181.354 192.807 181.354 192.807L185.375 189.693L184.964 189.187ZM173.042 194.5C170.118 195.388 167.264 196.467 164.501 197.73C161.073 199.316 160.251 200.391 158.108 200.863C156.366 201.247 154.644 200.333 155.507 198.542C156.439 196.635 159.013 194.65 163.752 193.191C168.491 191.731 172.381 192.004 174.114 192.86C174.805 193.21 175.123 193.862 173.042 194.5Z" fill="black"/>
<path d="M182.218 193.887V192.7L181.354 191.62V192.807L182.218 193.887Z" fill="#263238"/>
<path d="M185.006 188.579L228.112 180.756C228.112 180.756 227.191 182.215 217.141 185.003C207.092 187.791 182.239 192.699 182.239 192.699L181.198 191.41L185.006 188.579Z" fill="#37474F"/>
<path d="M215.872 170.739C215.872 170.739 213.323 174.505 210.317 176.713C207.31 178.922 191.211 191.975 191.211 191.975L186.01 194.66L184.449 193.819L186.79 188.725C186.79 188.725 204.97 176.665 208.902 174.13C212.834 171.595 216.377 170.038 215.872 170.739Z" fill="#455A64"/>
<path d="M190.728 207.893C192.73 204.974 190.395 202.225 190.624 199.725C190.852 197.224 191.206 191.975 191.206 191.975L186.005 194.66C186.005 194.66 184.278 198.786 183.56 200.527C182.842 202.269 179.742 204.093 177.838 205.592C175.934 207.09 174.337 210.671 179.653 212.072C184.969 213.473 188.73 210.797 190.728 207.893ZM181.365 210.126C179.315 209.571 178.701 207.995 179.991 206.609C181.281 205.222 183.986 204.551 186.036 205.105C188.085 205.66 188.694 207.231 187.404 208.618C186.114 210.004 183.445 210.681 181.365 210.126Z" fill="#00A1CD"/>
<path d="M190.941 190.15C190.648 190.378 190.299 190.533 189.925 190.6C189.551 190.667 189.165 190.645 188.803 190.535C188.018 190.321 187.7 189.805 188.096 189.377C188.389 189.15 188.738 188.996 189.112 188.93C189.486 188.863 189.872 188.886 190.233 188.997C191.019 189.211 191.336 189.727 190.941 190.15Z" fill="#263238"/>
<path d="M184.964 188C184.964 188 178.816 189.065 176.792 189.241C174.769 189.416 171.841 189.012 166.779 189.44C161.718 189.868 152.605 193.935 152.137 197.876C151.669 201.817 156.038 202.113 159.175 201.403C162.311 200.693 164.049 199.613 169.422 197.102C176.595 193.736 181.365 191.62 181.365 191.62L185.386 188.511L184.964 188ZM173.042 193.313C170.117 194.201 167.263 195.282 164.501 196.548C161.073 198.129 160.251 199.204 158.108 199.676C156.366 200.065 154.644 199.146 155.507 197.355C156.439 195.453 159.013 193.463 163.752 192.028C168.491 190.593 172.381 190.836 174.114 191.693C174.805 192.023 175.123 192.675 173.042 193.313Z" fill="#00A1CD"/>
<path d="M146.873 176.154L159.424 173.853C159.504 173.839 159.586 173.849 159.659 173.881C159.732 173.913 159.793 173.965 159.833 174.031C159.873 174.097 159.89 174.172 159.882 174.248C159.874 174.323 159.841 174.394 159.788 174.451L151.273 183.466L146.873 176.154Z" fill="#FFA8A7"/>
<path d="M159.788 174.451C159.841 174.394 159.874 174.323 159.882 174.248C159.89 174.172 159.873 174.097 159.833 174.031C159.793 173.965 159.732 173.913 159.659 173.881C159.586 173.849 159.504 173.839 159.424 173.853L156.974 174.305C157.311 174.499 157.584 174.777 157.763 175.108C157.941 175.439 158.017 175.809 157.983 176.178V176.382L159.788 174.451Z" fill="#263238"/>
<path d="M104.037 208.818L105.078 208.268L106.321 207.606L151.289 183.49C151.701 182.198 151.577 180.808 150.94 179.598C150.051 177.735 148.34 176.266 146.894 176.193L101.946 200.294L99.5641 201.52C101.145 200.79 105.614 208.034 104.037 208.818Z" fill="#00A1CD"/>
<path d="M107.954 206.711L110.243 205.48C110.919 205.145 110.529 203.588 109.723 201.982C108.683 199.847 106.602 197.774 105.723 198.222L104.032 199.127L103.434 199.462C104.329 199.015 106.394 201.082 107.439 203.223C108.194 204.76 108.578 206.264 108.006 206.667C107.994 206.686 107.976 206.702 107.954 206.711V206.711Z" fill="#EBEBEB"/>
<path d="M108.542 206.385C110.103 205.606 105.614 198.353 104.038 199.131L101.744 200.362C103.304 199.579 107.819 206.832 106.243 207.611L108.542 206.385Z" fill="#00A1CD"/>
<path d="M104.037 208.817L106.305 207.606C107.866 206.852 103.575 199.822 101.931 200.279L101.837 200.313L99.5641 201.52C101.145 200.79 105.614 208.034 104.037 208.817Z" fill="#EBEBEB"/>
<path opacity="0.15" d="M159.846 174.057L159.424 173.853L150.316 178.513L102.789 204.011C102.701 203.879 102.628 203.87 102.571 203.962C103.907 205.908 104.917 208.37 104.037 208.798L105.078 208.248L106.321 207.587L151.289 183.471L159.804 174.456C159.854 174.401 159.884 174.334 159.892 174.262C159.899 174.191 159.883 174.119 159.846 174.057V174.057Z" fill="black"/>
<path d="M94.4197 213.945L104.038 208.818C104.714 208.492 104.339 206.949 103.559 205.354C102.519 203.213 100.469 201.126 99.5641 201.549L89.9151 206.716C88.0009 207.752 89.7591 211.644 91.8969 213.381C92.6824 214.023 93.5719 214.315 94.4197 213.945Z" fill="#F28F8F"/>
<path opacity="0.1" d="M95.0179 211.153C94.4665 209.129 92.7084 207.139 91.0959 206.716C90.8581 206.634 90.6027 206.608 90.3517 206.639C90.1007 206.671 89.8616 206.759 89.6551 206.896C88.209 208.151 89.8943 211.722 91.9126 213.366C92.6928 214.013 93.5667 214.3 94.3937 213.96C95.0907 213.566 95.3664 212.53 95.0179 211.153Z" fill="black"/>
</svg>
