<svg width="166" height="58" viewBox="0 0 166 58" fill="none" xmlns="http://www.w3.org/2000/svg">
<path d="M42.7508 19.22C42.7508 22.3367 41.9442 25.1967 40.3308 27.8C38.7175 30.4033 36.3708 32.53 33.2908 34.18C30.2108 35.83 26.5442 36.8017 22.2908 37.095L19.9258 50.35C19.0092 55.4467 16.5158 57.995 12.4458 57.995C10.2092 57.995 8.13751 57.335 6.23084 56.015C4.36084 54.695 2.85751 52.6783 1.72084 49.965C0.584173 47.2517 0.0158401 43.915 0.0158401 39.955C0.0158401 32.5117 1.20751 26.205 3.59084 21.035C6.01084 15.8283 9.23751 11.9417 13.2708 9.375C17.3408 6.77167 21.8142 5.47 26.6908 5.47C30.1375 5.47 33.0525 6.075 35.4358 7.285C37.8558 8.495 39.6708 10.145 40.8808 12.235C42.1275 14.2883 42.7508 16.6167 42.7508 19.22ZM23.2808 31.43C30.7975 30.4767 34.5558 26.5717 34.5558 19.715C34.5558 17.295 33.7492 15.3333 32.1358 13.83C30.5592 12.29 28.1025 11.52 24.7658 11.52C20.9892 11.52 17.6892 12.7117 14.8658 15.095C12.0792 17.4783 9.91584 20.7967 8.37584 25.05C6.87251 29.2667 6.12084 34.0883 6.12084 39.515C6.12084 41.7883 6.34084 43.805 6.78084 45.565C7.25751 47.325 7.84417 48.7 8.54084 49.69C9.27417 50.6433 9.97084 51.12 10.6308 51.12C11.5475 51.12 12.2442 49.855 12.7208 47.325L14.5358 36.93C13.1058 36.71 12.4825 36.6183 12.6658 36.655C11.5658 36.4717 10.8508 36.1417 10.5208 35.665C10.1908 35.1517 10.0258 34.51 10.0258 33.74C10.0258 32.9333 10.2458 32.2917 10.6858 31.815C11.1625 31.3383 11.8042 31.1 12.6108 31.1C12.9775 31.1 13.2525 31.1183 13.4358 31.155C14.3158 31.3017 14.9942 31.3933 15.4708 31.43C15.9475 28.57 16.6258 24.7383 17.5058 19.935C17.7258 18.6883 18.2208 17.8083 18.9908 17.295C19.7975 16.745 20.7325 16.47 21.7958 16.47C23.0058 16.47 23.8675 16.7083 24.3808 17.185C24.9308 17.625 25.2058 18.34 25.2058 19.33C25.2058 19.9167 25.1692 20.3933 25.0958 20.76L23.2808 31.43ZM46.7173 52.275C45.0673 52.275 43.7106 51.5233 42.6473 50.02C41.6206 48.48 41.1073 46.5733 41.1073 44.3C41.1073 41.55 41.2906 39.0383 41.6573 36.765C42.024 34.455 42.629 32.0167 43.4723 29.45C43.839 28.35 44.3523 27.5617 45.0123 27.085C45.6723 26.6083 46.7173 26.37 48.1473 26.37C48.954 26.37 49.504 26.4983 49.7973 26.755C50.1273 27.0117 50.2923 27.3967 50.2923 27.91C50.2923 28.2033 50.0906 29.1933 49.6873 30.88C49.3206 32.2367 49.0273 33.465 48.8073 34.565C48.074 38.415 47.7073 40.9817 47.7073 42.265C47.7073 43.035 47.799 43.585 47.9823 43.915C48.1656 44.2083 48.459 44.355 48.8623 44.355C49.4123 44.355 50.0906 43.805 50.8973 42.705C51.7406 41.605 52.6206 39.9367 53.5373 37.7C54.4906 35.4633 55.4073 32.7133 56.2873 29.45C56.5806 28.35 57.0206 27.5617 57.6073 27.085C58.2306 26.6083 59.1473 26.37 60.3573 26.37C61.2006 26.37 61.7873 26.48 62.1173 26.7C62.4473 26.8833 62.6123 27.25 62.6123 27.8C62.6123 28.7167 62.154 31.2283 61.2373 35.335C60.2106 40.0283 59.6973 42.925 59.6973 44.025C59.6973 44.7217 59.844 45.2717 60.1373 45.675C60.4306 46.0417 60.8156 46.225 61.2923 46.225C62.0256 46.225 62.8873 45.785 63.8773 44.905C64.904 43.9883 66.2606 42.5217 67.9473 40.505C68.3873 39.9917 68.8823 39.735 69.4323 39.735C69.909 39.735 70.2756 39.955 70.5323 40.395C70.8256 40.835 70.9723 41.44 70.9723 42.21C70.9723 43.6767 70.624 44.8133 69.9273 45.62C68.3506 47.5633 66.6456 49.1583 64.8123 50.405C63.0156 51.6517 60.9623 52.275 58.6523 52.275C56.8923 52.275 55.5906 51.5967 54.7473 50.24C53.9406 48.8833 53.5373 46.9767 53.5373 44.52C52.914 47.0133 51.979 48.9383 50.7323 50.295C49.4856 51.615 48.1473 52.275 46.7173 52.275ZM95.7726 35.115C96.2492 35.115 96.6159 35.3533 96.8726 35.83C97.1292 36.3067 97.2576 36.9117 97.2576 37.645C97.2576 38.5617 97.1292 39.2767 96.8726 39.79C96.6159 40.2667 96.2126 40.5967 95.6626 40.78C93.4626 41.55 91.0426 41.99 88.4026 42.1C87.6692 45.1433 86.2759 47.6 84.2226 49.47C82.2059 51.34 79.9692 52.275 77.5126 52.275C73.8092 52.275 71.1142 50.8633 69.4276 48.04C67.7409 45.2167 66.8976 41.1283 66.8976 35.775C66.8976 31.045 67.4842 25.9117 68.6576 20.375C69.8309 14.8017 71.5359 10.0717 73.7726 6.185C76.0459 2.26166 78.7409 0.299997 81.8576 0.299997C83.5442 0.299997 84.9009 1.03333 85.9276 2.5C86.9542 3.93 87.4676 5.8 87.4676 8.11C87.4676 11.1167 86.8992 14.105 85.7626 17.075C84.6259 20.045 82.7376 23.1617 80.0976 26.425C82.5542 26.6083 84.5526 27.635 86.0926 29.505C87.6326 31.3383 88.5492 33.6117 88.8426 36.325C90.5659 36.215 92.6192 35.8483 95.0026 35.225C95.2226 35.1517 95.4792 35.115 95.7726 35.115ZM80.5926 5.745C79.8592 5.745 79.0526 6.845 78.1726 9.045C77.3292 11.2083 76.5409 14.16 75.8076 17.9C75.0742 21.64 74.5242 25.7283 74.1576 30.165C76.5776 25.7283 78.5026 21.8233 79.9326 18.45C81.3992 15.04 82.1326 12.015 82.1326 9.375C82.1326 8.20166 81.9859 7.30333 81.6926 6.68C81.4359 6.05666 81.0692 5.745 80.5926 5.745ZM77.7326 46.445C78.8692 46.445 79.8776 45.9683 80.7576 45.015C81.6376 44.0617 82.2242 42.6867 82.5176 40.89C81.3809 40.12 80.5009 39.1117 79.8776 37.865C79.2909 36.6183 78.9976 35.2983 78.9976 33.905C78.9976 33.3917 79.0709 32.695 79.2176 31.815H79.0526C77.5492 31.815 76.2842 32.5667 75.2576 34.07C74.2676 35.5367 73.7726 37.5167 73.7726 40.01C73.7726 42.1 74.1576 43.695 74.9276 44.795C75.7342 45.895 76.6692 46.445 77.7326 46.445ZM113.354 39.735C113.83 39.735 114.197 39.955 114.454 40.395C114.747 40.835 114.894 41.44 114.894 42.21C114.894 43.6767 114.545 44.8133 113.849 45.62C112.272 47.5633 110.549 49.1583 108.679 50.405C106.845 51.6517 104.755 52.275 102.409 52.275C99.182 52.275 96.7803 50.8083 95.2037 47.875C93.6637 44.9417 92.8937 41.1467 92.8937 36.49C92.8937 32.0167 93.462 26.92 94.5987 21.2C95.772 15.48 97.477 10.5667 99.7137 6.46C101.987 2.35333 104.682 0.299997 107.799 0.299997C109.559 0.299997 110.934 1.125 111.924 2.775C112.95 4.38833 113.464 6.71667 113.464 9.76C113.464 14.1233 112.254 19.1833 109.834 24.94C107.414 30.6967 104.132 36.3983 99.9887 42.045C100.245 43.5483 100.667 44.63 101.254 45.29C101.84 45.9133 102.61 46.225 103.564 46.225C105.067 46.225 106.387 45.8033 107.524 44.96C108.66 44.08 110.109 42.595 111.869 40.505C112.309 39.9917 112.804 39.735 113.354 39.735ZM106.589 5.745C105.745 5.745 104.792 7.26667 103.729 10.31C102.665 13.3533 101.73 17.13 100.924 21.64C100.117 26.15 99.677 30.4767 99.6037 34.62C102.207 30.33 104.279 26.04 105.819 21.75C107.359 17.4233 108.129 13.4817 108.129 9.925C108.129 7.13833 107.615 5.745 106.589 5.745ZM117.653 22.74C116.113 22.74 114.958 22.3917 114.188 21.695C113.418 20.9617 113.033 19.9533 113.033 18.67C113.033 17.3867 113.528 16.3233 114.518 15.48C115.545 14.6 116.81 14.16 118.313 14.16C119.67 14.16 120.77 14.49 121.613 15.15C122.456 15.81 122.878 16.745 122.878 17.955C122.878 19.4217 122.401 20.595 121.448 21.475C120.495 22.3183 119.23 22.74 117.653 22.74ZM117.213 52.275C114.83 52.275 113.088 51.4317 111.988 49.745C110.925 48.0583 110.393 45.8217 110.393 43.035C110.393 41.385 110.595 39.2767 110.998 36.71C111.438 34.1067 111.988 31.6867 112.648 29.45C112.978 28.2767 113.418 27.47 113.968 27.03C114.518 26.59 115.398 26.37 116.608 26.37C118.478 26.37 119.413 26.9933 119.413 28.24C119.413 29.1567 119.065 31.2833 118.368 34.62C117.488 38.6533 117.048 41.385 117.048 42.815C117.048 43.915 117.195 44.7583 117.488 45.345C117.781 45.9317 118.276 46.225 118.973 46.225C119.633 46.225 120.458 45.7667 121.448 44.85C122.438 43.9333 123.758 42.485 125.408 40.505C125.848 39.9917 126.343 39.735 126.893 39.735C127.37 39.735 127.736 39.955 127.993 40.395C128.286 40.835 128.433 41.44 128.433 42.21C128.433 43.6767 128.085 44.8133 127.388 45.62C123.758 50.0567 120.366 52.275 117.213 52.275ZM134.488 52.275C130.895 52.275 128.09 51.2667 126.073 49.25C124.093 47.1967 123.103 44.5017 123.103 41.165C123.103 38.195 123.69 35.5917 124.863 33.355C126.037 31.1183 127.558 29.395 129.428 28.185C131.298 26.975 133.26 26.37 135.313 26.37C137.33 26.37 138.888 26.975 139.988 28.185C141.125 29.3583 141.693 30.88 141.693 32.75C141.693 34.29 141.345 35.5917 140.648 36.655C139.988 37.7183 139.108 38.25 138.008 38.25C137.312 38.25 136.743 38.085 136.303 37.755C135.9 37.425 135.698 36.9667 135.698 36.38C135.698 36.1233 135.735 35.83 135.808 35.5C135.882 35.17 135.937 34.9317 135.973 34.785C136.157 34.235 136.248 33.7217 136.248 33.245C136.248 32.7683 136.12 32.4017 135.863 32.145C135.643 31.8883 135.313 31.76 134.873 31.76C134.03 31.76 133.242 32.145 132.508 32.915C131.775 33.6483 131.188 34.6567 130.748 35.94C130.308 37.2233 130.088 38.635 130.088 40.175C130.088 44.4283 131.94 46.555 135.643 46.555C137.147 46.555 138.76 46.06 140.483 45.07C142.243 44.0433 143.967 42.5217 145.653 40.505C146.093 39.9917 146.588 39.735 147.138 39.735C147.615 39.735 147.982 39.955 148.238 40.395C148.532 40.835 148.678 41.44 148.678 42.21C148.678 43.6033 148.33 44.74 147.633 45.62C145.91 47.7467 143.838 49.3967 141.418 50.57C139.035 51.7067 136.725 52.275 134.488 52.275ZM153.527 52.275C151.364 52.275 149.512 51.7433 147.972 50.68C146.469 49.58 145.332 48.15 144.562 46.39C143.792 44.63 143.407 42.7417 143.407 40.725C143.407 37.9383 143.921 35.4633 144.947 33.3C146.011 31.1 147.441 29.395 149.237 28.185C151.034 26.9383 153.051 26.315 155.287 26.315C157.451 26.315 159.302 26.865 160.842 27.965C162.382 29.0283 163.537 30.44 164.307 32.2C165.077 33.96 165.462 35.8483 165.462 37.865C165.462 40.6517 164.931 43.145 163.867 45.345C162.804 47.5083 161.356 49.2133 159.522 50.46C157.726 51.67 155.727 52.275 153.527 52.275ZM154.132 46.335C155.379 46.335 156.424 45.6567 157.267 44.3C158.147 42.9433 158.587 40.9633 158.587 38.36C158.587 36.3433 158.221 34.8217 157.487 33.795C156.754 32.7683 155.874 32.255 154.847 32.255C153.527 32.255 152.427 32.9333 151.547 34.29C150.704 35.61 150.282 37.59 150.282 40.23C150.282 42.32 150.649 43.86 151.382 44.85C152.116 45.84 153.032 46.335 154.132 46.335Z" fill="white"/>
</svg>
